<svg height="473pt" viewBox="0 0 473 473.06" width="473pt" xmlns="http://www.w3.org/2000/svg"><path d="m340.039062 424.769531c-4.769531-10.148437-7.230468-21.226562-7.199218-32.441406 0-39.066406 28.988281-70.738281 64.738281-70.738281 10.507813.003906 20.828125 2.765625 29.933594 8.011718l12.328125 9.148438.03125.019531c13.738281 12.980469 22.4375 32.160157 22.4375 53.558594 0 39.0625-28.980469 70.730469-64.730469 70.730469-25.046875 0-46.777344-15.546875-57.539063-38.289063zm0 0" fill="#00acea"/><path d="m334.921875 260.859375 92.589844 68.742187c-9.105469-5.246093-19.425781-8.007812-29.933594-8.011718-35.75 0-64.738281 31.671875-64.738281 70.738281-.03125 11.214844 2.429687 22.292969 7.199218 32.441406l-76.21875-112.488281-.011718-.050781c29.390625-7.398438 54.792968-25.839844 70.929687-51.492188zm0 0" fill="#00efd1"/><path d="m208.5 312.320312c-29.46875-7.308593-54.972656-25.722656-71.191406-51.390624-12.257813-19.289063-18.746094-41.683594-18.699219-64.539063 0-65.902344 117.359375-186.390625 117.359375-186.390625s117.351562 120.488281 117.351562 186.390625c.042969 22.777344-6.402343 45.097656-18.582031 64.347656-16.136719 25.652344-41.539062 44.09375-70.929687 51.492188-8.421875 2.085937-17.050782 3.214843-25.730469 3.359375 44.070313-1.328125 79.472656-44.230469 79.472656-96.949219 0-53.71875-81.582031-122.359375-81.582031-122.359375s-81.589844 68.640625-81.589844 122.359375c.011719 52.71875 35.402344 95.621094 79.480469 96.949219-8.546875-.140625-17.054687-1.238282-25.359375-3.269532zm0 0" fill="#fedb41"/><path d="m235.96875 96.28125s81.582031 68.640625 81.582031 122.359375c0 52.71875-35.402343 95.621094-79.472656 96.949219-.269531.011718-.546875.011718-.828125.011718 26.558594-.800781 47.890625-26.652343 47.890625-58.429687 0-32.382813-49.171875-73.761719-49.171875-73.761719s-49.179688 41.378906-49.179688 73.761719c.011719 31.777344 21.339844 57.628906 47.902344 58.429687-.28125 0-.5625 0-.832031-.011718-44.078125-1.328125-79.46875-44.230469-79.480469-96.949219 0-53.71875 81.589844-122.359375 81.589844-122.359375zm0 0" fill="#00acea"/><path d="m235.96875 183.410156s49.171875 41.378906 49.171875 73.761719c0 31.777344-21.332031 57.628906-47.890625 58.429687-.429688.007813-.859375.019532-1.289062.019532-.429688 0-.851563-.011719-1.269532-.019532-26.5625-.800781-47.890625-26.652343-47.902344-58.429687 0-32.382813 49.179688-73.761719 49.179688-73.761719zm0 0" fill="#fedb41"/><path d="m208.5 312.320312-76.230469 112.5c4.785157-10.160156 7.25-21.257812 7.21875-32.492187 0-39.066406-28.976562-70.738281-64.726562-70.738281-10.511719.003906-20.835938 2.765625-29.941407 8.011718l92.488282-68.671874c16.21875 25.667968 41.722656 44.082031 71.191406 51.390624zm0 0" fill="#00efd1"/><path d="m132.269531 424.820312c-10.769531 22.71875-32.480469 38.238282-57.507812 38.238282-35.75 0-64.730469-31.667969-64.730469-70.730469 0-21.398437 8.699219-40.578125 22.4375-53.558594l.03125-.019531 12.320312-9.148438c9.105469-5.246093 19.429688-8.007812 29.941407-8.011718 35.75 0 64.726562 31.671875 64.726562 70.738281.03125 11.234375-2.433593 22.332031-7.21875 32.492187zm0 0" fill="#00acea"/><path d="m74.761719 473.058594c27.921875 0 53.191406-16.527344 66.164062-43.183594l72.070313-106.363281c6.742187 1.238281 13.574218 1.921875 20.425781 2.042969.027344 0 .050781-.023438.078125-.023438h.058594c.042968 0 .085937.03125.128906.03125.015625 0 .027344.011719.042969.011719.269531.007812.539062.019531.816406.019531.46875.007812.945313.023438 1.414063.023438s.910156-.039063 1.40625-.050782c.308593 0 .609374-.035156.875-.035156h.019531c.039062 0 .082031.027344.121093.027344.035157-.003906.058594.007812.089844.007812 6.988282-.128906 13.957032-.839844 20.832032-2.132812l72.078124 106.378906c12.960938 26.695312 38.246094 43.246094 66.199219 43.246094 41.203125 0 74.730469-36.214844 74.730469-80.730469 0-23.300781-9.324219-45.476563-25.574219-60.828125l-6.9375 7.347656.113281-.175781 6.792969-7.191406c-4.140625-3.917969-8.714843-7.34375-13.636719-10.210938l-85.179687-63.238281c10.152344-18.957031 15.453125-40.136719 15.429687-61.640625 0-29.578125-20.433593-71.289063-60.730468-123.984375-18.5625-24.175781-38.410156-47.335938-59.457032-69.382812-1.882812-1.933594-4.464843-3.023438-7.164062-3.023438-2.695312 0-5.28125 1.089844-7.160156 3.023438-21.050782 22.046874-40.898438 45.207031-59.460938 69.382812-40.300781 52.691406-60.738281 94.40625-60.738281 123.984375-.027344 21.585937 5.3125 42.84375 15.542969 61.855469l-84.859375 63.007812c-4.929688 2.875-9.511719 6.304688-13.65625 10.226563l6.789062 7.191406.121094.175781-6.945313-7.347656c-16.25 15.355469-25.570312 37.53125-25.570312 60.828125 0 44.515625 33.523438 80.730469 74.730469 80.730469zm117.863281-155.136719-43.714844 64.515625c-4.125-36.289062-30.609375-65.195312-64.070312-70.09375l50.15625-37.242188c14.683594 19.527344 34.695312 34.394532 57.628906 42.820313zm144.453125-43 50.417969 37.429687c-33.460938 4.898438-59.941406 33.796876-64.074219 70.078126l-43.785156-64.625c22.871093-8.476563 42.816406-23.367188 57.441406-42.886719zm-100.066406 30.679687c-.679688.015626-1.367188.019532-2.046875 0-21.042969-.652343-38.167969-22.371093-38.175782-48.433593 0-10.621094 7.820313-25.652344 22.015626-42.316407 5.402343-6.300781 11.140624-12.304687 17.183593-17.988281 14.570313 13.765625 39.152344 41 39.152344 60.304688 0 26.074219-17.132813 47.800781-38.128906 48.433593zm57.222656-36.511718c.597656-3.945313.902344-7.929688.90625-11.917969 0-35.996094-47.335937-76.871094-52.730469-81.414063-3.722656-3.128906-9.15625-3.128906-12.878906 0-9.214844 7.984376-17.820312 16.636719-25.753906 25.894532-17.90625 20.960937-26.988282 39.640625-26.988282 55.523437.003907 3.988281.308594 7.96875.910157 11.910157-8.855469-15.328126-13.453125-32.746094-13.320313-50.445313 0-36.667969 46.902344-86.707031 71.59375-109.070313 24.699219 22.347657 71.578125 72.347657 71.578125 109.070313.136719 17.703125-4.460937 35.121094-13.316406 50.449219zm158.074219 123.238281c0 33.488281-24.550782 60.730469-54.730469 60.730469-20.410156 0-39-12.476563-48.5-32.566406-4.152344-8.804688-6.285156-18.425782-6.238281-28.164063 0-33.488281 24.554687-60.738281 54.738281-60.738281 8.613281-.003906 17.078125 2.226562 24.570313 6.480468l11.207031 8.320313c12.046875 11.578125 18.953125 28.285156 18.953125 45.9375zm-267.1875-307.617187c20.125-26.328126 40.46875-48.949219 50.886718-60.179688 35.558594 38.054688 107.3125 124.597656 107.3125 171.859375.042969 25.953125-9.085937 51.089844-25.773437 70.96875 6.652344-15.375 10.058594-31.964844 10-48.71875 0-57.710937-81.667969-127.085937-85.144531-130.011719-3.71875-3.132812-9.152344-3.132812-12.875 0-3.476563 2.925782-85.152344 72.300782-85.152344 130.011719-.054688 16.757813 3.351562 33.347656 10.011719 48.722656-3.136719-3.738281-6.023438-7.679687-8.644531-11.800781-11.226563-17.691406-17.171876-38.21875-17.132813-59.171875 0-17.226563 9.804687-50.582031 56.511719-111.679687zm-146.132813 261.675781 11.230469-8.335938c7.484375-4.242187 15.941406-6.46875 24.542969-6.460937 30.175781 0 54.726562 27.25 54.726562 60.738281.015625 9.75-2.121093 19.378906-6.253906 28.207031-9.515625 20.0625-28.085937 32.523438-48.472656 32.523438-30.179688 0-54.730469-27.242188-54.730469-60.730469 0-17.652344 6.90625-34.359375 18.957031-45.941406zm0 0" fill="#083863"/></svg>