<svg height="478pt" viewBox="-56 0 478 478.59876" width="478pt" xmlns="http://www.w3.org/2000/svg"><path d="m279.917969 147.308594c37.210937 56.53125 76.339843 117.929687 76.339843 157.5-.027343 90.449218-77.449218 163.761718-172.957031 163.789062-95.511719-.027344-172.929687-73.339844-172.960937-163.789062 0-39.570313 39.128906-100.96875 76.339844-157.5 31.679687-47.417969 96.46875-137.160156 96.621093-137.308594 0 0 64.9375 89.890625 96.617188 137.308594zm0 0" fill="#00acea"/><g fill="#083863"><path d="m183.28125 478.597656c100.851562-.03125 182.9375-77.992187 182.96875-173.789062 0-41.113282-36.886719-100.5625-78.019531-163.054688-31.417969-47.027344-96.175781-136.710937-96.832031-137.609375-1.714844-2.375-4.386719-3.878906-7.304688-4.113281-2.921875-.234375-5.796875.824219-7.871094 2.898438-2 2-70.230468 97.4375-97.917968 138.882812-41.097657 62.433594-78.003907 121.886719-78.003907 162.996094 0 95.796875 82.125 173.757812 182.980469 173.789062zm-88.28125-325.734375c24.398438-36.523437 69.828125-100.097656 88.289062-125.765625 18.410157 25.621094 63.707032 88.933594 88.277344 125.710938 29.742188 45.1875 74.691406 113.476562 74.691406 152-.027343 84.769531-73.132812 153.761718-162.957031 153.789062-89.832031-.027344-162.933593-69.019531-162.964843-153.789062.003906-38.527344 44.953124-106.808594 74.664062-151.945313zm0 0"/><path d="m239.265625 394.25c2.132813 0 4.207031-.679688 5.917969-1.945312 18.425781-13.46875 34.074218-30.375 46.078125-49.785157 2.898437-4.703125 1.4375-10.863281-3.261719-13.765625-4.703125-2.898437-10.863281-1.4375-13.761719 3.265625-10.65625 17.222657-24.546875 32.222657-40.902343 44.171875-3.480469 2.5625-4.921876 7.070313-3.574219 11.175782 1.347656 4.109374 5.183593 6.882812 9.507812 6.878906zm0 0"/></g></svg>