<svg height="480pt" viewBox="-82 0 480 480.64024" width="480pt" xmlns="http://www.w3.org/2000/svg"><path d="m279.019531 193.601562c14.429688 21.929688 27.28125 45.75 27.28125 61.097657-.011719 35.082031-30.039062 63.519531-67.089843 63.53125-37.039063-.011719-67.070313-28.449219-67.082032-63.53125 0-15.347657 12.851563-39.167969 27.28125-61.097657 12.328125-18.4375 25.613282-36.214843 39.800782-53.261718 14.195312 17.042968 27.480468 34.820312 39.808593 53.261718zm0 0" fill="#00efd1"/><path d="m144.710938 313.96875c18.140624 27.570312 34.300781 57.511719 34.300781 76.800781-.023438 44.101563-37.773438 79.851563-84.339844 79.871094-46.570313-.019531-84.320313-35.769531-84.332031-79.871094 0-19.289062 16.148437-49.230469 34.289062-76.800781 15.492188-23.179688 32.195313-45.527344 50.042969-66.949219 17.84375 21.421875 34.546875 43.769531 50.039063 66.949219zm0 0" fill="#00acea"/><path d="m138.839844 62.410156c14.199218 21.582032 26.839844 45.011719 26.839844 60.109375-.007813 34.519531-29.550782 62.511719-66.007813 62.519531-36.453125-.007812-66-28-66.011719-62.519531 0-15.097656 12.648438-38.527343 26.851563-60.109375 12.121093-18.144531 25.195312-35.640625 39.160156-52.410156 13.964844 16.769531 27.039063 34.265625 39.167969 52.410156zm0 0" fill="#fedb41"/><g fill="#083863"><path d="m94.664062 480.640625c52-.023437 94.316407-40.335937 94.339844-89.871094 0-18.613281-11.753906-45.535156-35.980468-82.355469-15.695313-23.46875-32.605469-46.097656-50.671876-67.792968-1.898437-2.28125-4.714843-3.601563-7.683593-3.601563s-5.78125 1.320313-7.683594 3.601563c-18.082031 21.714844-35.011719 44.363281-50.71875 67.851562-24.179687 36.753906-35.945313 63.671875-35.945313 82.296875 0 49.535157 42.335938 89.851563 94.34375 89.871094zm-41.71875-161.113281c12.976563-19.421875 26.980469-38.460938 41.726563-56.734375 14.742187 18.273437 28.742187 37.300781 41.683594 56.671875 12.195312 18.539062 32.65625 52.445312 32.65625 71.300781-.019531 38.511719-33.371094 69.855469-74.335938 69.875-40.980469-.019531-74.324219-31.363281-74.335937-69.871094 0-18.871093 20.453125-52.773437 32.605468-71.242187zm0 0"/><path d="m162.320312 254.703125c0 40.53125 34.492188 73.515625 76.988282 73.527344 42.492187-.011719 77.027344-33 77.039062-73.53125 0-15.230469-9.484375-37.015625-28.988281-66.65625-12.53125-18.726563-26.035156-36.785157-40.453125-54.101563-1.902344-2.28125-4.71875-3.601562-7.691406-3.601562-2.96875 0-5.785156 1.320312-7.6875 3.601562-14.394532 17.339844-27.871094 35.417969-40.375 54.160156-19.464844 29.582032-28.832032 51.367188-28.832032 66.597657zm45.398438-55.546875c9.800781-14.667969 20.367188-29.089844 31.488281-43 11.117188 13.894531 21.675781 28.304688 31.457031 42.9375 22.296876 33.902344 25.632813 49.386719 25.632813 55.601562-.007813 29.511719-25.621094 53.523438-57.085937 53.53125-31.46875-.007812-57.074219-24.019531-57.085938-53.53125.007812-6.214843 3.339844-21.707031 25.59375-55.539062zm0 0"/><path d="m99.503906 195.039062c41.898438-.011718 76.078125-32.542968 76.089844-72.519531 0-15.015625-9.273438-36.476562-28.480469-65.664062-12.320312-18.433594-25.597656-36.207031-39.777343-53.253907-1.898438-2.28125-4.710938-3.601562-7.679688-3.601562s-5.78125 1.320312-7.675781 3.601562c-14.257813 17.0625-27.609375 34.855469-40 53.3125-19.171875 29.140626-28.660157 50.601563-28.660157 65.605469 0 39.976563 34.277344 72.507813 76.183594 72.519531zm-30.679687-127.074218c9.609375-14.382813 19.953125-28.515625 30.847656-42.144532 10.914063 13.652344 21.257813 27.777344 30.8125 42.085938 21.921875 33.3125 25.195313 48.515625 25.195313 54.613281-.007813 28.953125-25.136719 52.515625-56.007813 52.523438-30.875-.007813-56-23.570313-56.011719-52.523438 0-6.097656 3.277344-21.292969 25.164063-54.554687zm0 0"/></g></svg>