<svg height="465pt" viewBox="-51 0 465 465.8881" width="465pt" xmlns="http://www.w3.org/2000/svg"><path d="m352.785156 281.859375c0 95.589844-76.058594 173.070313-169.628906 173.910156 65-.980469 117.449219-63.929687 117.457031-141.453125 0-78.347656-119-178.46875-119-178.46875s-119 100.121094-119 178.46875c.011719 77.511719 52.453125 140.460938 117.441407 141.453125-93.570313-.851562-169.609376-78.332031-169.609376-173.910156 0-96.109375 171.167969-271.859375 171.167969-271.859375s171.171875 175.75 171.171875 271.859375zm0 0" fill="#fedb41"/><path d="m300.613281 314.316406c-.007812 77.523438-52.457031 140.472656-117.457031 141.453125-.511719.007813-1.011719.007813-1.519531.007813 39.597656-.007813 71.699219-38.179688 71.699219-85.257813 0-47.230469-71.722657-107.582031-71.722657-107.582031s-71.71875 60.351562-71.71875 107.582031c0 47.058594 32.082031 85.207031 71.652344 85.257813-.5 0-.992187 0-1.492187-.007813-64.988282-.992187-117.429688-63.941406-117.441407-141.453125 0-78.347656 119-178.46875 119-178.46875s119 100.121094 119 178.46875zm0 0" fill="#00acea"/><path d="m181.613281 262.9375s71.722657 60.351562 71.722657 107.582031c0 47.078125-32.101563 85.25-71.699219 85.257813h-.089844c-39.570313-.050782-71.652344-38.199219-71.652344-85.257813 0-47.230469 71.71875-107.582031 71.71875-107.582031zm0 0" fill="#00efd1"/><path d="m179.730469 465.824219c.039062 0 .078125.0625.121093.0625h1.785157v-.054688c.578125 0 1.140625-.027343 1.667969-.039062.035156 0 .066406-.015625.101562-.015625 47.929688-.472656 92.953125-19.804688 126.800781-54.4375 33.855469-34.574219 52.746094-81.085938 52.578125-129.476563 0-99.039062-166.898437-271.546875-174.007812-278.839843-1.878906-1.933594-4.464844-3.023438-7.164063-3.023438-2.695312 0-5.28125 1.089844-7.160156 3.023438-7.105469 7.292968-174.007813 179.796874-174.007813 278.835937-.167968 48.394531 18.710938 94.914063 52.5625 129.5 33.828126 34.613281 78.820313 53.964844 126.722657 54.464844zm1.875-19.9375h-.058594c-34 0-61.652344-33.863281-61.652344-75.3125 0-31.414063 39.949219-74.410157 61.71875-94.289063 21.777344 19.882813 61.722657 62.890625 61.722657 94.300782 0 41.488281-27.679688 75.300781-61.730469 75.300781zm74.109375-35.238281c5.066406-12.769532 7.652344-26.390626 7.617187-40.128907 0-51.300781-72.207031-112.644531-75.28125-115.234375-3.722656-3.128906-9.15625-3.128906-12.878906 0-3.074219 2.589844-75.28125 63.9375-75.28125 115.234375-.035156 13.742188 2.550781 27.367188 7.625 40.136719-.964844-1.082031-1.921875-2.179688-2.863281-3.308594-20.652344-24.859375-32.039063-57.898437-32.039063-93.03125 0-29.570312 19.683594-68.265625 56.925781-111.90625 16.207032-18.84375 33.601563-36.632812 52.074219-53.257812 18.476563 16.625 35.871094 34.414062 52.078125 53.257812 37.242188 43.640625 56.921875 82.335938 56.921875 111.90625 0 35.140625-11.382812 68.179688-32.046875 93.035156-.933594 1.125-1.886718 2.21875-2.851562 3.296876zm-151.859375-294.53125c31.75-41.53125 63.847656-76.742188 77.757812-91.601563 13.890625 14.828125 45.910157 49.949219 77.644531 91.441406 54.644532 71.449219 83.527344 128.816407 83.527344 165.902344.121094 50.117187-22.582031 97.566406-61.683594 128.921875 19.09375-27.085938 29.511719-60.886719 29.511719-96.464844 0-82.058594-117.554687-181.910156-122.558593-186.121094-3.722657-3.128906-9.15625-3.128906-12.878907 0-5.003906 4.210938-122.5625 104.0625-122.5625 186.125 0 35.578126 10.421875 69.378907 29.519531 96.46875-39.101562-31.355468-61.804687-78.808593-61.6875-128.929687 0-37.054687 28.84375-94.371094 83.410157-165.742187zm0 0" fill="#083863"/></svg>