<svg height="482pt" viewBox="0 0 482.8796 482" width="482pt" xmlns="http://www.w3.org/2000/svg"><path d="m452.308594 211.027344c12.457031 5.191406 20.570312 17.359375 20.570312 30.851562 0 13.492188-8.113281 25.664063-20.570312 30.851563-10.71875 4.457031-22.21875 6.75-33.828125 6.75-2.828125 0-5.648438-.132813-8.46875-.410157l-102.019531-9.953124c7.132812-17.457032 7.132812-37.019532 0-54.476563l102.019531-9.953125c14.40625-1.390625 28.933593.785156 42.296875 6.339844zm0 0" fill="#fedb41"/><path d="m405.089844 78.230469c9.566406 9.527343 12.4375 23.886719 7.269531 36.359375-5.519531 13.378906-14.25 25.1875-25.417969 34.390625l-79.171875 65.097656c-7.320312-17.378906-21.148437-31.207031-38.527343-38.527344l65.097656-79.171875c9.199218-11.171875 21.011718-19.902344 34.390625-25.417968 12.472656-5.167969 26.832031-2.296876 36.359375 7.269531zm0 0" fill="#fedb41"/><path d="m412.359375 369.167969c5.15625 12.476562 2.292969 26.832031-7.253906 36.375-9.546875 9.546875-23.898438 12.410156-36.375 7.257812-13.378907-5.519531-25.191407-14.25-34.390625-25.421875l-65.097656-79.167968c17.378906-7.324219 31.207031-21.152344 38.527343-38.53125l79.171875 65.097656c11.167969 9.203125 19.898438 21.015625 25.417969 34.390625zm0 0" fill="#fedb41"/><path d="m307.992188 214.640625c7.132812 17.457031 7.132812 37.019531 0 54.476563l-.222657.5625c-7.320312 17.378906-21.148437 31.207031-38.527343 38.53125l-.5625.21875c-17.457032 7.132812-37.019532 7.132812-54.480469 0l-.558594-.21875c-17.382813-7.324219-31.210937-21.152344-38.53125-38.53125l-.21875-.5625c-7.132813-17.457032-7.132813-37.019532 0-54.476563l.21875-.5625c7.320313-17.378906 21.148437-31.207031 38.53125-38.527344l.558594-.222656c17.460937-7.132813 37.023437-7.132813 54.480469 0l.5625.222656c17.378906 7.320313 31.207031 21.148438 38.527343 38.527344zm0 0" fill="#3bb54a"/><g fill="#fedb41"><path d="m272.289062 31.007812c5.558594 13.367188 7.734376 27.894532 6.339844 42.300782l-9.949218 102.019531c-17.457032-7.132813-37.019532-7.132813-54.480469 0l-9.949219-102.019531c-1.394531-14.40625.785156-28.933594 6.339844-42.300782 5.1875-12.453124 17.359375-20.570312 30.851562-20.570312 13.492188 0 25.660156 8.117188 30.847656 20.570312zm0 0"/><path d="m278.628906 410.449219c1.394532 14.40625-.78125 28.933593-6.339844 42.300781-5.1875 12.453125-17.355468 20.570312-30.847656 20.570312-13.492187 0-25.664062-8.117187-30.851562-20.570312-5.554688-13.367188-7.734375-27.894531-6.339844-42.300781l9.949219-102.019531c17.460937 7.132812 37.023437 7.132812 54.480469 0zm0 0"/><path d="m148.539062 96.378906 65.101563 79.171875c-17.382813 7.320313-31.210937 21.148438-38.53125 38.527344l-79.167969-65.097656c-11.171875-9.203125-19.902344-21.011719-25.421875-34.390625-5.136719-12.476563-2.269531-26.820313 7.269531-36.359375 9.542969-9.542969 23.886719-12.410157 36.363282-7.269531 13.375 5.515624 25.1875 14.246093 34.386718 25.417968zm0 0"/><path d="m213.640625 308.210938-65.101563 79.167968c-9.199218 11.171875-21.011718 19.902344-34.386718 25.421875-12.476563 5.136719-26.820313 2.269531-36.363282-7.273437-9.539062-9.539063-12.40625-23.882813-7.269531-36.359375 5.519531-13.375 14.25-25.1875 25.421875-34.390625l79.167969-65.097656c7.320313 17.378906 21.148437 31.207031 38.53125 38.53125zm0 0"/><path d="m72.871094 204.6875 102.019531 9.953125c-7.132813 17.457031-7.132813 37.019531 0 54.476563l-102.019531 9.953124c-2.820313.277344-5.652344.410157-8.46875.410157-11.613282 0-23.109375-2.296875-33.832032-6.75-12.457031-5.1875-20.570312-17.359375-20.570312-30.851563 0-13.492187 8.113281-25.660156 20.570312-30.851562 13.363282-5.554688 27.894532-7.730469 42.300782-6.339844zm0 0"/></g><path d="m456.15625 201.796875c-14.886719-6.1875-31.070312-8.613281-47.117188-7.0625l-70.34375 6.863281 54.601563-44.894531c12.441406-10.246094 22.164063-23.402344 28.3125-38.300781 6.679687-16.207032 2.953125-34.84375-9.441406-47.238282-12.394531-12.398437-31.03125-16.125-47.238281-9.449218-14.902344 6.148437-28.0625 15.871094-38.308594 28.316406l-44.894532 54.597656 6.855469-70.351562c1.550781-16.042969-.871093-32.226563-7.058593-47.113282-6.742188-16.183593-22.550782-26.722656-40.082032-26.722656s-33.34375 10.539063-40.082031 26.722656c-6.1875 14.886719-8.613281 31.070313-7.0625 47.113282l6.863281 70.34375-44.894531-54.597656c-10.246094-12.441407-23.402344-22.167969-38.300781-28.316407-16.210938-6.675781-34.84375-2.949219-47.238282 9.445313-12.398437 12.394531-16.125 31.027344-9.449218 47.238281 6.144531 14.902344 15.871094 28.058594 28.3125 38.308594l54.601562 44.894531-70.351562-6.859375c-16.046875-1.550781-32.226563.875-47.113282 7.0625-16.183593 6.738281-26.726562 22.550781-26.726562 40.082031s10.542969 33.34375 26.726562 40.082032c11.933594 4.980468 24.742188 7.535156 37.675782 7.519531 3.207031 0 6.390625-.15625 9.4375-.457031l70.34375-6.863282-54.597656 44.894532c-12.441407 10.246093-22.167969 23.402343-28.316407 38.300781-6.691406 16.210937-2.972656 34.855469 9.429688 47.253906 12.398437 12.402344 31.042969 16.125 47.253906 9.433594 14.902344-6.148438 28.058594-15.871094 38.308594-28.316407l44.894531-54.597656-6.859375 70.351563c-1.550781 16.042969.875 32.226562 7.0625 47.113281 6.738281 16.183594 22.550781 26.722656 40.082031 26.722656 17.527344 0 33.339844-10.539062 40.078125-26.722656 6.191407-14.886719 8.613281-31.070312 7.0625-47.117188l-6.859375-70.34375 44.894532 54.597657c10.246093 12.441406 23.398437 22.167969 38.300781 28.3125 16.207031 6.683593 34.84375 2.960937 47.242187-9.4375 12.398438-12.394531 16.125-31.03125 9.449219-47.242188-6.144531-14.898437-15.871094-28.058593-28.3125-38.304687l-54.601563-44.894532 70.324219 6.859376c3.066407.304687 6.25.457031 9.460938.457031 12.929687-.015625 25.730469-2.570313 37.675781-7.515625 16.179688-6.742188 26.722656-22.554688 26.722656-40.082032 0-17.53125-10.542968-33.34375-26.722656-40.082031zm-190.789062 97.191406c-.050782.023438-.101563.050781-.148438.074219-.109375.039062-.21875.070312-.328125.113281-15.03125 6.136719-31.871094 6.136719-46.898437 0-.109376-.042969-.222657-.074219-.332032-.113281-.046875-.023438-.097656-.050781-.144531-.074219-14.949219-6.335937-26.847656-18.234375-33.1875-33.183593-.019531-.050782-.046875-.101563-.070313-.148438-.042968-.109375-.070312-.21875-.113281-.328125-6.140625-15.03125-6.140625-31.867187 0-46.898437.042969-.109376.070313-.21875.113281-.328126.023438-.050781.050782-.101562.070313-.148437 6.339844-14.949219 18.238281-26.847656 33.1875-33.183594.050781-.023437.097656-.050781.144531-.074219.109375-.039062.222656-.066406.332032-.113281 15.027343-6.136719 31.867187-6.136719 46.898437 0 .117187.050781.238281.082031.355469.125.039062.019531.078125.042969.121094.0625 14.945312 6.335938 26.847656 18.234375 33.183593 33.183594.023438.050781.050781.101563.074219.148437.039062.109376.066406.21875.113281.328126 6.136719 15.03125 6.136719 31.867187 0 46.898437-.046875.109375-.074219.21875-.113281.328125-.023438.050781-.050781.101562-.074219.148438-6.335937 14.949218-18.238281 26.847656-33.183593 33.183593zm76.699218-196.257812c8.152344-9.898438 18.621094-17.636719 30.472656-22.527344 8.742188-3.597656 18.792969-1.585937 25.480469 5.097656 6.683594 6.6875 8.691407 16.734375 5.09375 25.476563-4.890625 11.855468-12.625 22.320312-22.523437 30.472656l-69.667969 57.285156c-6.644531-10.5625-15.578125-19.5-26.144531-26.140625zm-122.242187-67.878907c3.632812-8.726562 12.160156-14.414062 21.617187-14.414062 9.457032 0 17.984375 5.6875 21.617188 14.414062 4.921875 11.84375 6.851562 24.71875 5.617187 37.484376l-8.75 89.742187c-12.164062-2.800781-24.804687-2.800781-36.96875 0l-8.753906-89.738281c-1.234375-12.769532.695313-25.644532 5.621094-37.488282zm-140.058594 75.925782c-3.613281-8.742188-1.609375-18.800782 5.082031-25.492188 6.691406-6.6875 16.75-8.691406 25.492188-5.078125 11.855468 4.890625 22.320312 12.625 30.472656 22.523438l57.285156 69.667969c-10.566406 6.640624-19.5 15.578124-26.144531 26.140624l-69.664063-57.285156c-9.898437-8.152344-17.632812-18.621094-22.523437-30.476562zm-7.882813 158.339844c-2.414062.242187-4.929687.363281-7.480468.363281-10.292969-.015625-20.480469-2.046875-29.988282-5.984375-8.730468-3.632813-14.414062-12.160156-14.414062-21.617188 0-9.453125 5.683594-17.984375 14.414062-21.617187 9.503907-3.949219 19.691407-5.984375 29.984376-5.984375 2.503906 0 5.003906.121094 7.5.367187l89.738281 8.75c-2.796875 12.164063-2.796875 24.804688 0 36.96875zm68.933594 111.910156c-8.15625 9.902344-18.625 17.640625-30.484375 22.53125-8.742187 3.59375-18.789062 1.582031-25.472656-5.105469-6.683594-6.683594-8.691406-16.734375-5.089844-25.472656 4.886719-11.855469 12.625-22.320313 22.523438-30.472657l69.664062-57.285156c6.644531 10.5625 15.578125 19.5 26.144531 26.140625zm122.242188 67.878906c-3.636719 8.730469-12.164063 14.414062-21.617188 14.414062-9.457031 0-17.984375-5.683593-21.621094-14.414062-4.921874-11.84375-6.851562-24.71875-5.617187-37.484375l8.753906-89.738281c12.164063 2.789062 24.804688 2.789062 36.96875 0l8.75 89.738281c1.234375 12.765625-.695312 25.640625-5.617187 37.484375zm140.054687-75.925781c3.617188 8.742187 1.609375 18.800781-5.078125 25.492187-6.691406 6.6875-16.75 8.695313-25.496094 5.078125-11.851562-4.890625-22.320312-12.625-30.46875-22.523437l-57.289062-69.667969c10.566406-6.640625 19.5-15.578125 26.144531-26.140625l69.667969 57.285156c9.898438 8.152344 17.632812 18.621094 22.519531 30.476563zm45.351563-109.480469c-9.507813 3.933594-19.695313 5.96875-29.984375 5.980469-2.554688 0-5.070313-.121094-7.5-.363281l-89.738281-8.753907c2.796874-12.164062 2.796874-24.804687 0-36.96875l89.738281-8.753906c12.765625-1.234375 25.640625.695313 37.484375 5.621094 8.730468 3.632812 14.417968 12.164062 14.417968 21.617187 0 9.457032-5.6875 17.984375-14.417968 21.621094zm0 0" fill="#083863"/></svg>