<svg height="486pt" viewBox="0 0 486 486" width="486pt" xmlns="http://www.w3.org/2000/svg"><g fill="#b1d56e"><path d="m476.917969 243-59.128907 49.769531c-8.5 5.21875-20.792968 8.050781-33.902343 8.609375-15.238281-16.617187-37.039063-30.207031-54.269531-30.308594 5.898437-18.304687 5.878906-38.003906-.050782-56.300781h.011719c17.148437.101563 38.988281-13.460937 54.308594-30.140625 13.0625.5625 25.269531 3.390625 33.671875 8.601563zm0 0"/><path d="m408.398438 77.558594-6.632813 77.011718c-2.316406 9.699219-9.007813 20.398438-17.878906 30.058594-22.519531-.96875-47.539063 4.832032-59.800781 16.949219-8.773438-17.117187-22.722657-31.035156-39.859376-39.777344l.011719-.011719c12.199219-12.058593 18.058594-37.089843 17.097657-59.71875 9.621093-8.832031 20.269531-15.460937 29.890624-17.71875zm0 0"/><path d="m401.605469 331.269531 6.792969 77.171875-77.011719-6.632812c-9.699219-2.320313-20.398438-9.007813-30.058594-17.878906.96875-22.519532-4.832031-47.539063-16.949219-59.800782 17.117188-8.773437 31.039063-22.722656 39.777344-39.859375l.011719.011719c12.058593 12.199219 37.089843 18.058594 59.71875 17.097656 8.832031 9.621094 15.460937 20.269532 17.71875 29.890625zm0 0"/></g><path d="m383.886719 301.378906c-22.628907.960938-47.660157-4.898437-59.71875-17.097656l-.011719-.011719c2.167969-4.25 3.992188-8.664062 5.460938-13.199219 17.230468.101563 39.03125 13.691407 54.269531 30.308594zm0 0" fill="#3bb54a"/><path d="m324.085938 201.578125c12.261718-12.117187 37.28125-17.917969 59.800781-16.949219-15.320313 16.679688-37.160157 30.242188-54.308594 30.140625h-.011719c-1.476562-4.53125-3.308594-8.941406-5.480468-13.191406zm0 0" fill="#3bb54a"/><path d="m271.027344 156.339844c4.535156 1.46875 8.949218 3.296875 13.199218 5.460937 39.914063 20.332031 59.152344 66.640625 45.390626 109.269531-1.46875 4.535157-3.292969 8.949219-5.460938 13.199219-20.332031 39.914063-66.640625 59.152344-109.269531 45.390625-4.535157-1.46875-8.949219-3.296875-13.199219-5.460937-39.914062-20.332031-59.152344-66.640625-45.390625-109.269531 1.46875-4.535157 3.296875-8.949219 5.460937-13.199219 20.332032-39.914063 66.640626-59.152344 109.269532-45.390625zm22.078125 86.660156c0-27.695312-22.449219-50.148438-50.148438-50.148438-27.695312 0-50.148437 22.453126-50.148437 50.148438s22.453125 50.148438 50.148437 50.148438c27.699219.003906 50.152344-22.449219 50.148438-50.148438zm0 0" fill="#f4b844"/><path d="m301.335938 102.070312c.960937 22.628907-4.898438 47.660157-17.097657 59.71875l-.011719.011719c-4.25-2.164062-8.664062-3.992187-13.199218-5.460937.101562-17.230469 13.691406-39.03125 30.308594-54.269532zm0 0" fill="#3bb54a"/><path d="m284.378906 324.128906c12.117188 12.261719 17.917969 37.28125 16.949219 59.800782-16.679687-15.320313-30.242187-37.160157-30.140625-54.308594v-.011719c4.53125-1.476563 8.945312-3.308594 13.191406-5.480469zm0 0" fill="#3bb54a"/><path d="m292.726562 68.171875c5.222657 8.5 8.050782 20.789063 8.609376 33.898437-16.617188 15.238282-30.207032 37.039063-30.308594 54.269532-18.304688-5.898438-38.003906-5.878906-56.300782.050781v-.011719c.101563-17.148437-13.460937-38.988281-30.140624-54.308594.5625-13.058593 3.390624-25.269531 8.601562-33.671874l49.769531-59.359376zm0 0" fill="#b1d56e"/><path d="m301.328125 383.929688c-.5625 13.058593-3.390625 25.269531-8.601563 33.671874l-49.769531 59.359376-49.769531-59.132813c-5.21875-8.5-8.050781-20.789063-8.609375-33.898437 16.621094-15.238282 30.210937-37.039063 30.308594-54.269532 18.308593 5.898438 38.003906 5.878906 56.300781-.050781v.011719c-.101562 17.148437 13.460938 38.988281 30.140625 54.308594zm0 0" fill="#b1d56e"/><path d="m293.105469 243c0 27.695312-22.449219 50.148438-50.148438 50.148438-27.695312 0-50.148437-22.453126-50.148437-50.148438s22.453125-50.148438 50.148437-50.148438c27.699219 0 50.148438 22.453126 50.148438 50.148438zm0 0" fill="#d4e1f4"/><path d="m214.726562 156.378906v.011719c-4.53125 1.476563-8.941406 3.308594-13.1875 5.480469-12.121093-12.261719-17.921874-37.28125-16.953124-59.800782 16.679687 15.320313 30.242187 37.160157 30.140624 54.308594zm0 0" fill="#3bb54a"/><path d="m201.6875 324.199219c4.25 2.164062 8.664062 3.992187 13.199219 5.460937-.097657 17.230469-13.6875 39.03125-30.308594 54.269532-.960937-22.628907 4.898437-47.660157 17.097656-59.71875zm0 0" fill="#3bb54a"/><path d="m201.6875 324.199219-.011719.011719c-12.199219 12.058593-18.058593 37.089843-17.097656 59.71875-9.621094 8.832031-20.269531 15.460937-29.890625 17.71875l-77.171875 6.792968 6.632813-77.011718c2.320312-9.699219 9.007812-20.398438 17.878906-30.058594 22.519531.96875 47.539062-4.832032 59.800781-16.949219 8.773437 17.117187 22.722656 31.035156 39.859375 39.777344zm0 0" fill="#b1d56e"/><path d="m184.585938 102.070312c-.96875 22.519532 4.832031 47.539063 16.953124 59.800782-17.121093 8.773437-31.039062 22.722656-39.78125 39.859375l-.011718-.011719c-12.058594-12.199219-37.089844-18.058594-59.71875-17.097656-8.828125-9.621094-15.460938-20.269532-17.71875-29.890625l-6.792969-77.171875 77.011719 6.632812c9.699218 2.320313 20.398437 9.007813 30.058594 17.878906zm0 0" fill="#b1d56e"/><path d="m161.746094 201.71875.011718.011719c-2.164062 4.25-3.992187 8.664062-5.460937 13.199219-17.230469-.101563-39.03125-13.691407-54.269531-30.308594 22.628906-.960938 47.660156 4.898437 59.71875 17.097656zm0 0" fill="#3bb54a"/><path d="m156.347656 271.230469c1.476563 4.53125 3.3125 8.941406 5.480469 13.191406-12.261719 12.117187-37.28125 17.917969-59.800781 16.949219 15.320312-16.679688 37.160156-30.242188 54.308594-30.140625zm0 0" fill="#3bb54a"/><path d="m156.347656 271.230469h-.011718c-17.148438-.101563-38.988282 13.460937-54.308594 30.140625-13.058594-.5625-25.269532-3.390625-33.671875-8.601563l-59.359375-49.769531 59.132812-49.769531c8.5-5.21875 20.789063-8.050781 33.898438-8.609375 15.238281 16.617187 37.039062 30.207031 54.269531 30.308594-5.898437 18.304687-5.878906 38.003906.050781 56.300781zm0 0" fill="#b1d56e"/><path d="m482.699219 236.101562-59.359375-49.773437c-.328125-.273437-.675782-.523437-1.039063-.75-6.613281-3.898437-13.863281-6.601563-21.414062-7.984375 4.40625-6.363281 7.667969-13.449219 9.632812-20.933594.105469-.433594.175781-.878906.214844-1.320312l6.628906-77.011719c.230469-2.648437-.726562-5.261719-2.609375-7.140625-1.878906-1.878906-4.496094-2.828125-7.144531-2.597656l-77.171875 6.792968c-.425781.035157-.851562.101563-1.269531.199219-7.425781 1.941407-14.457031 5.164063-20.777344 9.519531-1.382813-7.628906-4.089844-14.953124-8-21.648437-.234375-.378906-.496094-.742187-.78125-1.085937l-49.769531-59.148438c-1.710938-2.035156-4.226563-3.2109375-6.882813-3.21875h-.007812c-2.664063.0078125-5.183594 1.195312-6.886719 3.238281l-49.773438 59.371094c-.273437.328125-.523437.675781-.75 1.042969-3.898437 6.613281-6.601562 13.863281-7.980468 21.417968-6.363282-4.410156-13.449219-7.667968-20.9375-9.632812-.433594-.105469-.875-.175781-1.320313-.214844l-77.007812-6.628906c-2.648438-.226562-5.265625.726562-7.140625 2.609375-1.878906 1.882813-2.828125 4.496094-2.59375 7.144531l6.789062 77.171875c.035156.425781.101563.851563.199219 1.269531 1.945313 7.425782 5.164063 14.457032 9.519531 20.777344-7.628906 1.382813-14.953125 4.089844-21.648437 8-.378907.234375-.742188.496094-1.082031.78125l-59.132813 49.769532c-2.03125 1.714843-3.20703125 4.238281-3.203125 6.894531.00390625 2.660156 1.179688 5.179687 3.21875 6.890625l59.359375 49.769531c.328125.273437.671875.527344 1.039063.75 6.613281 3.898437 13.859374 6.597656 21.414062 7.976563-4.410156 6.363281-7.671875 13.449218-9.636719 20.9375-.105469.433593-.175781.875-.214843 1.320312l-6.628907 77.007812c-.214843 2.515626.628907 5 2.335938 6.859376 1.703125 1.855468 4.109375 2.914062 6.628906 2.914062.265625 0 .527344-.011719.789063-.035156l77.171874-6.789063c.425782-.035156.851563-.101562 1.269532-.199219 7.425781-1.945312 14.457031-5.167968 20.777344-9.519531 1.382812 7.625 4.089843 14.953125 8 21.644531.234374.382813.496093.746094.78125 1.085938l49.773437 59.152344c1.703125 2.035156 4.222656 3.214844 6.878906 3.222656h.007813c2.664062-.007812 5.183594-1.195312 6.886718-3.238281l49.773438-59.371094c.273438-.328125.523438-.675781.75-1.042969 3.898438-6.613281 6.601562-13.863281 7.984375-21.417968 6.363281 4.410156 13.449219 7.667968 20.933594 9.632812.4375.105469.878906.175781 1.324219.214844l77.007812 6.628906c.257812.023438.515625.035156.773438.035156 2.523437 0 4.929687-1.0625 6.636718-2.921875 1.703125-1.863281 2.546875-4.355469 2.328125-6.867187l-6.789062-77.171875c-.039063-.425781-.105469-.851563-.203125-1.269531-1.941406-7.425782-5.164063-14.457032-9.519532-20.777344 7.628907-1.382813 14.957032-4.089844 21.648438-8 .382812-.234375.742188-.496094 1.085938-.78125l59.128906-49.769532c2.035156-1.714843 3.207031-4.238281 3.203125-6.894531 0-2.660156-1.179688-5.179687-3.214844-6.890625zm-200.925781 99.148438c3.609374 5.535156 6.472656 13.046875 8.316406 21.539062-4.707032-7.339843-7.96875-14.691406-9.269532-21.144531.316407-.128906.636719-.261719.953126-.394531zm-1.488282-19.136719c-36.011718 18.414063-80.066406 7.898438-103.878906-24.792969-23.8125-32.691406-20.308594-77.847656 8.257812-106.476562 28.570313-28.628906 73.71875-32.226562 106.457032-8.484375 32.742187 23.746094 43.351562 67.777344 25.015625 103.824219-7.867188 15.453125-20.417969 28.027344-35.851563 35.929687zm-76.058594 19.167969c.320313.136719.636719.269531.957032.402344-1.363282 6.46875-4.652344 13.808594-9.355469 21.121094 1.859375-8.527344 4.753906-16.035157 8.398437-21.523438zm-53.949218-130.054688c-6.46875-1.363281-13.804688-4.652343-21.117188-9.355468 8.519532 1.863281 16.03125 4.753906 21.515625 8.402344-.136719.316406-.269531.632812-.398437.953124zm.035156 75.636719c.132812.316407.261719.636719.398438.953125-5.53125 3.609375-13.046876 6.472656-21.539063 8.320313 7.335937-4.710938 14.683594-7.976563 21.140625-9.273438zm53.828125-130.113281c-3.609375-5.535156-6.472656-13.046875-8.316406-21.539062 4.707031 7.339843 7.972656 14.691406 9.269531 21.144531-.316406.128906-.636719.261719-.953125.394531zm77.546875-.03125c-.320312-.136719-.636719-.269531-.957031-.402344 1.363281-6.46875 4.65625-13.808594 9.359375-21.121094-1.863282 8.527344-4.757813 16.035157-8.402344 21.523438zm53.949219 130.054688c6.46875 1.363281 13.808593 4.652343 21.121093 9.355468-8.523437-1.859375-16.03125-4.753906-21.515624-8.398437.132812-.320313.265624-.636719.394531-.957031zm-.035157-75.636719c-.128906-.316407-.261718-.636719-.394531-.953125 5.535157-3.609375 13.050781-6.472656 21.542969-8.320313-7.339844 4.710938-14.691406 7.976563-21.148438 9.273438zm-2.898437-111.882813 65.804687-5.789062-5.648437 65.621094c-1.769531 6.769531-6.3125 14.621093-12.953125 22.449218-16.726562-.085937-37.910156 3.28125-53.207031 12.710938-7.609375-11.554688-17.5-21.433594-29.0625-29.035156 9.46875-15.199219 12.867187-36.371094 12.789062-53.152344 7.71875-6.515625 15.660157-11.097656 22.277344-12.804688zm-89.734375-70.222656 42.410156 50.386719c3.535156 6.035156 5.871094 14.800781 6.714844 25.035156-11.882812 11.753906-24.46875 29.101563-28.632812 46.601563-13.550782-2.835938-27.539063-2.828126-41.085938.015624-4.054688-17.4375-16.625-34.800781-28.542969-46.609374.839844-10.175782 3.171875-18.855469 6.691407-24.800782zm-89.925781 70.070312c6.769531 1.769532 14.621093 6.3125 22.453125 12.953126-.089844 16.726562 3.277344 37.910156 12.707031 53.207031-11.554687 7.609375-21.433594 17.5-29.035156 29.0625-15.199219-9.472657-36.371094-12.867188-53.152344-12.789063-6.515625-7.71875-11.101563-15.660156-12.800781-22.277344l-5.789063-65.808593zm-130.054688 149.886719 50.386719-42.410156c6.035156-3.535156 14.800781-5.871094 25.035156-6.714844 11.753906 11.882813 29.101563 24.472657 46.601563 28.632813-2.835938 13.550781-2.828125 27.539062.015625 41.082031-17.4375 4.058594-34.800782 16.628906-46.609375 28.546875-10.171875-.839844-18.855469-3.171875-24.800781-6.691406zm130.222657 149.757813-65.808594 5.789062 5.648437-65.621094c1.773438-6.769531 6.316407-14.621093 12.957031-22.453124.210938 0 .414063.007812.628907.007812 16.625 0 37.46875-3.402344 52.578125-12.71875 7.609375 11.558594 17.5 21.4375 29.0625 29.039062-9.472656 15.199219-12.867188 36.371094-12.789063 53.152344-7.71875 6.515625-15.660156 11.097656-22.277343 12.804688zm89.734374 70.222656-42.410156-50.386719c-3.535156-6.035156-5.871094-14.800781-6.714844-25.035156 11.886719-11.753906 24.472657-29.101563 28.632813-46.601563 13.550781 2.835938 27.539063 2.828126 41.085937-.015624 4.054688 17.4375 16.625 34.800781 28.542969 46.609374-.839843 10.175782-3.171875 18.855469-6.691406 24.800782zm89.929688-70.0625c-6.773438-1.773438-14.625-6.3125-22.453125-12.957031.085937-16.726563-3.28125-37.90625-12.710937-53.207031 11.554687-7.609376 21.433593-17.496094 29.035156-29.058594 15.027344 9.367187 35.902344 12.792968 52.59375 12.792968.1875 0 .371094 0 .558594-.007812 6.515624 7.71875 11.097656 15.660156 12.804687 22.277344l5.789063 65.808594zm79.664062-107.484375c-6.035156 3.535156-14.796874 5.871094-25.035156 6.714844-11.753906-11.882813-29.097656-24.472657-46.597656-28.632813 2.832031-13.550781 2.824219-27.539062-.019531-41.082031 17.441406-4.058594 34.800781-16.628906 46.609375-28.546875 10.175781.839844 18.855468 3.171875 24.800781 6.691406l50.625 42.445313zm0 0" fill="#083863"/><path d="m242.957031 183.851562c-32.667969 0-59.148437 26.480469-59.148437 59.148438s26.480468 59.148438 59.148437 59.148438 59.148438-26.480469 59.148438-59.148438c-.035157-32.652344-26.496094-59.113281-59.148438-59.148438zm0 100.296876c-22.726562 0-41.148437-18.421876-41.148437-41.148438s18.421875-41.148438 41.148437-41.148438c22.726563 0 41.148438 18.421876 41.148438 41.148438-.027344 22.714844-18.433594 41.121094-41.148438 41.148438zm0 0" fill="#083863"/></svg>