<svg height="478pt" viewBox="-105 0 478 478.20341" width="478pt" xmlns="http://www.w3.org/2000/svg"><path d="m230.078125 76.449219c6.441406 15.621093.289063 33.679687-13.847656 44.980469 14.097656 11.339843 20.1875 29.421874 13.699219 45.019531-6.492188 15.601562-23.609376 24.019531-41.589844 22.011719 1.949218 17.988281-6.53125 35.078124-22.140625 41.519531-8.820313 3.53125-18.6875 3.386719-27.398438-.398438-6.894531-2.9375-12.941406-7.558593-17.582031-13.441406-11.339844 14.089844-29.429688 20.179687-45.019531 13.699219-15.589844-6.480469-24.019531-23.609375-22.011719-41.589844-7.445312.855469-14.988281-.179688-21.929688-3.007812-8.828124-3.503907-15.882812-10.398438-19.589843-19.140626-6.4375-15.621093-.289063-33.679687 13.851562-44.980468-14.101562-11.339844-20.199219-29.421875-13.710937-45.019532 6.492187-15.601562 23.609375-24.019531 41.601562-22.011718-1.960937-17.988282 6.527344-35.078125 22.140625-41.519532 15.609375-6.441406 33.679688-.289062 44.976563 13.851563 11.339844-14.101563 29.421875-20.191406 45.023437-13.703125 15.597657 6.492188 24.019531 23.613281 22.007813 41.589844 17.980468-1.949219 35.082031 6.53125 41.519531 22.140625zm-72.300781 60.429687c8.410156-20.195312-1.148438-43.386718-21.347656-51.792968-20.199219-8.40625-43.386719 1.15625-51.792969 21.355468-8.402344 20.199219 1.160156 43.386719 21.363281 51.789063 20.195312 8.40625 43.378906-1.152344 51.777344-21.351563zm0 0" fill="#fedb41"/><path d="m223.230469 253.28125-.351563 68.21875c-.035156 20.738281-15.175781 38.359375-35.671875 41.515625-20.496093 3.160156-40.238281-9.085937-46.515625-28.851563-6.273437-19.765624 2.785156-41.160156 21.347656-50.402343zm0 0" fill="#3bb54a"/><path d="m136.429688 85.089844c20.195312 8.40625 29.753906 31.59375 21.347656 51.789062-8.40625 20.195313-31.59375 29.753906-51.789063 21.347656-20.195312-8.40625-29.753906-31.589843-21.347656-51.785156 8.398437-20.203125 31.589844-29.761718 51.789063-21.351562zm0 0" fill="#3bb54a"/><path d="m139.949219 332.851562c5.816406 20.125-4.046875 41.464844-23.140625 50.078126-19.097656 8.613281-41.621094 1.882812-52.859375-15.800782l-36.480469-57.636718 68.039062-6.632813c18.902344-1.878906 36.710938 9.175781 43.410157 26.949219.007812.007812.011719.019531.011719.03125.339843 1.011718.679687 2.011718 1.019531 3.011718zm0 0" fill="#b1d56e"/><g fill="#083863"><path d="m3.425781 169.914062c4.714844 11.195313 13.714844 20.039063 24.992188 24.558594 4.996093 2.066406 10.28125 3.355469 15.667969 3.828125 1.542968 18.371094 12.089843 34.035157 28.273437 40.773438 12.8125 5.324219 27.101563 4.199219 39.507813-2.382813.9375 20.15625 3.515624 40.203125 7.714843 59.9375-7.910156-3.304687-16.515625-4.585937-25.042969-3.722656l-68.039062 6.632812c-3.457031.335938-6.488281 2.441407-8.015625 5.558594-1.523437 3.121094-1.320313 6.808594.535156 9.742188l36.492188 57.660156c9.796875 15.371094 26.90625 24.519531 45.132812 24.128906 18.226563-.390625 34.925781-10.261718 44.058594-26.039062 9.5625 20.027344 21.703125 38.714844 36.113281 55.589844 21.625 24.910156 47.320313 42.722656 74.304688 51.511718 3.402344 1.132813 7.152344.355469 9.824218-2.039062 2.671876-2.390625 3.859376-6.03125 3.109376-9.539063-.75-3.507812-3.320313-6.34375-6.738282-7.4375-23.535156-7.667969-46.148437-23.4375-65.398437-45.609375-10.894531-12.710937-20.351563-26.585937-28.203125-41.375 4.214844 1.109375 8.558594 1.671875 12.914062 1.675782 28.664063-.058594 51.953125-23.148438 52.25-51.8125l.351563-68.21875c.015625-3.472657-1.769531-6.703126-4.714844-8.539063-2.949219-1.832031-6.636719-2.007813-9.742187-.460937l-61.15625 30.453124c-7.464844 3.667969-13.9375 9.082032-18.871094 15.785157-3.625-17.519531-5.90625-35.289063-6.824219-53.152344 1 .5 2.015625.964844 3.042969 1.398437 5.78125 2.429688 11.984375 3.691407 18.253906 3.714844 5.761719.007813 11.464844-1.113281 16.792969-3.300781 16.199219-6.679687 26.792969-22.300781 28.402343-40.660156 18.359376-1.5625 33.753907-12.105469 40.753907-28.28125 7-16.179688 3.175781-34.71875-8.671875-48.835938 11.894531-14.085937 15.507812-32.617187 8.828125-48.820312-6.679688-16.199219-22.300781-26.785157-40.660157-28.398438-1.546874-18.371093-12.09375-34.027343-28.273437-40.753906s-34.71875-3.179687-48.839844 8.667969c-14.085937-11.894532-32.613281-15.511719-48.816406-8.828125-16.203125 6.679687-26.800781 22.300781-28.398437 40.660156-18.367188 1.550781-34.027344 12.09375-40.761719 28.273437-6.734375 16.175782-3.171875 34.714844 8.679687 48.835938-11.894531 14.089844-15.507812 32.617188-8.828125 48.820312zm106.542969 204.984376-.101562.035156c-14.027344 4.90625-29.585938-.550782-37.472657-13.148438l-27.792969-43.914062 51.910157-5.058594c14.335937-1.410156 27.84375 6.9375 32.996093 20.386719l.882813 2.601562c4.75 16.398438-4.25 33.628907-20.421875 39.097657zm56.335938-82.183594 46.746093-23.238282-.21875 51.953126c.015625 14.863281-10.269531 27.75-24.761719 31.035156-.039062.007812-.066406.015625-.101562.027344-2.46875.574218-4.996094.863281-7.53125.867187-14.699219 0-27.269531-10.378906-31.269531-24.675781-3-14.59375 3.757812-29.378906 17.140625-35.972656zm-133.519532-179.386719c-11.039062-8.878906-15.355468-22.300781-10.742187-33.386719 4.609375-11.082031 17.175781-17.484375 31.257812-15.914062 3.015625.335937 6.019531-.714844 8.167969-2.855469 2.152344-2.144531 3.210938-5.148437 2.882812-8.164063-1.535156-14.074218 4.898438-26.609374 16.007813-31.191406 11.113281-4.585937 24.507813-.378906 33.359375 10.683594 1.910156 2.332031 4.785156 3.660156 7.796875 3.601562h.015625c3.007812.058594 5.878906-1.257812 7.792969-3.574218 8.875-11.035156 22.292969-15.269532 33.390625-10.652344 11.097656 4.621094 17.484375 17.199219 15.910156 31.285156-.339844 3.019532.707031 6.027344 2.847656 8.183594 2.144532 2.15625 5.148438 3.21875 8.167969 2.898438 14.078125-1.53125 26.617187 4.914062 31.199219 16.015624 4.585937 11.101563.222656 24.511719-10.847656 33.359376-2.371094 1.894531-3.753907 4.761718-3.757813 7.796874-.003906 3.035157 1.371094 5.90625 3.734375 7.808594 11.035156 8.875 15.351562 22.292969 10.734375 33.386719s-17.183594 17.492187-31.253906 15.914063c-3.015625-.339844-6.019531.710937-8.167969 2.855468-2.148438 2.140625-3.210938 5.140625-2.882812 8.160156 1.523437 14.078126-4.910157 26.617188-16.007813 31.199219-6.371094 2.503907-13.476563 2.367188-19.742187-.386719-5.34375-2.296874-10.027344-5.894531-13.617188-10.46875-1.890625-2.378906-4.757812-3.773437-7.796875-3.78125h-.015625c-3.03125.007813-5.894531 1.386719-7.789062 3.75-8.878907 11.03125-22.300782 15.355469-33.386719 10.746094-11.085938-4.605468-17.488281-17.167968-15.914063-31.242187.335938-3.015625-.71875-6.019531-2.859375-8.167969-2.144531-2.148438-5.144531-3.207031-8.160156-2.878906-5.777344.671875-11.625-.117188-17.015625-2.300782-6.367188-2.496093-11.472656-7.433593-14.179688-13.714843-4.578124-11.109375-.21875-24.511719 10.847657-33.359375 2.367187-1.894532 3.75-4.757813 3.753906-7.792969.003906-3.03125-1.367187-5.902344-3.730469-7.804687zm0 0"/><path d="m102.152344 167.460938c21.855468 9.09375 47.089844 1.484374 60.269531-18.175782 13.183594-19.660156 10.640625-45.894531-6.070313-62.65625-16.710937-16.765625-42.9375-19.390625-62.636718-6.269531-19.703125 13.121094-27.390625 38.332031-18.367188 60.214844 5.007813 12.167969 14.652344 21.84375 26.804688 26.886719zm-8.285156-57.175782c6.285156-15.097656 23.617187-22.246094 38.714843-15.960937 15.097657 6.28125 22.246094 23.613281 15.964844 38.710937-6.285156 15.097656-23.617187 22.246094-38.714844 15.964844-15.097656-6.285156-22.246093-23.617188-15.964843-38.714844zm0 0"/></g></svg>