<svg height="494pt" viewBox="0 -30 494.83578 494" width="494pt" xmlns="http://www.w3.org/2000/svg"><path d="m456.410156 286.8125 28.429688 86.089844h-194.648438l6.796875-16.421875v-.078125h78.53125l-22.96875-69.539063.140625-.050781zm0 0" fill="#87e680"/><path d="m429.839844 199.191406 40.898437 87.621094h-118.046875l-.140625.050781-14.449219-43.769531h18.859376l-16.371094-35.0625.121094-.058594 4.058593-8.78125zm0 0" fill="#3bb54a"/><path d="m388.789062 110.03125 55.652344 89.160156h-107.722656l-.207031.101563-2.542969-5.449219.152344-.070312zm0 0" fill="#87e680"/><path d="m371.320312 372.902344h32.390626v51.828125h-32.390626zm0 0" fill="#4b5d63"/><path d="m352.550781 286.863281 22.96875 69.539063h-256.199219l28.808594-69.589844 18.101563-43.71875h171.871093zm0 0" fill="#3bb54a"/><path d="m160.75 193.582031 30.410156-65.808593h111.960938l30.847656 66.070312 2.542969 5.449219 4.078125 8.738281 16.371094 35.0625h-219.082032l16.050782-34.742188 4.199218-9.078124zm0 0" fill="#b1d56e"/><path d="m249.101562 10.433594 73.25 117.339844h-149.863281zm0 0" fill="#3bb54a"/><path d="m226.109375 356.402344h42.621094v68.230468h-42.621094zm0 0" fill="#4b5d63"/><path d="m199.238281 356.503906 5.410157 16.398438h-194.648438l35.640625-86.089844h102.488281l-28.808594 69.589844h79.917969zm0 0" fill="#87e680"/><path d="m166.230469 243.09375-18.101563 43.71875h-124.027344l40.476563-87.621094h85.070313l4.28125 9.160156-16.050782 34.742188zm0 0" fill="#3bb54a"/><path d="m160.75 193.582031-2.621094 5.691407-.179687-.082032h-107.550781l58.203124-89.160156zm0 0" fill="#87e680"/><path d="m91.128906 372.902344h32.390625v51.828125h-32.390625zm0 0" fill="#4b5d63"/><path d="m470.242188 296.582031h.5c3.402343.054688 6.59375-1.652343 8.4375-4.511719 1.84375-2.859374 2.078124-6.46875.625-9.542968l-34.292969-73.4375c3.417969-.355469 6.414062-2.449219 7.921875-5.542969 1.507812-3.089844 1.316406-6.742187-.511719-9.65625l-55.648437-89.15625c-1.808594-2.894531-4.96875-4.667969-8.378907-4.699219-3.414062-.035156-6.609375 1.671875-8.476562 4.53125l-44.949219 68.753906-16.648438-35.738281h3.523438c3.621094.042969 6.976562-1.894531 8.746094-5.054687 1.769531-3.160156 1.667968-7.035156-.261719-10.097656l-73.246094-117.316407c-1.808593-2.894531-4.972656-4.664062-8.386719-4.695312-3.410156-.03125-6.605468 1.679687-8.46875 4.542969l-76.605468 117.339843c-2.003906 3.050781-2.160156 6.957031-.410156 10.15625 1.753906 3.199219 5.128906 5.171875 8.777343 5.125h3.03125l-16.085937 34.914063-42.355469-67.804688c-1.816406-2.890625-4.976563-4.652344-8.390625-4.683594-3.414062-.027343-6.601562 1.6875-8.464844 4.546876l-58.199218 89.164062c-1.871094 2.863281-2.148438 6.484375-.738282 9.597656 1.414063 3.113282 4.316406 5.289063 7.703125 5.773438l-33.96875 73.527344c-1.429687 3.058593-1.183593 6.636718.652344 9.46875 1.851563 2.84375 5.035156 4.542968 8.429687 4.496093h6.574219l-29.914062 72.378907c-1.277344 3.050781-.929688 6.542968.925781 9.28125 1.867188 2.75 4.988281 4.378906 8.3125 4.339843h71.417969v42.148438c-.058594 2.609375.941406 5.125 2.769531 6.984375 1.832031 1.855468 4.335938 2.890625 6.941406 2.867187h32.390625c2.625.03125 5.15625-.996093 7.015625-2.847656 1.863282-1.851563 2.902344-4.375 2.882813-7.003906v-42.148438h71.230469c3.1875.0625 6.203124-1.421875 8.101562-3.980469 1.878906-2.535156 2.398438-5.832031 1.394531-8.820312l-1.113281-3.203125h3.386719v58.050781c-.066407 2.613282.925781 5.144532 2.75 7.019532 1.824219 1.871093 4.328125 2.929687 6.941406 2.929687h42.621094c2.613281 0 5.117187-1.058594 6.941406-2.929687 1.824219-1.875 2.816406-4.40625 2.746094-7.019532v-58.046875h3.640625l-1.109375 2.585938c-1.277344 3.015625-.925781 6.476562.925781 9.175781 1.878906 2.726562 5.007812 4.320312 8.316406 4.238281h71.226563v42.148438c-.015625 2.628906 1.023437 5.152343 2.886719 7.003906 1.859374 1.851563 4.390624 2.878906 7.015624 2.847656h32.390626c2.605468.023438 5.109374-1.011719 6.941406-2.867187 1.828125-1.859375 2.828125-4.375 2.765625-6.984375v-42.148438h71.421875c3.183594.058594 6.203125-1.421875 8.101562-3.980469 1.878906-2.617187 2.394532-5.972656 1.390625-9.03125zm-110.472657-20-7.835937-23h5.027344c3.453124-.097656 6.625-1.929687 8.433593-4.875 1.835938-2.855469 2.074219-6.457031.625-9.527343l-13.851562-29.597657h71.300781l31.566406 67zm-225.488281 70 38.632812-93h157.957032l30.816406 93zm254.320312-217.578125 37.808594 60.578125h-77.355468zm-139.691406-100.179687 55.410156 88.757812h-113.359374zm47.84375 108.757812 44.5 96h-187.734375l44.039063-96zm-188.34375-8.574219 37.808594 60.574219h-77.347656zm-37.433594 80.574219h71.550782l-13.726563 29.511719c-1.429687 3.148438-1.183593 6.800781.65625 9.730469 1.820313 2.910156 4.992188 4.699219 8.421875 4.757812h13.386719l-9.820313 23h-101.710937zm-18.65625 87h80.84375l-23.085937 55.878907c-1.273437 3.050781-.925781 6.542968.925781 9.28125.222656.332031.464844.839843.722656.839843h-86.765624zm61.097657 118h-12v-32h12zm145 0h-22v-48h22zm135 0h-12v-32h12zm-10.316407-52c.175782 0 .359376-.253906.523438-.480469 1.878906-2.617187 2.398438-5.972656 1.390625-9.03125l-18.644531-56.488281h82.808594l21.824218 66zm0 0" fill="#083863"/></svg>