<svg height="503pt" viewBox="0 -54 503.83989 503" width="503pt" xmlns="http://www.w3.org/2000/svg"><path d="m398.640625 287.71875h-49.101563l-22.609374-35.148438 7.941406-11.890624h21.457031l-11.75-14.539063 3.089844-4.621094h-6.828125l-12.871094-15.941406 31.941406-39.519531h-23.351562l-4.796875-6.828125.066406-.101563 33.722656-47.539062h-21.460937l54.550781-69.929688 50.917969 69.929688h-21.089844l38.269531 54.46875h-31.359375l44.820313 55.460937h-28.9375l42.578125 66.199219zm0 0" fill="#87e680"/><path d="m251.917969 325.429688h-121.867188l31.757813-47.539063 19.652344-29.421875 5.199218-7.789062h-41.710937l17.550781-21.710938 5.878906-7.277344 9.179688-11.371094 24.769531-30.652343h-42.25l9.523437-13.40625 1.859376-2.640625 38.089843-53.679688h-27.472656l69.839844-89.53125 65.191406 89.53125h-27.007813l41.660157 59.289063-4.851563 6.828125h9.648438l2.542968 3.609375h-40.152343l29.019531 35.910156 12.871094 15.941406h.011718l3.726563 4.621094 11.75 14.539063h-37.046875l7.648438 11.890624 22.609374 35.148438 24.25 37.710938zm0 0" fill="#3bb54a"/><path d="m105.199219 277.890625h-95.199219l44.21875-66.199219h-32.578125l44.820313-55.460937h-33l38.640624-54.46875h-21.460937l54.558594-69.941407 50.910156 69.941407h-21.089844l36.441407 51.859375-1.859376 2.640625-.042968-.03125h-27.628906l35.628906 44.089843-9.179688 11.371094h-10.570312l4.691406 7.277344-17.550781 21.710938h31.511719l5 7.789062-19.652344 29.421875zm0 0" fill="#87e680"/><path d="m469.582031 231.089844h10.617188c3.820312.101562 7.347656-2.035156 9.023437-5.472656 1.671875-3.433594 1.1875-7.527344-1.246094-10.476563l-31.65625-39.050781h10.417969c3.734375-.007813 7.15625-2.089844 8.875-5.40625 1.71875-3.226563 1.449219-7.152344-.695312-10.113282l-27.199219-38.480468h1.84375c3.796875-.113282 7.21875-2.308594 8.910156-5.710938 1.691406-3.398437 1.375-7.453125-.824218-10.550781l-50.929688-69.992187c-1.835938-2.546876-4.765625-4.082032-7.90625-4.144532-3.140625-.058594-6.125 1.359375-8.0625 3.832032l-54.550781 69.921874c-2.351563 3.109376-2.773438 7.265626-1.097657 10.785157 1.648438 3.492187 5.125 5.761719 8.988282 5.859375h2.105468l-14.398437 20.121094-22.449219-32.121094h7.761719c3.773437-.035156 7.210937-2.171875 8.914063-5.539063 1.699218-3.367187 1.382812-7.402343-.828126-10.460937l-65.191406-89.550782c-1.84375-2.539062-4.777344-4.0625-7.914062-4.117187-3.140625-.054687-6.121094 1.367187-8.054688 3.839844l-69.839844 89.527343c-2.351562 3.035157-2.785156 7.140626-1.113281 10.59375 1.671875 3.457032 5.160157 5.667969 8.996094 5.707032h8.113281l-18.691406 26.4375-17.230469-24.4375h1.839844c3.785156-.078125 7.214844-2.246094 8.910156-5.628906 1.695313-3.382813 1.378907-7.425782-.824219-10.503907l-50.910156-69.980469c-1.839844-2.546874-4.769531-4.078124-7.910156-4.136718s-6.125 1.363281-8.058594 3.835937l-54.5625 69.933594c-2.351562 3.078125-2.773437 7.210937-1.097656 10.703125 1.65625 3.472656 5.136719 5.710938 8.984375 5.777344h2.105469l-27.441406 38.519531c-2.164063 2.992187-2.445313 6.953125-.730469 10.222656 1.734375 3.289063 5.171875 5.320313 8.886719 5.257813h12.058593l-31.65625 39.242187c-2.421875 3.089844-2.902343 7.277344-1.242187 10.832031 1.632812 3.53125 5.128906 5.828126 9.019531 5.925782h13.875l-33.832031 50.445312c-2.046875 3.066406-2.242188 7.015625-.503906 10.269532 1.742187 3.253906 5.128906 5.285156 8.820312 5.285156h84.917969v36.929687c0 5.523438 4.480469 10 10 10 5.523437 0 10-4.476562 10-10v-36.929687h28.183593l-21.367187 31.886718c-2.046875 2.984376-2.242187 6.871094-.5 10.046876 1.765625 3.199218 5.164063 5.152343 8.816406 5.066406h111.867188v50.679687c0 5.523438 4.480469 10 10 10 5.523437 0 10-4.476562 10-10v-50.679687h111.871093c3.632813.066406 7.003907-1.867188 8.777344-5.039063 1.753906-3.117187 1.613282-6.953125-.367187-9.929687l-14.339844-22.03125h21.058594v36.761718c0 5.519532 4.480469 10 10 10 5.523437 0 10-4.480468 10-10v-36.761718h84.921875c3.6875-.074219 7.046875-2.136719 8.777344-5.394532 1.753906-3.320312 1.613281-7.316406-.367188-10.507812zm-149.695312-51h16.167969l-8.085938 10zm-142.328125 4.742187-3.832032-4.742187h7.664063zm-115.023438 32.511719c2.046875-3.011719 2.242188-6.917969.5-10.117188-1.757812-3.21875-5.152344-5.195312-8.816406-5.136718h-11.640625l31.660156-39.375c2.421875-3.0625 2.90625-7.230469 1.246094-10.765625-1.640625-3.515625-5.144531-5.789063-9.023437-5.859375h-13.640626l27.441407-38.613282c2.164062-2.976562 2.445312-6.921874.726562-10.175781-1.738281-3.277343-5.179687-5.292969-8.886719-5.210937h-.980468l33.796875-43.328125 31.542969 43.328125h-1.441407c-3.707031-.066406-7.132812 1.953125-8.875 5.226562-1.71875 3.257813-1.453125 7.207032.691407 10.203125l27.210937 38.570313h-12.117187c-3.863282.03125-7.367188 2.269531-9.023438 5.757812-1.65625 3.492188-1.171875 7.621094 1.246094 10.632813l30.550781 38.023437-1.105469 1.585938h-5.789062c-3.628906-.09375-7.011719 1.839844-8.777344 5.011718-1.765625 3.175782-1.621094 7.070313.371094 10.105469l.773437 1.144531-10.316406 12.746094c-.042969-1.785156-.5625-3.523437-1.5-5.039062-2.984375-4.691406-9.1875-6.117188-13.917969-3.199219l-9.523437 5.847656v-35.816406c0-5.523437-4.476563-10-10-10-5.519531 0-10 4.476563-10 10v10.058594l-1.132813-1.078125c-4.230468-3.496094-10.488281-2.933594-14.027344 1.257812-3.542968 4.191406-3.050781 10.453125 1.105469 14.039063l14.054688 11.933593v38.988282h-66.210938zm52.382813 50.746094v-15.8125l19.941406-12.351563c-.117187 1.8125.226563 3.625 1 5.269531 1.664063 3.53125 5.1875 5.816407 9.09375 5.898438h23.007813l-11.5 17zm147 47v-23.992188l26.886719-16.773437c3.085937-1.863281 4.933593-5.246094 4.828124-8.855469-.105468-3.605469-2.144531-6.875-5.335937-8.554688-3.195313-1.679687-7.042969-1.511718-10.078125.441407l-16.300781 10.167969v-50.898438c0-5.523438-4.476563-10-10-10-5.519531 0-10 4.476562-10 10v18.898438l-6.234375-5.253907c-4.222656-3.558593-10.53125-3.019531-14.089844 1.203125-3.5625 4.222656-3.023438 10.53125 1.203125 14.089844l19.121094 16.109375v53.417969h-93.160157l46.21875-69.027344c2.046876-2.960938 2.242188-6.828125.5-9.980469-1.773437-3.179687-5.175781-5.109375-8.816406-4.992187h-20.765625l44.214844-54.929688c2.417969-2.964844 2.898437-7.066406 1.230469-10.511718-1.667969-3.449219-5.183594-5.617188-9.011719-5.558594h-22.898437l38.273437-54.152344c2.167969-3.058594 2.449219-7.066406.734375-10.398438-1.714844-3.332031-5.140625-5.433593-8.886719-5.449218h-6.988281l49.082031-62.917969 45.8125 62.917969h-7.355469c-3.722656-.035156-7.148437 2.019531-8.875 5.316406-1.722656 3.296875-1.457031 7.285156.691407 10.320312l37.601562 53.699219-.332031.664063h-20.238281c-3.824219-.097656-7.351563 2.042968-9.023438 5.484375-1.675781 3.4375-1.1875 7.535156 1.246094 10.484375l41.886719 51.796875 6.347656-5.152344.003906-.007813-6.339844 5.316407 2.324219 3.078125h-16.113281c-3.625-.082032-7 1.839844-8.78125 5-1.75 3.117187-1.609375 6.949218.371094 9.929687l44.597656 69.070313zm147-37v-15.972656l19.835937-12.464844c2.242188-1.410156 3.832032-3.65625 4.417969-6.242188.582031-2.582031.117187-5.292968-1.296875-7.535156-1.382812-2.246094-3.605469-3.847656-6.171875-4.445312-2.570313-.601563-5.269531-.148438-7.503906 1.257812l-9.28125 5.855469v-35.8125c0-5.523438-4.476563-10-10-10-5.519531 0-10 4.476562-10 10v10.050781l-1.398438-1.066406c-2.726562-2.332032-6.496093-3.023438-9.875-1.808594-3.375 1.214844-5.84375 4.148438-6.457031 7.683594-.617188 3.535156.710938 7.128906 3.476562 9.414062l14.253907 11.933594v39.152344h-33.921875l-16.109375-25.027344 1.332031-1.972656h16.109375c3.882813-.09375 7.375-2.375 9.023437-5.890625 1.648438-3.515625 1.164063-7.660157-1.242187-10.703125l-7.253906-9.027344c1.1875-2.859375 1.054687-6.097656-.367188-8.851562-1.710937-3.3125-5.089843-5.429688-8.820312-5.527344h-2.046875l-4.796875-5.71875 26.867187-33.132813c2.421875-2.976562 2.90625-7.089843 1.238282-10.546875-1.664063-3.457031-5.179688-5.640625-9.019532-5.601562h-13.640625l27.4375-38.699219c2.160157-2.960937 2.445313-6.894531.726563-10.132813-1.746094-3.265624-5.183594-5.265624-8.882813-5.167968h-.976562l33.789062-43.320313 31.542969 43.320313h-1.4375c-3.699219-.113282-7.140625 1.882812-8.878906 5.148437-1.734375 3.269531-1.464844 7.238281.695312 10.242188l27.207032 38.609375h-12.113282c-3.851562-.007813-7.359375 2.203125-9.023437 5.675781-1.660157 3.402344-1.171875 7.460937 1.246093 10.371094l31.660157 38.953125h-8c-3.691407.085937-7.050781 2.160156-8.777344 5.425781-1.753906 3.3125-1.613281 7.308594.367187 10.492187l32.667969 51.082032zm0 0" fill="#083863"/></svg>