<svg height="467pt" viewBox="0 -58 467.30061 467" width="467pt" xmlns="http://www.w3.org/2000/svg"><path d="m374.75 292.972656h-58.550781l-12-41.101562v-.007813l70.550781-241.710937 82.550781 282.820312zm0 0" fill="#87e680"/><path d="m163.101562 251.851562 70.550782-241.699218 70.546875 241.710937v.007813l12 41.101562h-165.097657zm0 0" fill="#3bb54a"/><path d="m92.550781 292.972656h-82.550781l82.550781-282.820312 70.550781 241.699218-12 41.121094zm0 0" fill="#87e680"/><path d="m384.351562 7.351562c-1.246093-4.269531-5.15625-7.203124-9.601562-7.203124s-8.355469 2.933593-9.597656 7.203124l-60.953125 208.820313-60.949219-208.820313c-1.242188-4.269531-5.15625-7.203124-9.597656-7.203124-4.445313 0-8.355469 2.933593-9.601563 7.203124l-60.949219 208.816407-60.949218-208.816407c-1.246094-4.269531-5.15625-7.203124-9.601563-7.203124-4.445312 0-8.355469 2.933593-9.601562 7.203124l-82.546875 282.820313c-.882813 3.023437-.292969 6.289063 1.59375 8.8125 1.886718 2.527344 4.851562 4.015625 8.003906 4.027344h72.652344v38.859375c0 5.523437 4.476562 10 10 10 5.519531 0 10-4.476563 10-10v-38.859375h121v38.859375c0 5.523437 4.476562 10 10 10 5.519531 0 10-4.476563 10-10v-38.859375h121v38.859375c0 5.523437 4.476562 10 10 10 5.519531 0 10-4.476563 10-10v-38.859375h72.648437c3.152344-.007813 6.113281-1.496094 8-4.019531 1.886719-2.523438 2.480469-5.785157 1.601563-8.8125zm-291.800781 38.511719 60.132813 206.023438-9.082032 31.125h-40.949218v-16.8125l20.839844-13.03125c4.519531-2.992188 5.835937-9.03125 2.96875-13.628907-2.863282-4.597656-8.867188-6.078124-13.539063-3.339843l-10.269531 6.429687v-37.828125c0-5.519531-4.480469-10-10-10-5.523438 0-10 4.480469-10 10v11.238281l-1.988282-1.632812c-2.714843-2.425781-6.535156-3.179688-9.972656-1.972656-3.433594 1.207031-5.941406 4.183594-6.546875 7.773437-.605469 3.59375.792969 7.226563 3.644531 9.492188l14.863282 12.492187v40.820313h-59.316406zm151.101563 237.148438v-16.8125l20.890625-13.03125c3.0625-1.878907 4.882812-5.253907 4.769531-8.84375-.113281-3.589844-2.144531-6.839844-5.316406-8.519531-3.175782-1.679688-7.007813-1.53125-10.039063.394531l-10.304687 6.429687v-37.828125c0-5.519531-4.480469-10-10-10-5.523438 0-10 4.480469-10 10v11.238281l-1.9375-1.632812c-4.226563-3.507812-10.492188-2.949219-14.03125 1.25-3.539063 4.203125-3.03125 10.472656 1.144531 14.042969l14.824219 12.492187v40.820313h-59.214844l69.214844-237.148438 60.949218 208.882813 9.582032-2.734375h.035156l-9.617188 2.753906 8.261719 28.246094zm141 0v-16.8125l20.941406-13.03125c4.6875-2.929688 6.109375-9.101563 3.183594-13.785157-2.925782-4.6875-9.097656-6.113281-13.785156-3.183593l-10.339844 6.429687v-37.828125c0-5.519531-4.480469-10-10-10-5.523438 0-10 4.480469-10 10v11.238281l-1.886719-1.632812c-4.222656-3.5625-10.535156-3.027344-14.097656 1.195312-3.5625 4.222657-3.027344 10.535157 1.195312 14.097657l14.789063 12.492187v40.820313h-40.953125l-9.082031-31.125 60.132812-206.015625 69.214844 237.140625zm0 0" fill="#083863"/></svg>