<svg height="470pt" viewBox="-42 0 470 470.49977" width="470pt" xmlns="http://www.w3.org/2000/svg"><path d="m374.21875 18.300781c.382812-.519531.691406-.941406.929688-1.261719-78.097657 141.859376-54.667969 443.070313-54.667969 443.070313v.390625h-73.402344v-.230469s-6-77.160156 1.191406-160.738281v-.019531c34.269531-152.492188 114.121094-265.132813 125.949219-281.210938zm0 0" fill="#3bb54a"/><path d="m200.167969 327.308594c26.292969-99.160156 77.261719-171.039063 85.203125-181.839844.257812-.347656.46875-.628906.628906-.847656-22.25 40.457031-32.929688 99.097656-37.730469 154.890625v.019531c-7.191406 83.578125-1.191406 160.738281-1.191406 160.738281v.230469h-62.148437v-.230469c-.996094-23.011719-.066407-46.0625 2.78125-68.917969 2.683593-21.609374 6.847656-43.003906 12.457031-64.042968zm0 0" fill="#b1d56e"/><path d="m184.929688 460.269531v.230469h-52.121094v-.089844s16.222656-157.808594-37.828125-232.171875c.160156.160157.371093.371094.621093.632813 11.0625 11.332031 21.394532 23.359375 30.929688 36.007812 22 29.03125 49.308594 73.320313 61.179688 126.472656-2.847657 22.855469-3.777344 45.90625-2.78125 68.917969zm0 0" fill="#3bb54a"/><path d="m170.28125 128.46875c-7.046875 1.390625-13.976562-2.886719-15.890625-9.808594l-12.179687-43.839844c-1.960938-7.292968 2.324218-14.800781 9.597656-16.824218 7.277344-2.019532 14.820312 2.203125 16.902344 9.464844l12.167968 43.839843c.980469 3.511719.519532 7.273438-1.273437 10.449219-1.796875 3.175781-4.78125 5.507812-8.296875 6.480469-.335938.097656-.679688.179687-1.027344.238281zm0 0" fill="#fedb41"/><path d="m94.980469 228.238281c54.050781 74.363281 37.828125 232.171875 37.828125 232.171875v.089844h-51.847656v-.339844s20.277343-255.03125-47.292969-375.148437c.210937.269531.480469.617187.8125 1.066406 8.589843 11.433594 58.667969 80.511719 92.050781 178.800781-9.535156-12.648437-19.867188-24.675781-30.929688-36.007812-.25-.261719-.460937-.472656-.621093-.632813zm0 0" fill="#b1d56e"/><path d="m382.851562 9.335938c-3.449218-3.527344-8.949218-4.011719-12.960937-1.144532l-.046875.03125c-.230469.167969-.453125.34375-.671875.53125-.054687.046875-.109375.101563-.164063.144532-.101562.089843-.203124.171874-.300781.261718l-1.191406 1.171875-.335937.65625-.488282.636719-.054687.101562c-.148438.199219-.300781.410157-.472657.644532-6.4375 8.75-29.453124 41.152344-55.367187 90.746094-5.941406 11.371093-11.59375 22.785156-16.953125 34.242187-2-2.222656-4.894531-3.433594-7.882812-3.296875-2.984376.136719-5.757813 1.601562-7.546876 4l-.074218.097656c-.015625.019532-.027344.035156-.039063.050782l-.648437.777343-.148438.292969-.191406.257812c-8.265625 11.242188-45.128906 63.667969-72.429688 139.289063-6.515624-54.257813-14.277343-102.757813-23.164062-144.742187 7.941406-5.835938 11.445312-15.972657 8.796875-25.46875l-12.175781-43.847657c-2.574219-9.125-10.308594-15.851562-19.699219-17.144531-10.644531-30.878906-18.339844-42.09375-19.234375-43.339844-2.058594-2.953125-5.539062-4.574218-9.121094-4.2421872-3.585937.3281252-6.714844 2.5585932-8.195312 5.8359372-1.484375 3.277344-1.09375 7.097656 1.023437 10.007813.074219.097656 6.828125 10.03125 16.410157 37.660156-6.648438 6.035156-9.335938 15.296875-6.949219 23.953125l12.175781 43.824219c2.328125 8.308593 8.972656 14.710937 17.359375 16.730469 11.183594 52.753906 20.566406 116.082031 27.929687 188.5-1.871093 7.167968-3.578124 14.328124-5.121093 21.488281-14-36.273438-33.417969-66.574219-49.445313-87.90625-33.523437-97.9375-82.855468-166.535157-92.851562-179.871094l-.179688-.53125-1.160156-1.246094-.160156-.199219c-3.238282-4.214843-9.207032-5.160156-13.585938-2.152343-4.382812 3.003906-5.648437 8.914062-2.878906 13.453125l.296875.898437.671875.65625c57.5625 104.070313 48.664062 313.761719 45.949219 359.355469h-61.324219c-5.523438 0-10 4.476562-10 10s4.476562 10 10 10h351c5.523438 0 10-4.476562 10-10s-4.476562-10-10-10h-31.386719c-1.367187-22.484375-4.421875-85.304688-1.335937-158.535156 5.035156-119.488282 24.023437-212.550782 54.921875-269.253906l.402343-.402344.558594-1.097656c.101563-.175782.1875-.359376.273438-.539063v-.007813c1.832031-3.785156 1.101562-8.3125-1.832032-11.328124zm-238.703124 362.320312c-1.675782-30.273438-5.433594-57.109375-11.273438-80.515625 17.300781 26.210937 35.542969 60.996094 44.707031 100.800781-2.324219 19.429688-3.3125 38.996094-2.957031 58.558594h-30.976562c1.75-26.246094 1.917968-52.578125.5-78.84375zm53.488281 20.90625c2.484375-19.941406 6.257812-39.703125 11.296875-59.15625.910156-1.566406 1.371094-3.347656 1.34375-5.15625 9.308594-34.113281 21.828125-67.269531 37.394531-99.023438-4.292969 22.769532-7.402344 45.75-9.3125 68.839844-.152344.757813-.21875 1.53125-.195313 2.300782-5.441406 64.851562-3.042968 126.207031-1.71875 150.128906h-41.820312c-.371094-19.359375.636719-38.71875 3.011719-57.933594zm-43.195313-325.035156c.332032-.089844.675782-.136719 1.019532-.136719 1.679687.007813 3.15625 1.125 3.613281 2.746094l12.175781 43.847656c.269531.953125.144531 1.976563-.347656 2.839844-.390625.6875-.988282 1.238281-1.710938 1.566406-.296875.03125-.605468.074219-.910156.136719-.257812.050781-.511719.121094-.761719.195312-1.636719-.054687-3.050781-1.164062-3.492187-2.738281l-12.175782-43.835937c-.550781-1.992188.605469-4.054688 2.589844-4.621094zm-61.792968 249.671875c-2.421876-56.5625-8.359376-105.632813-17.738282-146.886719 8.1875 15.570312 16.652344 33.097656 24.785156 52.28125l-5.785156 5.945312-1.761718 1.761719-5.257813 3.820313c44.011719 60.550781 39.035156 182.519531 36.6875 216.378906h-31.960937c1.265624-21.410156 3.597656-73.308594 1.03125-133.300781zm215.890624-25.847657c-3.046874 72.648438-.128906 135.21875 1.292969 159.144532h-53.359375c-1.28125-22.523438-3.851562-84.242188 1.703125-149.453125 17.585938-77.890625 47.445313-145.539063 73.566407-194.589844-12.398438 50.941406-20.175782 112.726563-23.207032 184.902344zm0 0" fill="#083863"/></svg>