<svg height="462pt" viewBox="0 -10 462.32279 462" width="462pt" xmlns="http://www.w3.org/2000/svg"><path d="m383.78125 197.304688c3.054688 14.960937 4.585938 30.191406 4.570312 45.460937 0 104.460937-70.347656 189.152344-157.140624 189.152344v-270.632813h141.851562c4.625 11.667969 8.210938 23.722656 10.71875 36.019532zm-58.617188 119.773437c0-10.496094-8.507812-19-19-19-10.496093 0-19 8.503906-19 19 0 10.492187 8.503907 19 19 19 10.492188 0 19-8.507813 19-19zm-30-91c0-10.496094-8.507812-19-19-19-10.496093 0-19 8.503906-19 19 0 10.492187 8.503907 19 19 19 10.492188 0 19-8.507813 19-19zm0 0" fill="#00efd1"/><path d="m231.210938 161.285156h-141.839844c25.292968-63.679687 79.300781-107.667968 141.839844-107.667968 62.542968 0 116.5625 43.988281 141.851562 107.667968zm0 0" fill="#00acea"/><path d="m325.164062 317.078125c0 10.492187-8.507812 19-19 19-10.496093 0-19-8.507813-19-19 0-10.496094 8.503907-19 19-19 10.492188 0 19 8.503906 19 19zm0 0" fill="#fedb41"/><path d="m295.164062 226.078125c0 10.492187-8.507812 19-19 19-10.496093 0-19-8.507813-19-19 0-10.496094 8.503907-19 19-19 10.492188 0 19 8.503906 19 19zm0 0" fill="#fedb41"/><path d="m231.210938 161.285156v270.632813c-86.777344 0-157.128907-84.691407-157.128907-189.152344-.09375-27.882813 5.09375-55.527344 15.289063-81.480469zm-26.046876 64.792969c0-10.496094-8.507812-19-19-19-10.496093 0-19 8.503906-19 19 0 10.492187 8.503907 19 19 19 10.492188 0 19-8.507813 19-19zm-30 91c0-10.496094-8.507812-19-19-19-10.496093 0-19 8.503906-19 19 0 10.492187 8.503907 19 19 19 10.492188 0 19-8.507813 19-19zm0 0" fill="#00efd1"/><path d="m205.164062 226.078125c0 10.492187-8.507812 19-19 19-10.496093 0-19-8.507813-19-19 0-10.496094 8.503907-19 19-19 10.492188 0 19 8.503906 19 19zm0 0" fill="#fedb41"/><path d="m175.164062 317.078125c0 10.492187-8.507812 19-19 19-10.496093 0-19-8.507813-19-19 0-10.496094 8.503907-19 19-19 10.492188 0 19 8.503906 19 19zm0 0" fill="#fedb41"/><g fill="#083863"><path d="m452.472656 282.3125-57.109375-1.777344c4.003907-25.074218 3.988281-50.625-.050781-75.691406l55.457031-13.203125c5.371094-1.277344 8.691407-6.667969 7.410157-12.042969-1.277344-5.371094-6.667969-8.691406-12.042969-7.414062l-54.859375 13.058594c-2.367188-9.402344-5.347656-18.636719-8.921875-27.648438-13.269531-33.417969-34.0625-61.75-60.121094-81.929688-3.601563-2.789062-7.277344-5.398437-11.03125-7.832031l30.640625-51.417969c1.855469-3.070312 1.925781-6.902343.179688-10.035156-1.742188-3.136718-5.035157-5.097656-8.621094-5.140625-3.589844-.039062-6.921875 1.84375-8.738282 4.9375l-30.902343 51.84375c-39.464844-19.195312-85.558594-19.207031-125.035157-.03125l-30.914062-52.804687c-1.789062-3.117188-5.113281-5.035156-8.707031-5.023438-3.59375.011719-6.902344 1.953125-8.671875 5.078125-1.769532 3.128907-1.722656 6.964844.121094 10.050781l30.742187 52.5c-3.769531 2.449219-7.46875 5.074219-11.097656 7.875-26.058594 20.179688-46.847657 48.511719-60.121094 81.929688-3.605469 9.09375-6.609375 18.417969-8.992187 27.910156l-55.957032-13.316406c-5.375-1.277344-10.765625 2.039062-12.046875 7.414062-1.277343 5.371094 2.042969 10.765626 7.414063 12.042969l56.554687 13.457031c-3.964843 24.988282-3.957031 50.445313.023438 75.429688l-57.222657 1.78125c-5.523437.082031-9.9335932 4.625-9.851562 10.148438.0820312 5.523437 4.628906 9.933593 10.152344 9.851562h.316406l60.675781-1.890625c6.878907 27.863281 19.394531 54.023437 36.777344 76.859375l-60.242187 20.65625c-3.390626 1.152344-5.902344 4.027344-6.589844 7.539062-.691406 3.511719.546875 7.125 3.246094 9.472657 2.699218 2.347656 6.449218 3.074219 9.832031 1.90625l67.835937-23.269531c30.316406 31.269531 68.621094 48.332031 109.207032 48.332031 40.488281 0 78.703124-16.976563 108.984374-48.09375l67.027344 22.011719c3.40625 1.167968 7.179688.410156 9.875-1.980469 2.695313-2.390625 3.894532-6.046875 3.140625-9.566407-.75-3.523437-3.339843-6.371093-6.777343-7.453124l-59.078126-19.398438c17.449219-22.871094 30.007813-49.085938 36.902344-77.015625l60.566406 1.886719h.316407c5.523437.085937 10.070312-4.324219 10.152343-9.847656.085938-5.523438-4.324218-10.066407-9.847656-10.152344zm-300.027344-190.9375c23.539063-18.226562 50.777344-27.804688 78.765626-27.804688 27.992187 0 55.238281 9.554688 78.777343 27.78125 19.613281 15.1875 35.90625 35.730469 47.699219 59.730469h-252.945312c11.796874-24.003906 28.089843-44.519531 47.703124-59.707031zm-68.382812 151.285156c-.046875-24.382812 4.089844-48.597656 12.234375-71.582031h124.867187v250.414063c-76-6.28125-137.101562-84.140626-137.101562-178.832032zm157.101562 178.832032v-250.414063h124.972657c2.960937 8.542969 5.429687 17.253906 7.402343 26.078125-.011718.832031.074219 1.664062.261719 2.476562.140625.601563.335938 1.1875.582031 1.75 2.636719 13.632813 3.953126 27.488282 3.941407 41.371094.003906 94.691406-60.160157 172.457032-137.160157 178.738282zm0 0"/><path d="m186.164062 197.078125c-16.019531 0-29 12.980469-29 29 0 16.015625 12.980469 29 29 29 16.015626 0 29-12.984375 29-29-.019531-16.011719-12.992187-28.984375-29-29zm0 38c-4.972656 0-9-4.03125-9-9 0-4.972656 4.027344-9 9-9 4.96875 0 9 4.027344 9 9-.007812 4.964844-4.035156 8.992187-9 9zm0 0"/><path d="m156.164062 288.078125c-16.019531 0-29 12.980469-29 29 0 16.015625 12.980469 29 29 29 16.015626 0 29-12.984375 29-29-.019531-16.011719-12.992187-28.984375-29-29zm0 38c-4.972656 0-9-4.03125-9-9 0-4.972656 4.027344-9 9-9 4.96875 0 9 4.027344 9 9-.007812 4.964844-4.035156 8.992187-9 9zm0 0"/><path d="m305.164062 226.078125c0-16.019531-12.984374-29-29-29-16.019531 0-29 12.980469-29 29 0 16.015625 12.980469 29 29 29 16.007813-.019531 28.980469-12.992187 29-29zm-29 9c-4.972656 0-9-4.03125-9-9 0-4.972656 4.027344-9 9-9 4.96875 0 9 4.027344 9 9-.007812 4.964844-4.035156 8.992187-9 9zm0 0"/><path d="m306.164062 288.078125c-16.019531 0-29 12.980469-29 29 0 16.015625 12.980469 29 29 29 16.015626 0 29-12.984375 29-29-.019531-16.011719-12.992187-28.984375-29-29zm0 38c-4.972656 0-9-4.03125-9-9 0-4.972656 4.027344-9 9-9 4.96875 0 9 4.027344 9 9-.007812 4.964844-4.035156 8.992187-9 9zm0 0"/></g></svg>