<svg height="473pt" viewBox="0 0 473.43905 473" width="473pt" xmlns="http://www.w3.org/2000/svg"><path d="m341.570312 403.320312h-121.871093l56.601562-84.75h-41.699219l57.378907-71.011718h-42.25l49.460937-69.730469h-27.460937l69.839843-89.539063 65.191407 89.539063h-27.011719l49 69.730469h-40.148438l57.378907 71.011718h-37.050781l54.511718 84.75zm0 0" fill="#3bb54a"/><path d="m111.570312 69.667969c23.257813.003906 42.109376 18.859375 42.109376 42.117187 0 23.257813-18.855469 42.113282-42.113282 42.113282-23.257812.003906-42.113281-18.851563-42.117187-42.109376-.003907-23.261718 18.855469-42.121093 42.121093-42.121093zm0 0" fill="#fedb41"/><g fill="#083863"><path d="m427.25 328.941406h18.730469c3.882812-.078125 7.382812-2.355468 9.023437-5.875 1.660156-3.445312 1.175782-7.542968-1.246094-10.5l-44.222656-54.625h19.214844c3.761719-.078125 7.175781-2.222656 8.875-5.582031 1.71875-3.324219 1.453125-7.332031-.691406-10.398437l-37.933594-54.019532h7.761719c3.769531-.027344 7.207031-2.15625 8.910156-5.519531s1.382813-7.398437-.828125-10.449219l-65.191406-89.554687c-1.84375-2.539063-4.777344-4.0625-7.914063-4.117188-3.140625-.054687-6.121093 1.367188-8.054687 3.839844l-69.839844 89.539063c-2.351562 3.027343-2.78125 7.128906-1.105469 10.578124 1.671875 3.453126 5.15625 5.652344 8.992188 5.683594h8.105469l-38.261719 53.886719c-2.164063 3.109375-2.445313 7.160156-.726563 10.539063 1.695313 3.363281 5.117188 5.507812 8.882813 5.574218h21.3125l-44.222657 54.53125c-2.421874 3.023438-2.910156 7.164063-1.257812 10.664063 1.65625 3.503906 5.164062 5.757812 9.039062 5.804687h23l-46.214843 69.007813c-2.046875 2.964843-2.238281 6.832031-.5 9.988281 1.773437 3.183594 5.175781 5.113281 8.816406 5h112.015625v50.71875c0 5.523438 4.476562 10 10 10s10-4.476562 10-10v-50.714844h111.722656c3.625.074219 7-1.855468 8.777344-5.019531 1.75-3.113281 1.609375-6.949219-.367188-9.921875zm-75.53125 64v-23.960937l26.808594-16.765625c4.640625-2.9375 6.042968-9.066406 3.140625-13.730469-2.902344-4.660156-9.023438-6.109375-13.703125-3.238281l-16.246094 10.164062v-50.910156c0-5.523438-4.476562-10-10-10s-10 4.476562-10 10v18.90625l-6.3125-5.253906c-4.222656-3.554688-10.527344-3.007813-14.078125 1.214844-3.554687 4.222656-3.011719 10.527343 1.210937 14.078124l19.179688 16.113282v53.382812h-93.316406l46.21875-69.007812c2.046875-2.964844 2.242187-6.835938.5-9.988282-1.773438-3.183593-5.175782-5.113281-8.820313-5h-20.765625l44.222656-54.910156c2.421876-2.96875 2.90625-7.074218 1.238282-10.527344-1.667969-3.449218-5.183594-5.621093-9.015625-5.566406h-22.902344l38.265625-54.136718c2.164062-3.058594 2.445312-7.070313.734375-10.402344-1.714844-3.335938-5.140625-5.441406-8.886719-5.460938h-6.980468l49.082031-62.929687 45.816406 62.929687h-7.359375c-3.722656-.023437-7.148438 2.035156-8.875 5.332032-1.71875 3.371093-1.453125 7.410156.695312 10.523437l37.929688 54.144531h-20.898438c-3.820312-.078125-7.34375 2.066406-9.023437 5.5-1.660156 3.503906-1.175781 7.652344 1.246094 10.683594l44.21875 54.816406h-16.113281c-3.628907-.074218-7.003907 1.855469-8.777344 5.023438-1.753906 3.109375-1.613282 6.941406.367187 9.917968l44.601563 69.058594zm0 0"/><path d="m111.570312 163.898438c28.78125 0 52.113282-23.335938 52.109376-52.117188-.003907-28.785156-23.335938-52.113281-52.121094-52.113281-28.78125.003906-52.113282 23.339843-52.109375 52.121093.035156 28.769532 23.351562 52.082032 52.121093 52.109376zm0-84.230469c17.734376.003906 32.109376 14.382812 32.109376 32.117187 0 17.738282-14.378907 32.113282-32.113282 32.113282-17.734375.003906-32.113281-14.375-32.117187-32.109376.019531-17.730468 14.386719-32.101562 32.121093-32.121093zm0 0"/><path d="m101.71875 182.371094v30.988281c0 5.523437 4.476562 10 10 10s10-4.476563 10-10v-30.988281c0-5.523438-4.476562-10-10-10s-10 4.476562-10 10zm0 0"/><path d="m111.71875 51.210938c5.523438 0 10-4.480469 10-10v-30.992188c0-5.523438-4.476562-10-10-10s-10 4.476562-10 10v30.992188c0 5.519531 4.476562 10 10 10zm0 0"/><path d="m50.988281 111.941406c0-5.523437-4.476562-10-10-10h-30.988281c-5.523438 0-10 4.476563-10 10 0 5.519532 4.476562 10 10 10h30.988281c5.523438 0 10-4.480468 10-10zm0 0"/><path d="m172.148438 111.941406c0 5.519532 4.480468 10 10 10h30.992187c5.523437 0 10-4.480468 10-10 0-5.523437-4.476563-10-10-10h-30.992187c-5.519532 0-10 4.476563-10 10zm0 0"/><path d="m47.289062 190.210938 21.691407-21.691407c3.90625-3.90625 3.90625-10.238281 0-14.140625-3.902344-3.90625-10.234375-3.90625-14.140625 0l-21.691406 21.691406c-2.542969 2.519532-3.542969 6.210938-2.621094 9.675782.921875 3.460937 3.625 6.164062 7.085937 7.085937 3.464844.921875 7.15625-.078125 9.675781-2.621093zm0 0"/><path d="m161.230469 72.128906c2.652343.003906 5.195312-1.050781 7.070312-2.929687l21.691407-21.6875c3.875-3.910157 3.859374-10.21875-.03125-14.113281-3.894532-3.890626-10.203126-3.90625-14.113282-.03125l-21.691406 21.691406c-2.859375 2.859375-3.714844 7.160156-2.164062 10.898437 1.546874 3.738281 5.191406 6.171875 9.238281 6.171875zm0 0"/><path d="m54.839844 69.199219c3.90625 3.90625 10.234375 3.90625 14.140625 0 3.90625-3.902344 3.90625-10.234375 0-14.140625l-21.691407-21.691406c-3.910156-3.875-10.214843-3.859376-14.109374.03125-3.894532 3.894531-3.90625 10.203124-.03125 14.113281zm0 0"/><path d="m152.308594 152.527344c-3.90625 3.90625-3.90625 10.238281 0 14.144531l23.539062 23.539063c3.910156 3.875 10.21875 3.863281 14.113282-.03125 3.890624-3.894532 3.90625-10.199219.03125-14.109376l-23.542969-23.542968c-3.902344-3.902344-10.234375-3.902344-14.140625 0zm0 0"/></g></svg>