<svg height="494pt" viewBox="0 0 493 494" width="494pt" xmlns="http://www.w3.org/2000/svg"><path d="m455.222656 483.5v.5h-298v-.5l55.140625-60.988281v-.132813h41.886719l-17.75-26.570312 66.722656-73.808594zm0 0" fill="#00acea"/><path d="m429.089844 102.46875c0 21.175781-17.164063 38.339844-38.339844 38.339844-21.171875 0-38.339844-17.164063-38.339844-38.339844 0-21.171875 17.167969-38.339844 38.339844-38.339844 21.175781 0 38.339844 17.167969 38.339844 38.339844zm0 0" fill="#fedb41"/><path d="m132.371094 422.378906h-121.871094l54.511719-84.75h-37.050781l57.378906-71.007812h-40.148438l49-69.730469h-27l65.179688-89.539063 69.851562 89.539063h-27.472656l49.460938 69.730469h-42.25l57.378906 71.007812h-41.699219l38.859375 58.179688 17.75 26.570312zm0 0" fill="#3bb54a"/><g fill="#083863"><path d="m482.863281 474h-22.851562l-149.507813-158.855469c-1.914062-2.03125-4.589844-3.171875-7.382812-3.144531-2.792969.027344-5.445313 1.222656-7.316406 3.292969l-58.113282 64.476562-21.347656-31.769531h23c3.882812-.074219 7.386719-2.355469 9.027344-5.875 1.660156-3.445312 1.175781-7.539062-1.246094-10.5l-44.226562-54.625h21.3125c3.769531-.078125 7.1875-2.230469 8.882812-5.601562 1.71875-3.335938 1.4375-7.347657-.726562-10.414063l-38.261719-53.984375h8.117187c3.828125-.023438 7.3125-2.222656 8.984375-5.667969 1.675781-3.445312 1.246094-7.539062-1.101562-10.566406l-69.84375-89.550781c-1.917969-2.492188-4.90625-3.925782-8.050781-3.855469-3.140626.050781-6.070313 1.570313-7.917969 4.109375l-65.179688 89.539062c-2.214843 3.054688-2.539062 7.089844-.835937 10.457032 1.699218 3.371094 5.140625 5.503906 8.914062 5.535156h7.75l-37.933594 53.925781c-2.144531 3.113281-2.410156 7.152344-.691406 10.519531 1.703125 3.351563 5.117188 5.488282 8.875 5.554688h19.214844l-44.222656 54.535156c-2.421875 3.023438-2.910156 7.160156-1.257813 10.664063 1.65625 3.5 5.164063 5.753906 9.035157 5.800781h18.730468l-44.601562 69.15625c-1.980469 2.972656-2.121094 6.804688-.367188 9.917969 1.785156 3.140625 5.164063 5.039062 8.777344 4.925781h112.363281v42h-57c-5.523437 0-10 4.476562-10 10s4.476563 10 10 10h417c5.519531 0 10-4.476562 10-10s-4.480469-10-10-10zm-179.492187-137.25 129.175781 137.25h-253.253906l37.625-42h37.332031c3.664062.089844 7.070312-1.878906 8.820312-5.097656 1.753907-3.214844 1.558594-7.144532-.503906-10.171875l-13.417968-20.042969zm-229.949219 6.097656c1.980469-2.972656 2.121094-6.808594.367187-9.917968-1.785156-3.144532-5.164062-5.042969-8.777343-4.929688h-16.113281l44.222656-54.910156c2.417968-2.96875 2.898437-7.074219 1.230468-10.519532-1.664062-3.449218-5.179687-5.621093-9.011718-5.570312h-20.898438l37.933594-54.171875c2.144531-3.0625 2.414062-7.066406.695312-10.386719-1.71875-3.324218-5.136718-5.421875-8.878906-5.441406h-7.351562l45.808594-62.929688 49.089843 62.929688h-6.988281c-3.730469-.023438-7.160156 2.046875-8.882812 5.355469-1.714844 3.378906-1.4375 7.425781.726562 10.539062l38.269531 54.105469h-22.902343c-3.820313-.078125-7.339844 2.066406-9.023438 5.5-1.660156 3.507812-1.175781 7.652344 1.246094 10.683594l44.222656 54.816406h-20.765625c-3.660156-.074219-7.054687 1.890625-8.816406 5.101562-1.742188 3.152344-1.546875 7.019532.5 9.984376l46.21875 68.914062h-92.679688v-53.378906l18.878907-16.113282c2.011718-1.726562 3.257812-4.179687 3.460937-6.820312.203125-2.644531-.65625-5.257812-2.382813-7.269531-1.671874-2.023438-4.085937-3.292969-6.699218-3.519531-2.617188-.226563-5.214844.609374-7.207032 2.320312l-6.050781 5.25v-18.910156c0-5.519532-4.480469-10-10-10-5.523437 0-10 4.480468-10 10v50.910156l-16.542969-10.164062c-3.035156-1.941407-6.878906-2.101563-10.0625-.414063-3.183593 1.683594-5.210937 4.957031-5.308593 8.558594-.09375 3.597656 1.757812 6.972656 4.847656 8.824219l27.066406 16.765624v23.960938h-94.039062zm69.441406 89.152344h47.097657l-37.628907 42h-9.46875zm0 0"/><path d="m390.75 150.808594c26.699219 0 48.339844-21.640625 48.339844-48.339844 0-26.695312-21.640625-48.339844-48.339844-48.339844-26.695312 0-48.339844 21.644532-48.339844 48.339844.03125 26.6875 21.65625 48.3125 48.339844 48.339844zm0-76.679688c15.652344 0 28.339844 12.6875 28.339844 28.339844s-12.6875 28.339844-28.339844 28.339844c-15.648438 0-28.339844-12.6875-28.339844-28.339844.019532-15.644531 12.695313-28.320312 28.339844-28.339844zm0 0"/><path d="m380.863281 166.71875v28.210938c0 5.523437 4.476563 10 10 10 5.519531 0 10-4.476563 10-10v-28.210938c0-5.523438-4.480469-10-10-10-5.523437 0-10 4.476562-10 10zm0 0"/><path d="m390.863281 48.21875c5.519531 0 10-4.476562 10-10v-28.21875c0-5.523438-4.480469-10-10-10-5.523437 0-10 4.476562-10 10v28.21875c0 5.523438 4.476563 10 10 10zm0 0"/><path d="m483.222656 92h-28.210937c-5.523438 0-10 4.476562-10 10s4.476562 10 10 10h28.210937c5.523438 0 10-4.476562 10-10s-4.476562-10-10-10zm0 0"/><path d="m298.292969 112h28.207031c5.523438 0 10-4.476562 10-10s-4.476562-10-10-10h-28.207031c-5.523438 0-10 4.476562-10 10s4.476562 10 10 10zm0 0"/><path d="m428.890625 140.601562c-3.90625 3.902344-3.90625 10.234376 0 14.140626l19.75 19.75c3.902344 3.90625 10.234375 3.90625 14.140625 0s3.90625-10.238282 0-14.140626l-19.75-19.75c-3.902344-3.90625-10.238281-3.90625-14.140625 0zm0 0"/><path d="m338.480469 64.332031c3.90625 3.90625 10.238281 3.90625 14.144531 0 3.902344-3.90625 3.902344-10.238281 0-14.144531l-19.75-19.75c-3.90625-3.90625-10.238281-3.90625-14.144531 0s-3.90625 10.238281 0 14.144531zm0 0"/><path d="m435.960938 67.261719c2.652343 0 5.199218-1.050781 7.070312-2.929688l19.75-19.75c3.90625-3.90625 3.90625-10.238281 0-14.144531-3.902344-3.90625-10.234375-3.90625-14.140625 0l-19.75 19.75c-2.863281 2.859375-3.71875 7.164062-2.167969 10.898438 1.546875 3.738281 5.195313 6.175781 9.238282 6.175781zm0 0"/><path d="m340.160156 138.917969-21.429687 21.429687c-3.902344 3.90625-3.902344 10.238282 0 14.144532 3.90625 3.90625 10.238281 3.902343 14.144531 0l21.429688-21.429688c3.90625-3.90625 3.90625-10.238281 0-14.144531-3.90625-3.902344-10.238282-3.902344-14.144532 0zm0 0"/></g></svg>