<svg height="490pt" viewBox="-172 0 490 490" width="490pt" xmlns="http://www.w3.org/2000/svg"><path d="m72.042969 301.839844v-290.410156c.332031-.480469.660156-.949219 1-1.429688 75.976562 107.882812 83.898437 249.609375 20.421875 365.289062l-9.902344 18.050782c-2.261719 4.175781-6.789062 6.605468-11.519531 6.179687zm0 0" fill="#b1d56e"/><path d="m72.042969 301.839844v97.679687c-4.015625-.308593-7.601563-2.636719-9.519531-6.179687l-9.898438-18.050782c-63.175781-115.125-55.652344-256.109374 19.417969-363.859374zm0 0" fill="#3bb54a"/><path d="m53.757812 398.148438c1.933594 3.53125 4.800782 6.460937 8.285157 8.472656v73.378906c0 5.523438 4.476562 10 10 10 5.523437 0 10-4.476562 10-10v-72.320312c4.382812-1.964844 7.996093-5.3125 10.289062-9.53125l9.898438-18.046876c32.03125-58.335937 47.035156-124.492187 43.300781-190.941406-3.695312-66.445312-25.980469-130.515625-64.3125-184.917968-1.871094-2.65625-4.914062-4.23828175-8.160156-4.242188h-.015625c-.152344 0-.296875.0195312-.453125.0273438-.183594-.0078126-.363282-.0273438-.546875-.0273438-4.773438 0-8.878907 3.375-9.808594 8.058594-75.785156 110.628906-82.890625 254.480468-18.378906 372.042968zm30.9375-27.667969-2.652343 4.835937v-68.003906l20.402343-20.414062c2.578126-2.515626 3.605469-6.222657 2.6875-9.707032-.917968-3.484375-3.640624-6.203125-7.125-7.121094-3.484374-.917968-7.191406.113282-9.707031 2.691407l-6.257812 6.257812v-51.707031l20.402343-20.414062c2.578126-2.515626 3.605469-6.222657 2.6875-9.707032-.917968-3.484375-3.640624-6.203125-7.125-7.121094-3.484374-.917968-7.191406.113282-9.707031 2.691407l-6.257812 6.257812v-51.707031l20.402343-20.414062c2.578126-2.515626 3.605469-6.222657 2.6875-9.707032-.917968-3.484375-3.640624-6.203125-7.125-7.121094-3.484374-.917968-7.191406.113282-9.707031 2.691407l-6.257812 6.257812v-76.207031c25.734375 45.121094 40.632812 95.601562 43.519531 147.464844 3.527344 62.710937-10.636719 125.148437-40.867188 180.203125zm-64.214843-179.386719c2.703125-50.773438 16.914062-100.265625 41.5625-144.734375v71.332031l-4.925781-4.929687c-2.519532-2.566407-6.21875-3.585938-9.695313-2.667969-3.476563.921875-6.191406 3.636719-7.113281 7.109375-.917969 3.476563.097656 7.179687 2.664062 9.695313l19.070313 19.082031v51.710937l-4.925781-4.929687c-2.519532-2.566407-6.21875-3.585938-9.695313-2.667969-3.476563.921875-6.191406 3.636719-7.113281 7.109375-.917969 3.476563.097656 7.179687 2.664062 9.695313l19.070313 19.082031v51.710937l-4.925781-4.929687c-2.519532-2.566407-6.21875-3.585938-9.695313-2.667969-3.476563.921875-6.191406 3.636719-7.113281 7.109375-.917969 3.476563.097656 7.179687 2.664062 9.695313l19.070313 19.082031v65.691406l-.652344-1.191406c-30.09375-54.8125-44.265625-116.949219-40.910156-179.386719zm0 0" fill="#083863"/></svg>