<svg height="503pt" viewBox="-43 0 503 503.748" width="503pt" xmlns="http://www.w3.org/2000/svg"><path d="m213.839844 11.148438c154.269531 70.898437 207.019531 202.328124 190.597656 301.480468-10.949219 66.859375-51.257812 109.519532-103.519531 109.519532-29.359375 0-60.707031-13.832032-92.058594-40.929688-.339844.277344-.671875.558594-1.011719.839844v-371.3125l-.070312-.65625c.359375-.058594.71875-.089844 1.082031-.09375 1.710937.113281 3.394531.5 4.980469 1.152344zm0 0" fill="#b1d56e"/><path d="m207.847656 350.246094v31.8125c-30.539062 25.398437-62.007812 38.9375-90.558594 38.9375-52.25 0-92.558593-42.65625-104.011718-108.367188-16.417969-98 35.832031-228.851562 190.601562-301.480468 1.257813-.496094 2.566406-.851563 3.898438-1.058594l.070312.65625zm0 0" fill="#3bb54a"/><path d="m218.015625 2.0625-.625-.261719c-2.71875-1.089843-5.605469-1.699219-8.53125-1.800781-.84375 0-1.683594.0664062-2.515625.191406-2.054688.3125-4.074219.851563-6.011719 1.609375l-.699219.300781c-73.117187 34.304688-129.816406 84.578126-163.96875 145.375-29.898437 53.226563-41.351562 112.472657-32.238281 166.871094 12.351563 70.863282 57.042969 116.648438 113.863281 116.648438 25.792969 0 53.347657-9.890625 80.558594-28.757813v91.507813c0 5.523437 4.480469 10 10 10 5.523438 0 10-4.476563 10-10v-92.5625c28.0625 20.5625 55.933594 30.964844 83.070313 30.964844 57.152343 0 101.660156-46.28125 113.386719-117.886719 17.003906-102.679688-37.09375-239.035157-196.289063-312.199219zm-100.726563 408.933594c-22.765624 0-43.539062-9.144532-60.074218-26.449219-17-17.800781-28.792969-43.257813-34.074219-73.570313-8.351563-49.855468 2.289063-104.441406 29.960937-153.707031 30.492188-54.277343 80.40625-99.757812 144.746094-132.0625v105.421875l-40.121094-29.140625c-2.890624-2.140625-6.703124-2.5625-9.992187-1.109375-3.289063 1.449219-5.542969 4.554688-5.90625 8.132813-.367187 3.574219 1.21875 7.070312 4.144531 9.15625l51.875 37.679687v76.714844l-67.640625-42.921875c-4.660156-2.902344-10.785156-1.503906-13.726562 3.128906-2.941407 4.636719-1.597657 10.773438 3.011719 13.753907l78.355468 49.722656v77.519531l-116.148437-64.433594c-4.824219-2.644531-10.882813-.894531-13.550781 3.921875-2.667969 4.8125-.949219 10.875 3.851562 13.570313l125.847656 69.8125v21.164062c-27.625 22.058594-55.398437 33.695313-80.558594 33.695313zm277.28125-99.984375c-5.046874 30.828125-16.691406 56.617187-33.667968 74.582031-16.417969 17.371094-37.160156 26.554688-59.984375 26.554688-26.0625 0-54.730469-12.578126-83.070313-36.410157v-19.046875l126.851563-70.367187c4.800781-2.695313 6.523437-8.757813 3.851562-13.570313-2.667969-4.816406-8.722656-6.566406-13.550781-3.921875l-117.152344 64.988281v-77.4375l79.359375-50.363281c4.609375-2.980469 5.953125-9.117187 3.011719-13.753906-2.941406-4.632813-9.066406-6.03125-13.726562-3.128906l-68.644532 43.554687v-76.621094l52.878906-38.398437c2.925782-2.085937 4.507813-5.582031 4.144532-9.160156-.363282-3.574219-2.617188-6.679688-5.90625-8.132813-3.289063-1.453125-7.101563-1.027344-9.992188 1.109375l-41.125 29.859375v-107.238281c143.277344 69.566406 192.203125 193.464844 176.722656 286.902344zm0 0" fill="#083863"/></svg>