<svg height="460pt" viewBox="-10 0 460 460.22004" width="460pt" xmlns="http://www.w3.org/2000/svg"><path d="m312.300781 292.570312c0-.058593-.011719-.121093-.011719-.179687-16.457031-1.429687-29.699218-6.652344-38.058593-15.011719-15.140625-15.140625-14.460938-39.179687 1.261719-61.539062 23.636718-33.148438 76.6875-55.917969 142.578124-32.121094.648438.273438 1.246094.648438 1.769532 1.109375.472656.523437.847656 1.121094 1.109375 1.773437 24.160156 65.25 1.363281 118.609376-32.117188 142.578126-22.550781 16.199218-46.589843 16.878906-61.730469 1.742187-8.480468-8.480469-13.539062-21.511719-14.800781-38.351563zm0 0" fill="#b1d56e"/><path d="m220.5625 162.109375c-12.640625 10.628906-25.691406 16.300781-37.523438 16.300781-21.410156 0-37.917968-17.480468-42.609374-44.410156-6.730469-40.148438 14.679687-93.769531 78.089843-123.53125.652344-.265625 1.339844-.425781 2.042969-.46875.699219.039062 1.390625.199219 2.039062.46875 63.21875 29.050781 84.828126 82.902344 78.097657 123.53125-4.476563 27.398438-21 44.878906-42.410157 44.878906-12.027343 0-24.878906-5.667968-37.726562-16.769531zm0 0" fill="#3bb54a"/><path d="m128.820312 292.570312c-1.257812 16.839844-6.320312 29.871094-14.800781 38.351563-15.140625 15.136719-39.179687 14.457031-61.730469-1.742187-33.476562-23.96875-56.277343-77.328126-32.117187-142.578126.261719-.652343.640625-1.25 1.109375-1.773437.527344-.460937 1.125-.835937 1.769531-1.109375 65.890625-23.796875 118.941407-1.027344 142.578125 32.121094 15.722656 22.359375 16.402344 46.398437 1.261719 61.539062-8.359375 8.359375-21.601563 13.582032-38.058594 15.011719 0 .058594-.011719.121094-.011719.179687zm0 0" fill="#b1d56e"/><path d="m46.460938 337.300781c13.484374 9.6875 27.648437 14.539063 40.78125 14.539063 12.691406.152344 24.90625-4.84375 33.855468-13.847656 6.433594-6.4375 11.167969-14.730469 14.171875-24.765626l75.292969 75.671876v61.320312c0 5.523438 4.476562 10 10 10 5.519531 0 10-4.476562 10-10v-61.320312l75.296875-75.671876c3 10.035157 7.738281 18.328126 14.171875 24.765626 8.949219 9.007812 21.164062 14.003906 33.859375 13.847656 13.125 0 27.292969-4.847656 40.765625-14.527344 36.5-26.132812 61.683594-83.941406 35.675781-154.183594l-.199219-.5c-.761718-1.8125-1.851562-3.46875-3.222656-4.875-1.375-1.328125-2.980468-2.398437-4.734375-3.152344l-.699219-.285156c-70.660156-25.523437-128.324218-.453125-154.121093 35.71875l-.039063.054688c-18.683594 26.578125-18.742187 55.765625-.148437 74.363281 6.359375 6.359375 14.808593 11.164063 24.925781 14.261719l-61.53125 61.828125v-179.25c9.277344 5.035156 18.558594 7.585937 27.726562 7.585937 26.46875 0 46.992188-20.90625 52.277344-53.246094 7.335938-44.285156-15.726562-102.972656-83.789062-134.25l-.515625-.21875c-3.625-1.546874-7.722657-1.550781-11.351563-.019531l-.636718.273438c-68.015626 31.921875-91.050782 90.421875-83.703126 134.234375l.011719.0625c5.574219 32.011718 26.167969 52.695312 52.460938 52.695312 8.9375 0 18.246093-2.542968 27.519531-7.441406v179.574219l-61.523438-61.828125c10.117188-3.101563 18.566407-7.902344 24.925782-14.265625 18.59375-18.59375 18.535156-47.78125-.1875-74.414063-13.886719-19.472656-35.511719-34.117187-60.886719-41.238281-28.703125-8.054687-60.945313-6.144531-93.234375 5.519531l-.699219.28125c-3.625 1.496094-6.496093 4.390625-7.957031 8.03125l-.199219.5c-26.015625 70.242188-.828125 128.050782 35.660157 154.171875zm234.84375-66.992187c-11.542969-11.539063-10.644532-30.195313 2.347656-48.6875 29.203125-40.925782 85.234375-44.214844 128.734375-29.300782 21.019531 59.316407.566406 107.292969-29.390625 128.738282-18.527344 13.308594-37.238282 14.378906-48.824219 2.789062-6-6-9.917969-15.480468-11.445313-27.574218l39.871094-40.070313c2.535156-2.53125 3.527344-6.222656 2.59375-9.679687-.929687-3.457032-3.640625-6.15625-7.101562-7.070313-3.460938-.914063-7.148438.09375-9.667969 2.640625l-39.632813 39.832031c-11.929687-1.660156-21.589843-5.71875-27.488281-11.617187zm-98.265626-101.898438c-16.316406 0-28.863281-13.832031-32.75-36.09375-8.300781-49.585937 28.992188-91.535156 70.300782-111.746094 56.804687 27.078126 76.265625 75.464844 70.242187 111.816407-3.679687 22.511719-16.148437 36.492187-32.539062 36.492187-8.53125 0-18.054688-3.96875-27.730469-11.5v-67.160156c0-5.523438-4.476562-10-10-10s-10 4.476562-10 10v67.066406c-9.5625 7.199219-19.210938 11.125-27.523438 11.125zm-154.304687 23.910156c59.746094-20.636718 107.613281-.316406 128.714844 29.273438 13.007812 18.5 13.917969 37.171875 2.371093 48.71875-5.902343 5.898438-15.5625 9.953125-27.488281 11.617188l-39.632812-39.832032c-3.902344-3.890625-10.210938-3.890625-14.117188-.007812-3.902343 3.886718-3.929687 10.199218-.058593 14.117187l39.871093 40.070313c-1.527343 12.09375-5.445312 21.574218-11.445312 27.574218-11.585938 11.589844-30.300781 10.519532-48.835938-2.800781-29.945312-21.4375-50.394531-69.414062-29.378906-128.730469zm0 0" fill="#083863"/></svg>