<svg height="480pt" viewBox="0 -115 480.22 480" width="480pt" xmlns="http://www.w3.org/2000/svg"><path d="m430.769531 49.359375c21.789063 0 39.449219 42.609375 39.449219 95.167969 0 52.5625-17.660156 95.171875-39.449219 95.171875l-13.347656-2.039063c-21.121094-3.222656-42.472656-4.640625-63.832031-4.242187l-299.609375 5.660156c19.648437-5.410156 34.917969-45.679687 34.917969-94.550781 0-48.867188-15.269532-89.136719-34.917969-94.546875l98.160156 2.726562 77.328125 2.152344 75.292969 2.089844c13.03125.363281 26.078125.046875 39.078125-.949219zm0 0" fill="#77b5e3"/><path d="m208.128906 15.207031 21.339844 39.652344-77.328125-2.152344 6.878906-37.167969.28125-.128906c1.808594 2.199219 12.027344 3.878906 24.347657 3.878906 12.691406 0 23.152343-1.789062 24.480468-4.082031zm0 0" fill="#4b5d63"/><path d="m53.980469 49.980469c19.648437 5.410156 34.917969 45.679687 34.917969 94.546875 0 48.871094-15.269532 89.140625-34.917969 94.550781-1.476563.410156-3 .617187-4.53125.621094-21.789063 0-39.449219-42.609375-39.449219-95.171875 0-52.558594 17.660156-95.167969 39.449219-95.167969 1.53125 0 3.054687.210937 4.53125.621094zm11.539062 94.546875c0-21.417969-7.191406-38.777344-16.070312-38.777344-8.878907 0-16.070313 17.359375-16.070313 38.777344 0 21.421875 7.191406 38.773437 16.070313 38.773437 8.878906 0 16.070312-17.363281 16.070312-38.773437zm0 0" fill="#4b5d63"/><path d="m49.449219 105.75c8.878906 0 16.070312 17.359375 16.070312 38.777344 0 21.421875-7.191406 38.773437-16.070312 38.773437-8.878907 0-16.070313-17.363281-16.070313-38.773437s7.191406-38.777344 16.070313-38.777344zm0 0" fill="#77b5e3"/><g fill="#083863"><path d="m430.769531 38.910156h-.382812l-87.3125 6.894532c-12.652344 1.003906-25.347657 1.347656-38.035157 1.035156l-69.507812-1.875-17.472656-32.433594c-.535156-2.660156-2.289063-6.402344-7.679688-8.777344-2.40625-.992187-4.917968-1.707031-7.484375-2.132812-6.359375-1.0625-12.796875-1.5664065-19.246093-1.507813-6.445313-.0585935-12.886719.449219-19.242188 1.515625-3.792969.703125-15.300781 2.851563-15.382812 12.96875l-5.160157 27.875-88.589843-2.464844c-1.914063-.425781-3.863282-.644531-5.824219-.652343-14.84375 0-28.035157 12.09375-37.132813 34.046875-7.941406 19.160156-12.316406 44.417968-12.316406 71.125 0 26.703125 4.375 51.964844 12.316406 71.125 9.097656 21.953125 22.289063 34.042968 37.132813 34.042968 1.953125-.003906 3.898437-.21875 5.800781-.644531l298.527344-5.636719c20.792968-.34375 41.578125 1.070313 62.132812 4.234376l14.101563 2.261718h.757812c14.847657 0 28.035157-12.203125 37.132813-34.152344 7.945312-19.160156 12.316406-44.472656 12.316406-71.175781s-4.371094-52.214843-12.316406-71.375c-9.097656-21.957031-22.285156-34.296875-37.132813-34.296875zm-263.925781-10.695312c5.566406.777344 11.183594 1.136718 16.804688 1.074218 6.648437.121094 13.292968-.417968 19.832031-1.621093l8.992187 16.710937-48.371094-1.34375zm-146.84375 116.3125c0-51.988282 17.441406-85.167969 29.449219-85.167969.460937.003906.914062.058594 1.363281.152344.277344.089843.5625.160156.847656.222656 11.53125 3.683594 27.238282 34.828125 27.238282 84.792969 0 49.96875-15.707032 81.117187-27.238282 84.792968-.289062.066407-.570312.136719-.847656.222657-.449219.097656-.90625.148437-1.363281.15625-12.007813 0-29.449219-33.179688-29.449219-85.171875zm411.359375 85.144531-12.433594-1.898437c-21.679687-3.300782-43.597656-4.757813-65.523437-4.351563l-273.300782 5.160156c3.230469-5.390625 5.9375-11.082031 8.082032-16.992187 6.914062-18.566406 10.722656-42.386719 10.722656-67.0625 0-24.675782-3.808594-48.492188-10.722656-67.058594-2.117188-5.824219-4.777344-11.433594-7.945313-16.761719l224.246094 6.234375c13.378906.371094 26.769531.046875 40.117187-.976562l86.464844-6.597656c12 .53125 29.152344 33.59375 29.152344 85.160156 0 51.148437-16.878906 84.089844-28.859375 85.144531zm0 0"/><path d="m70.054688 175.769531c3.523437-8.503906 5.464843-19.597656 5.464843-31.242187 0-11.640625-1.941406-22.742188-5.464843-31.25-6.320313-15.25-15.621094-17.527344-20.601563-17.527344s-14.285156 2.277344-20.601563 17.527344c-3.523437 8.507812-5.464843 19.609375-5.464843 31.25 0 11.644531 1.941406 22.738281 5.464843 31.242187 6.324219 15.253907 15.625 17.53125 20.601563 17.53125s14.28125-2.277343 20.601563-17.53125zm-20.601563-58.925781c2.445313 3.550781 6.070313 13.152344 6.070313 27.683594 0 14.535156-3.625 24.128906-6.070313 27.679687-2.445313-3.550781-6.070313-13.152343-6.070313-27.679687 0-14.523438 3.628907-24.132813 6.066407-27.683594zm0 0"/><path d="m288.117188 114.488281c5.453124-.003906 9.894531-4.378906 9.988281-9.832031.089843-5.453125-4.203125-9.972656-9.652344-10.160156l-149.101563-5.109375c-3.582031-.144531-6.964843 1.644531-8.867187 4.683593-1.902344 3.035157-2.035156 6.859376-.34375 10.023438 1.691406 3.160156 4.945313 5.175781 8.527344 5.277344l149.101562 5.113281c.113281.003906.230469.003906.347657.003906zm0 0"/><path d="m402.109375 134.910156h-154c-5.523437 0-10 4.476563-10 10 0 5.523438 4.476563 10 10 10h154c5.523437 0 10-4.476562 10-10 0-5.523437-4.476563-10-10-10zm0 0"/><path d="m383.085938 176.179688h-.1875l-224.671876 4.089843c-5.519531.046875-9.957031 4.566407-9.910156 10.089844.050782 5.519531 4.566406 9.957031 10.089844 9.910156h.183594l224.671875-4.089843c5.523437-.046876 9.960937-4.566407 9.910156-10.089844-.046875-5.519532-4.566406-9.957032-10.085937-9.910156zm0 0"/></g></svg>