<svg height="441pt" viewBox="-25 0 441 441.36" width="441pt" xmlns="http://www.w3.org/2000/svg"><path d="m354.730469 134.660156 24.046875 14.578125c-3.289063-.347656-7.886719 7.273438-10.429688 17.390625-2.589844 10.3125-2.058594 19.339844 1.171875 20.3125v.007813l-42.589843-2.5-1.550782 2.570312-121.261718 214.429688-.117188-.058594c8.097656-14.730469 12.980469-33.789063 12.980469-54.601563 0-46.710937-24.582031-84.570312-54.902344-84.570312-15.9375 0-30.289063 10.472656-40.320313 27.179688l118.089844-203.070313 17.480469-32.929687 5.78125-10.886719c10.050781-19.792969 25.699219-32.511719 43.269531-32.511719 30.320313 0 54.898438 37.859375 54.898438 84.570312.070312 13.636719-2.140625 27.1875-6.546875 40.089844zm0 0" fill="#fedb41"/><path d="m257.328125 53.398438-17.480469 32.929687-118.089844 203.070313c-3.335937 5.617187-6.078124 11.566406-8.179687 17.75-9.230469-26.726563-27.488281-44.929688-48.507813-44.929688-14.859374 0-28.332031 9.082031-38.210937 23.859375l115.988281-199.75 23.261719-43.816406c10.039063-19.792969 25.691406-32.511719 43.257813-32.511719 20.621093 0 38.582031 17.5 47.960937 43.398438zm0 0" fill="#00efd1"/><path d="m113.578125 386.421875c-8.53125-25.734375-8.53125-53.539063 0-79.273437 2.101563-6.183594 4.84375-12.132813 8.179687-17.75 10.03125-16.707032 24.382813-27.179688 40.320313-27.179688 30.320313 0 54.902344 37.859375 54.902344 84.570312 0 20.8125-4.882813 39.871094-12.980469 54.601563-10.0625 18.328125-25.109375 29.96875-41.921875 29.96875-21.019531 0-39.289063-18.199219-48.5-44.9375zm0 0" fill="#d4e1f4"/><path d="m26.859375 286.078125c9.878906-14.777344 23.351563-23.859375 38.210937-23.859375 21.019532 0 39.277344 18.203125 48.507813 44.929688-8.53125 25.734374-8.53125 53.539062 0 79.273437-.070313.226563-.160156.449219-.238281.679687-9.289063 26.359376-27.421875 44.257813-48.269532 44.257813-30.3125 0-54.890624-37.859375-54.890624-84.570313 0-23.820312 6.390624-45.339843 16.679687-60.710937zm0 0" fill="#d4e1f4"/><g fill="#083863"><path d="m391.890625 155.253906c-.628906-10.167968-5.445313-13.878906-9.027344-15.230468l-16.273437-9.863282c3.132812-11.601562 4.707031-23.570312 4.6875-35.589844 0-24.5-6.28125-47.671874-17.691406-65.246093-12.277344-18.910157-29.039063-29.324219-47.207032-29.324219-18.921875 0-36.300781 11.339844-48.515625 31.390625-12.09375-19.746094-29.617187-31.390625-48.496093-31.390625-20.886719 0-39.882813 13.8125-52.132813 37.898438l-23.128906 43.574218-115.824219 199.46875c-11.671875 17.644532-18.101562 41-18.101562 65.847656 0 24.5 6.285156 47.671876 17.691406 65.246094 12.273437 18.910156 29.035156 29.324219 47.199218 29.324219 18.917969 0 36.402344-11.625 48.5-31.40625 12.074219 19.773437 29.539063 31.40625 48.515626 31.40625 19.917968 0 38.367187-12.777344 50.628906-35.054687l.113281.066406 119.640625-211.578125 35.867188 2.101562c.609374.09375 1.226562.140625 1.847656.144531 3.757812 0 8.898437-1.742187 13.550781-9.273437 5.609375-9.902344 8.425781-21.140625 8.152344-32.515625zm-119.949219-108.054687c.027344-.054688.054688-.105469.082032-.160157 8.730468-17.183593 21.246093-27.039062 34.355468-27.039062 24.339844 0 44.898438 34.148438 44.898438 74.570312.003906 8.308594-.875 16.597657-2.625 24.71875l-1.722656-1.042968c-4.722657-2.832032-10.847657-1.3125-13.699219 3.398437-2.851563 4.707031-1.359375 10.835938 3.339843 13.710938l26.613282 16.125c-1.972656 4.058593-3.492188 8.320312-4.53125 12.710937-1.023438 3.925782-1.664063 7.941406-1.914063 11.988282l-40.46875-2.371094c-4.652343-.28125-8.878906 2.695312-10.191406 7.167968-1.308594 4.472657.648437 9.257813 4.71875 11.53125l-83.953125 148.441407c-.917969-22.324219-7.058594-43.234375-17.558594-59.402344-12.273437-18.910156-29.039062-29.324219-47.207031-29.324219-2.511719.003906-5.015625.214844-7.492187.628906l93.90625-161.492187c.066406-.109375.128906-.222656.191406-.335937zm-120.445312 44.152343c.066406-.109374.125-.21875.1875-.332031l23.257812-43.820312.085938-.164063c8.714844-17.183594 21.234375-27.035156 34.339844-27.035156 14.613281 0 28.53125 12.4375 36.984374 32.753906l-15.246093 28.71875-117.535157 202.125c-12.082031-19.753906-29.542968-31.378906-48.5-31.378906-2.453124.003906-4.898437.199219-7.320312.582031zm-86.425782 330.007813c-24.335937 0-44.890624-34.148437-44.890624-74.570313 0-19.308593 4.707031-37.988281 12.992187-51.957031l.128906.074219 2.023438-3.484375c8.347656-12.382813 18.898437-19.203125 29.746093-19.203125 15.253907 0 29.597657 13.386719 37.941407 35.148438-7.777344 25.703124-7.777344 53.132812 0 78.835937-8.332031 21.757813-22.714844 35.15625-37.941407 35.15625zm97.007813 0c-15.96875 0-30.929687-14.636719-39.050781-38.210937-7.753906-23.621094-7.800782-49.097657-.125-72.746094 1.773437-5.542969 4.179687-10.863282 7.167968-15.855469 9-14.1875 20.21875-22.324219 31.875-22.324219 24.339844 0 44.96875 34.148438 44.96875 74.570313 0 18.332031-4.136718 36.011719-11.714843 49.789062-8.644531 15.746094-20.691407 24.777344-33.121094 24.777344zm0 0"/><path d="m238.425781 177.933594c2.308594 1.308594 5.042969 1.644531 7.597657.933594 2.554687-.707032 4.726562-2.40625 6.03125-4.714844l62.628906-110.738282c1.785156-3.113281 1.769531-6.945312-.042969-10.039062-1.816406-3.097656-5.152344-4.980469-8.738281-4.941406-3.589844.039062-6.882813 2-8.628906 5.132812l-62.628907 110.742188c-2.71875 4.804687-1.027343 10.90625 3.78125 13.625zm0 0"/><path d="m292.910156 163.867188c-4.804687-2.71875-10.90625-1.027344-13.625 3.78125l-46.472656 82.179687c-2.71875 4.804687-1.023438 10.90625 3.785156 13.625 4.804688 2.71875 10.90625 1.027344 13.625-3.78125l46.472656-82.179687c2.714844-4.808594 1.023438-10.90625-3.785156-13.625zm0 0"/><path d="m218.910156 212.5625c-4.808594-2.714844-10.910156-1.019531-13.625 3.785156l-13.082031 23.140625c-1.792969 3.113281-1.777344 6.949219.039063 10.046875 1.8125 3.101563 5.152343 4.988282 8.746093 4.945313 3.589844-.042969 6.882813-2.007813 8.625-5.148438l13.082031-23.140625c2.71875-4.808594 1.023438-10.910156-3.785156-13.628906zm0 0"/></g></svg>