<svg height="498pt" viewBox="0 -3 498.0312 498" width="498pt" xmlns="http://www.w3.org/2000/svg"><path d="m385.570312 297.117188 100.960938 184.898437h-67.191406l-66.546875-123.890625.007812-.007812zm0 0" fill="#00acea"/><path d="m191.703125 369.675781 83.648437-155.710937 77.441407 144.160156 66.546875 123.890625h-287.988282zm0 0" fill="#00efd1"/><path d="m386.460938 69.476562c23.253906.003907 42.105468 18.859376 42.101562 42.117188-.003906 23.253906-18.859375 42.105469-42.113281 42.101562-23.257813 0-42.109375-18.855468-42.109375-42.109374 0-23.261719 18.859375-42.117188 42.121094-42.109376zm0 0" fill="#fedb41"/><path d="m192.492188 190.644531c0 2.058594-.238282 4.109375-.710938 6.109375-.453125 1.921875-1.121094 3.78125-1.988281 5.550782l-.011719.011718c-2.546875 4.417969-6.058594 8.210938-10.269531 11.089844-15.691407 11.46875-44.511719 19.148438-77.46875 19.148438-28.992188 0-54.78125-5.9375-71.242188-15.179688-4.734375-2.527344-9.023437-5.816406-12.699219-9.730469l-.011718-.007812c-8.710938-10.574219-10.539063-25.222657-4.695313-37.613281 5.847657-12.386719 18.316407-20.292969 32.015625-20.289063 1.0625 0 2.121094.042969 3.160156.140625 9.835938-23.363281 33.933594-37.410156 59.109376-34.460938 25.175781 2.949219 45.375 22.1875 49.542968 47.191407.160156.980469.296875 1.96875.410156 2.960937 1.535157-.515625 3.113282-.882812 4.71875-1.101562 7.582032-1.070313 15.257813 1.199218 21.039063 6.21875 5.78125 5.023437 9.101563 12.304687 9.101563 19.960937zm0 0" fill="#d4e1f4"/><path d="m135.269531 264.636719 56.433594 105.039062-60.351563 112.339844h-113.832031zm0 0" fill="#00acea"/><g fill="#083863"><path d="m144.082031 260.09375c-1.761719-3.195312-5.144531-5.148438-8.792969-5.078125h-.019531c-3.636719-.074219-7.019531 1.867187-8.792969 5.046875l-117.75 217.285156c-1.675781 3.085938-1.597656 6.832032.210938 9.84375 1.804688 3.015625 5.070312 4.847656 8.582031 4.824219h469.011719c3.53125 0 6.796875-1.863281 8.597656-4.898437 1.800782-3.035157 1.871094-6.796876.179688-9.894532l-100.960938-184.949218c-1.746094-3.222657-5.109375-5.238282-8.777344-5.257813h-.03125c-3.679687.027344-7.050781 2.070313-8.777343 5.316406l-23.96875 44.640625-68.632813-127.753906c-1.742187-3.242188-5.128906-5.261719-8.8125-5.261719-3.679687.003907-7.066406 2.027344-8.804687 5.273438l-74.839844 139.40625zm-8.847656 25.605469 45.113281 83.976562-54.976562 102.339844h-91.058594zm250.40625 32.417969 84.035156 153.898437h-44.355469l-61.175781-113.886719zm-110.289063-83.019532 127.269532 236.917969h-254.546875zm0 0"/><path d="m10.375 213.996094c.105469.128906.21875.257812.332031.382812 4.394531 4.707032 9.53125 8.664063 15.199219 11.714844 18.636719 10.460938 46.386719 16.460938 76.136719 16.460938 34.148437 0 65.316406-7.878907 83.351562-21.0625 5.351563-3.707032 9.8125-8.554688 13.0625-14.191407.109375-.191406.210938-.386719.308594-.582031 1.203125-2.449219 2.125-5.023438 2.753906-7.679688 2.574219-10.914062-.015625-22.410156-7.027343-31.164062-7.007813-8.753906-17.660157-13.796875-28.875-13.667969-7.238282-26.300781-29.710938-45.578125-56.804688-48.734375s-53.398438 10.4375-66.492188 34.367188c-16.976562 1.148437-31.886718 11.695312-38.617187 27.320312-6.734375 15.628906-4.15625 33.710938 6.671875 46.835938zm35.035156-54.261719c.828125 0 1.546875.03125 2.199219.09375 4.355469.421875 8.480469-2.039063 10.175781-6.074219 8.105469-19.257812 27.960938-30.839844 48.714844-28.414062 20.75 2.421875 37.402344 18.269531 40.851562 38.875.140626.859375.253907 1.683594.339844 2.457031.335938 3.003906 2.011719 5.695313 4.558594 7.320313 2.550781 1.625 5.695312 2.011718 8.5625 1.050781.957031-.320313 1.941406-.546875 2.945312-.679688.753907-.105469 1.519532-.160156 2.285157-.160156 9.078125.007813 16.433593 7.363281 16.449219 16.441406-.003907 1.277344-.148438 2.550781-.441407 3.796875-.261719 1.113282-.640625 2.199219-1.132812 3.230469-1.855469 3.050781-4.347657 5.660156-7.308594 7.65625-14.53125 10.621094-41.957031 17.222656-71.566406 17.222656-26.039063 0-50.839844-5.203125-66.355469-13.902343-3.71875-1.96875-7.097656-4.511719-10.015625-7.539063-1.394531-1.722656-2.554687-3.613281-3.460937-5.632813-3.503907-7.859374-2.789063-16.953124 1.894531-24.171874 4.683593-7.214844 12.703125-11.570313 21.304687-11.570313zm0 0"/><path d="m386.460938 163.695312c28.777343-.003906 52.105468-23.339843 52.101562-52.117187s-23.335938-52.105469-52.113281-52.101563c-28.78125 0-52.109375 23.332032-52.109375 52.109376.035156 28.769531 23.351562 52.082031 52.121094 52.109374zm0-84.21875c17.734374.003907 32.105468 14.382813 32.101562 32.117188-.003906 17.730469-14.382812 32.105469-32.113281 32.101562-17.734375 0-32.109375-14.378906-32.109375-32.109374.019531-17.730469 14.390625-32.097657 32.121094-32.109376zm0 0"/><path d="m376.019531 182.164062v30.992188c0 5.523438 4.480469 10 10 10 5.523438 0 10-4.476562 10-10v-30.992188c0-5.519531-4.476562-10-10-10-5.519531 0-10 4.480469-10 10zm0 0"/><path d="m386.019531 51.003906c5.523438 0 10-4.476562 10-10v-30.988281c0-5.523437-4.476562-10-10-10-5.519531 0-10 4.476563-10 10v30.988281c0 5.523438 4.480469 10 10 10zm0 0"/><path d="m284.890625 122.015625h30.992187c5.519532 0 10-4.476563 10-10s-4.480468-10-10-10h-30.992187c-5.523437 0-10 4.476563-10 10s4.476563 10 10 10zm0 0"/><path d="m488.03125 102.015625h-31c-5.523438 0-10 4.476563-10 10s4.476562 10 10 10h31c5.523438 0 10-4.476563 10-10s-4.476562-10-10-10zm0 0"/><path d="m329.730469 154.175781-21.691407 21.6875c-2.542968 2.523438-3.542968 6.214844-2.621093 9.675781.921875 3.464844 3.625 6.167969 7.089843 7.089844 3.460938.921875 7.152344-.078125 9.675782-2.621094l21.691406-21.691406c3.902344-3.90625 3.902344-10.238281-.003906-14.140625-3.902344-3.90625-10.234375-3.90625-14.140625 0zm0 0"/><path d="m436.109375 71.925781c2.65625.003907 5.199219-1.050781 7.074219-2.929687l21.691406-21.6875c3.902344-3.90625 3.902344-10.238282 0-14.144532-3.90625-3.90625-10.238281-3.90625-14.144531 0l-21.691407 21.691407c-2.859374 2.859375-3.714843 7.160156-2.167968 10.898437 1.550781 3.734375 5.195312 6.171875 9.238281 6.171875zm0 0"/><path d="m329.730469 68.996094c3.90625 3.90625 10.238281 3.90625 14.140625 0 3.90625-3.902344 3.90625-10.234375.003906-14.140625l-21.691406-21.691407c-3.90625-3.90625-10.238282-3.90625-14.144532 0s-3.90625 10.238282 0 14.144532zm0 0"/><path d="m427.203125 152.324219c-3.90625 3.902343-3.90625 10.234375 0 14.140625l23.527344 23.539062c3.90625 3.90625 10.238281 3.910156 14.144531.003906s3.90625-10.234374.003906-14.140624l-23.53125-23.542969c-3.90625-3.90625-10.238281-3.90625-14.144531 0zm0 0"/></g></svg>