<svg height="494pt" viewBox="0 -13 494.65868 494" width="494pt" xmlns="http://www.w3.org/2000/svg"><path d="m395.261719 293.820312 89.398437 163.71875h-59.5l-58.929687-109.699218.019531-.011719zm0 0" fill="#00acea"/><path d="m366.230469 347.839844 58.929687 109.699218h-254.992187l127.5-237.351562zm0 0" fill="#00efd1"/><path d="m358.449219 63.371094c20.753906-.003906 37.578125 16.816406 37.582031 37.566406 0 20.753906-16.820312 37.578125-37.570312 37.582031-20.753907.003907-37.578126-16.816406-37.582032-37.570312 0-20.75 16.820313-37.574219 37.570313-37.578125zm0 0" fill="#fedb41"/><path d="m213.519531 108.179688c.011719 3.667968-.828125 7.289062-2.449219 10.578124l-.011718.011719c-2.3125 4.007813-5.492188 7.449219-9.308594 10.070313-14.238281 10.398437-40.398438 17.371094-70.300781 17.371094-26.300781 0-49.710938-5.390626-64.648438-13.773438-4.296875-2.300781-8.191406-5.285156-11.53125-8.839844-7.902343-9.59375-9.5625-22.886718-4.257812-34.128906 5.300781-11.246094 16.617187-18.417969 29.046875-18.417969.960937 0 1.921875.039063 2.859375.128907 8.929687-21.199219 30.792969-33.945313 53.640625-31.269532 22.847656 2.675782 41.175781 20.128906 44.960937 42.820313.148438.890625.269531 1.789062.371094 2.6875 1.390625-.464844 2.824219-.800781 4.277344-1 1.113281-.160157 2.238281-.238281 3.363281-.238281 13.25.003906 23.988281 10.75 23.988281 24zm0 0" fill="#d4e1f4"/><path d="m83.339844 414.949219h-73.339844l73.339844-251.25 73.328125 251.25zm0 0" fill="#3bb54a"/><g fill="#083863"><path d="m404.035156 288.796875c-1.726562-3.265625-5.082031-5.34375-8.773437-5.4375h-.03125c-3.707031.101563-7.070313 2.207031-8.777344 5.5l-20.210937 37.746094-59.757813-111.199219c-1.753906-3.238281-5.144531-5.25-8.824219-5.242188-3.679687.011719-7.058594 2.039063-8.796875 5.285157l-127.503906 237.351562c-1.660156 3.078125-1.570313 6.804688.242187 9.800781 1.808594 2.992188 5.070313 4.800782 8.566407 4.757813h314.492187c3.515625.035156 6.789063-1.792969 8.601563-4.808594 1.796875-3.058593 1.863281-6.839843.171875-9.964843zm-106.367187-47.566406 59.753906 111.203125 51.015625 94.925781h-221.542969zm133.472656 206.128906-53.550781-99.601563 17.738281-33.074218 72.476563 132.675781zm0 0"/><path d="m47.566406 129.976562c.085938.101563.171875.199219.257813.300782 4.070312 4.371094 8.828125 8.046875 14.082031 10.882812 17.050781 9.5625 42.402344 15.046875 69.542969 15.046875 31.171875 0 59.65625-7.210937 76.207031-19.300781 4.945312-3.445312 9.070312-7.9375 12.082031-13.160156.109375-.191406.214844-.386719.3125-.585938 5.140625-10.488281 4.539063-22.882812-1.59375-32.824218-6.132812-9.941407-16.941406-16.042969-28.621093-16.15625-6.890626-23.933594-27.5-41.375-52.242188-44.21875-24.746094-2.84375-48.769531 9.472656-60.910156 31.21875-15.652344 1.246093-29.3125 11.101562-35.433594 25.5625-6.121094 14.460937-3.683594 31.125 6.316406 43.230468zm32.492188-48.925781c.679687 0 1.324218.027344 1.910156.082031 4.351562.417969 8.46875-2.042968 10.167969-6.070312 7.199219-17.097656 24.835937-27.378906 43.261719-25.21875 18.429687 2.160156 33.210937 16.238281 36.257812 34.542969.113281.652343.203125 1.351562.292969 2.132812.332031 3 2.003906 5.691407 4.546875 7.320313 2.542968 1.628906 5.6875 2.019531 8.554687 1.066406.832031-.277344 1.6875-.476562 2.558594-.589844.636719-.09375 1.277344-.136718 1.921875-.136718 7.722656.011718 13.984375 6.273437 13.988281 14 .011719 2.0625-.441406 4.101562-1.328125 5.96875-1.621094 2.628906-3.78125 4.882812-6.339844 6.613281-13.042968 9.53125-37.722656 15.449219-64.398437 15.449219-23.476563 0-45.8125-4.671876-59.757813-12.492188-3.28125-1.742188-6.265624-3.984375-8.84375-6.648438-5.355468-6.632812-6.421874-15.746093-2.75-23.433593 3.675782-7.691407 11.4375-12.585938 19.957032-12.585938zm0 0"/><path d="m358.449219 148.519531c26.277343.003907 47.578125-21.296875 47.582031-47.574219 0-26.277343-21.300781-47.578124-47.578125-47.574218-26.277344 0-47.574219 21.300781-47.574219 47.578125.03125 26.261719 21.3125 47.539062 47.570313 47.570312zm0-75.148437c15.230469-.003906 27.578125 12.339844 27.582031 27.566406 0 15.230469-12.34375 27.578125-27.570312 27.582031-15.230469.003907-27.578126-12.339843-27.582032-27.570312.015625-15.222657 12.347656-27.558594 27.570313-27.578125zm0 0"/><path d="m348.328125 163.917969v27.652343c0 5.523438 4.480469 10 10 10 5.523437 0 10-4.476562 10-10v-27.652343c0-5.519531-4.476563-10-10-10-5.519531 0-10 4.480469-10 10zm0 0"/><path d="m358.328125 47.980469c5.523437 0 10-4.476563 10-10v-27.652344c0-5.523437-4.476563-10-10-10-5.519531 0-10 4.476563-10 10v27.652344c0 5.523437 4.480469 10 10 10zm0 0"/><path d="m267.828125 111.359375h27.652344c5.523437 0 10-4.476563 10-10s-4.476563-10-10-10h-27.652344c-5.519531 0-10 4.476563-10 10s4.480469 10 10 10zm0 0"/><path d="m411.417969 101.359375c0 5.523437 4.480469 10 10 10h27.652343c5.523438 0 10-4.476563 10-10s-4.476562-10-10-10h-27.652343c-5.519531 0-10 4.476563-10 10zm0 0"/><path d="m307.078125 138.179688-19.347656 19.347656c-3.90625 3.90625-3.90625 10.238281 0 14.144531s10.238281 3.90625 14.140625 0l19.351562-19.351563c3.90625-3.90625 3.90625-10.238281 0-14.140624-3.90625-3.90625-10.238281-3.90625-14.140625 0zm0 0"/><path d="m402.75 66.648438c2.652344.003906 5.195312-1.050782 7.070312-2.929688l19.363282-19.359375c3.902344-3.90625 3.902344-10.238281-.003906-14.140625-3.902344-3.90625-10.234376-3.90625-14.140626 0l-19.359374 19.359375c-2.863282 2.859375-3.71875 7.160156-2.167969 10.898437 1.546875 3.738282 5.191406 6.171876 9.238281 6.171876zm0 0"/><path d="m307.078125 63.71875c2.519531 2.546875 6.210937 3.546875 9.675781 2.625 3.460938-.921875 6.167969-3.625 7.089844-7.085938.921875-3.460937-.074219-7.152343-2.621094-9.675781l-19.351562-19.363281c-2.511719-2.589844-6.226563-3.625-9.714844-2.707031-3.492188.914062-6.21875 3.640625-7.136719 7.128906-.914062 3.492187.121094 7.207031 2.710938 9.71875zm0 0"/><path d="m394.039062 136.539062c-3.90625 3.90625-3.90625 10.238282 0 14.144532l21 20.988281c3.90625 3.90625 10.238282 3.902344 14.140626-.003906 3.90625-3.90625 3.902343-10.238281-.003907-14.140625l-21-20.992188c-3.90625-3.902344-10.234375-3.898437-14.136719.003906zm0 0"/><path d="m73.328125 458.390625c0 5.523437 4.480469 10 10 10 5.523437 0 10-4.476563 10-10v-33.03125h63.339844c3.175781-.09375 6.128906-1.648437 8.003906-4.210937 1.875-2.558594 2.464844-5.84375 1.597656-8.898438l-73.328125-251.300781c-1.238281-4.269531-5.140625-7.210938-9.585937-7.21875-4.445313-.007813-8.363281 2.917969-9.617188 7.179687l-73.339843 251.242188c-.878907 3.085937-.289063 6.40625 1.601562 9 1.867188 2.570312 4.824219 4.121094 8 4.199218h63.328125zm10.011719-258.589844 59.988281 205.558594h-50v-13.574219l18.039063-11.25c4.6875-2.925781 6.113281-9.09375 3.191406-13.78125-2.925782-4.683594-9.09375-6.113281-13.777344-3.1875l-7.453125 4.644532v-49.261719c0-5.523438-4.476563-10-10-10-5.519531 0-10 4.476562-10 10v25.265625c-4.257813-3.328125-10.394531-2.664063-13.847656 1.492187-3.453125 4.160157-2.976563 10.3125 1.078125 13.890625l12.769531 10.761719v35h-49.992187zm0 0"/></g></svg>