<svg height="488pt" viewBox="0 -30 488.9991 488" width="488pt" xmlns="http://www.w3.org/2000/svg"><path d="m390.445312 254.570312 88.558594 163.507813h-113.828125l-60.351562-112.347656 31.03125-57.75c14.339843 4.1875 31.609375 6.640625 50.199219 6.640625 1.46875 0 2.929687-.023438 4.390624-.050782zm0 0" fill="#00acea"/><path d="m335.855469 247.980469c-7.316407-2.050781-14.375-4.914063-21.050781-8.539063-4.734376-2.539062-9.023438-5.828125-12.699219-9.742187-8.710938-10.574219-10.542969-25.222657-4.695313-37.613281 5.84375-12.390626 18.3125-20.296876 32.015625-20.296876 1.058594 0 2.109375.050782 3.148438.140626 9.839843-23.359376 33.9375-37.402344 59.113281-34.453126 25.175781 2.949219 45.371094 22.179688 49.546875 47.183594.160156.980469.289063 1.96875.410156 2.96875 1.53125-.511718 3.109375-.886718 4.710938-1.109375 7.582031-1.070312 15.257812 1.199219 21.039062 6.222657 5.785157 5.023437 9.101563 12.308593 9.101563 19.96875.003906 2.054687-.234375 4.105468-.710938 6.109374-.449218 1.917969-1.117187 3.773438-1.992187 5.539063 0 .011719 0 .011719-.007813.011719-2.546875 4.417968-6.054687 8.210937-10.261718 11.097656-15 10.949219-41.96875 18.460938-73.078126 19.101562-1.460937.027344-2.921874.050782-4.390624.050782-18.589844 0-35.859376-2.453125-50.199219-6.640625zm0 0" fill="#d4e1f4"/><path d="m304.824219 305.730469 60.351562 112.347656h-287.980469l66.550782-123.898437 77.4375-144.160157zm0 0" fill="#00efd1"/><path d="m151.496094 69.960938c23.257812-.003907 42.117187 18.847656 42.117187 42.109374.003907 23.257813-18.847656 42.117188-42.109375 42.121094-23.257812 0-42.117187-18.851562-42.121094-42.113281.003907-23.257813 18.855469-42.113281 42.113282-42.117187zm0 0" fill="#fedb41"/><path d="m143.746094 294.179688-66.550782 123.898437h-67.191406l100.960938-184.898437 32.769531 60.988281zm0 0" fill="#00acea"/><g fill="#083863"><path d="m406.71875 263.621094c25.746094-2.515625 48.476562-9.691406 62.707031-20.078125 5.332031-3.710938 9.777344-8.550781 13.023438-14.175781.144531-.246094.277343-.5.402343-.761719 1.160157-2.378907 2.054688-4.878907 2.660157-7.457031 2.570312-10.847657.042969-22.273438-6.867188-31.023438-6.910156-8.75-17.441406-13.855469-28.589843-13.867188-.144532 0-.285157 0-.429688 0-7.246094-26.292968-29.714844-45.566406-56.808594-48.722656-27.09375-3.160156-53.390625 10.429688-66.492187 34.355469-16.972657 1.152344-31.878907 11.703125-38.609375 27.332031-6.730469 15.625-4.15625 33.703125 6.667968 46.832032.089844.109374.183594.21875.277344.324218 4.410156 4.730469 9.5625 8.710938 15.257813 11.78125 3.726562 2.066406 7.589843 3.886719 11.558593 5.449219l-16.652343 30.988281-74.832031-139.308594c-1.742188-3.242187-5.125-5.265624-8.808594-5.265624s-7.066406 2.023437-8.808594 5.265624l-68.632812 127.769532-23.96875-44.609375c-1.738282-3.234375-5.105469-5.253907-8.773438-5.265625-3.671875-.011719-7.054688 1.984375-8.8125 5.207031l-100.960938 184.898437c-1.691406 3.125-1.628906 6.90625.164063 9.972657 1.792969 3.066406 5.0625 4.972656 8.613281 5.027343h469c3.539063-.046874 6.796875-1.9375 8.59375-4.988281 1.792969-3.046875 1.871094-6.8125.199219-9.929687zm-97.03125-40.445313c-6.164062-7.609375-7.402344-18.082031-3.1875-26.917969 4.214844-8.839843 13.132812-14.46875 22.925781-14.46875.730469 0 1.5.035157 2.285157.101563 4.320312.371094 8.390624-2.082031 10.078124-6.078125 8.109376-19.25 27.960938-30.828125 48.710938-28.410156 20.746094 2.421875 37.402344 18.257812 40.863281 38.859375.136719.84375.246094 1.699219.351563 2.558593.359375 2.988282 2.046875 5.65625 4.59375 7.261719 2.546875 1.609375 5.679687 1.980469 8.53125 1.019531.945312-.316406 1.914062-.542968 2.902344-.683593.765624-.105469 1.535156-.160157 2.308593-.160157 5.035157.007813 9.792969 2.320313 12.910157 6.277344 3.113281 3.957032 4.25 9.121094 3.078124 14.019532-.253906 1.09375-.628906 2.15625-1.113281 3.164062-1.851562 3.054688-4.34375 5.671875-7.300781 7.671875-13.730469 10.023437-39.550781 16.605469-67.390625 17.179687-1.390625.027344-2.78125.046876-4.179687.046876-17.039063 0-33.425782-2.15625-47.402344-6.238282h-.007813c-6.582031-1.835937-12.941406-4.40625-18.953125-7.660156-3.710937-1.976562-7.085937-4.519531-10.003906-7.542969zm-198.792969 31.101563 21.5 40.0625-61.179687 113.949218h-44.355469zm101.03125 154.011718h-118.007812l127.265625-236.925781 127.269531 236.925781zm159.226563 0-54.976563-102.453124 24.761719-46.136719c14.292969 3.285156 28.90625 4.976562 43.570312 5.039062l77.707032 143.550781zm0 0"/><path d="m151.496094 164.191406c28.78125 0 52.117187-23.332031 52.117187-52.113281 0-28.785156-23.332031-52.121094-52.117187-52.117187-28.78125 0-52.113282 23.335937-52.113282 52.117187.035157 28.765625 23.347657 52.074219 52.113282 52.113281zm0-84.230468c17.734375-.003907 32.117187 14.371093 32.117187 32.109374.003907 17.734376-14.371093 32.117188-32.109375 32.121094-17.734375 0-32.117187-14.375-32.121094-32.113281.019532-17.726563 14.382813-32.09375 32.113282-32.117187zm0 0"/><path d="m141.503906 182.648438v31c0 5.523437 4.476563 10 10 10 5.523438 0 10-4.476563 10-10v-31c0-5.523438-4.476562-10-10-10-5.523437 0-10 4.476562-10 10zm0 0"/><path d="m151.503906 51.5c5.523438 0 10-4.476562 10-10v-31c0-5.523438-4.476562-10-10-10-5.523437 0-10 4.476562-10 10v31c0 5.523438 4.476563 10 10 10zm0 0"/><path d="m49.925781 122.289062h31c5.519531 0 10-4.476562 10-10 0-5.523437-4.480469-10-10-10h-31c-5.523437 0-10 4.476563-10 10 0 5.523438 4.476563 10 10 10zm0 0"/><path d="m212.074219 112.289062c0 5.523438 4.476562 10 10 10h30.988281c5.523438 0 10-4.476562 10-10 0-5.523437-4.476562-10-10-10h-30.988281c-5.523438 0-10 4.476563-10 10zm0 0"/><path d="m94.773438 154.660156-21.691407 21.6875c-3.875 3.910156-3.859375 10.21875.03125 14.113282 3.894531 3.890624 10.203125 3.90625 14.113281.027343l21.6875-21.6875c3.878907-3.910156 3.863282-10.21875-.03125-14.113281-3.890624-3.890625-10.199218-3.90625-14.109374-.03125zm0 0"/><path d="m201.152344 72.417969c2.65625.003906 5.199218-1.050781 7.074218-2.925781l21.6875-21.691407c3.878907-3.910156 3.863282-10.21875-.03125-14.113281-3.890624-3.890625-10.199218-3.90625-14.109374-.027344l-21.691407 21.6875c-2.859375 2.859375-3.714843 7.160156-2.167969 10.898438 1.550782 3.738281 5.195313 6.171875 9.238282 6.171875zm0 0"/><path d="m94.773438 69.488281c3.910156 3.878907 10.21875 3.863281 14.109374-.03125 3.894532-3.890625 3.910157-10.199219.03125-14.109375l-21.6875-21.6875c-3.90625-3.90625-10.238281-3.90625-14.144531-.003906-3.902343 3.90625-3.902343 10.238281 0 14.144531zm0 0"/></g></svg>