<svg height="452pt" viewBox="-2 0 452 452" width="452pt" xmlns="http://www.w3.org/2000/svg"><path d="m399.929688 252.570312 38.96875 118h-266.808594l30-72.46875 18.851562-45.53125zm0 0" fill="#3bb54a"/><path d="m215.238281 201.011719 31.660157-68.550781h116.601562l56.070312 120.109374h-228.148437l16.707031-36.179687 4.371094-9.460937zm0 0" fill="#b1d56e"/><path d="m307.238281 10.261719 76.292969 122.199219h-156.070312zm0 0" fill="#3bb54a"/><path d="m283.300781 370.570312h44.390625v71.058594h-44.390625zm0 0" fill="#4b5d63"/><path d="m255.308594 370.679688 5.640625 17.082031h-202.71875l37.121093-89.660157h106.738282l-30 72.46875h83.21875zm0 0" fill="#3bb54a"/><path d="m220.941406 252.570312-18.851562 45.53125h-129.167969l42.148437-91.261718h88.601563l4.457031 9.550781-16.707031 36.179687zm0 0" fill="#b1d56e"/><path d="m119.320312 177.71875 35.230469-53.957031 6.371094-9.761719 54.316406 87.011719-2.738281 5.917969-.191406-.089844h-112.007813zm0 0" fill="#3bb54a"/><path d="m142.730469 387.761719h33.730469v53.976562h-33.730469zm0 0" fill="#4b5d63"/><path d="m154.550781 123.761719-35.230469 53.957031c-21.648437 5.90625-44.523437-3.78125-55.347656-23.4375-10.820312-19.65625-6.773437-44.167969 9.792969-59.300781 16.566406-15.132813 41.34375-16.953125 59.945313-4.402344 11.355468 7.589844 18.9375 19.660156 20.839843 33.183594zm0 0" fill="#fedb41"/><g fill="#083863"><path d="m413.761719 263h5.808593c3.449219-.085938 6.625-1.90625 8.4375-4.84375 1.835938-3.007812 2.070313-6.726562.625-9.9375l-49.429687-106.21875h4.328125c3.601562.105469 6.964844-1.785156 8.742188-4.921875 1.777343-3.132813 1.679687-6.992187-.261719-10.027344l-76.289063-122.273437c-1.789062-2.925782-4.953125-4.730469-8.378906-4.777344h-.101562c-3.398438.0507812-6.542969 1.800781-8.375 4.664062l-79.777344 122.265626c-2.007813 3-2.171875 6.871093-.421875 10.027343 1.769531 3.179688 5.152343 5.121094 8.792969 5.042969h3.804687l-17.34375 37.78125-44.519531-71.191406c-2.226563-3.625-6.546875-5.386719-10.671875-4.355469-12.707031-24.984375-41.320313-37.480469-68.285157-29.828125-26.964843 7.652344-44.742187 33.316406-42.433593 61.253906 2.308593 27.933594 24.0625 50.328125 51.917969 53.449219l-8.003907 12.261719c-1.929687 2.945312-2.164062 6.6875-.617187 9.851562 1.542968 3.160156 4.644531 5.273438 8.152344 5.558594l-35.617188 77.125c-1.429688 3.085938-1.179688 6.6875.660156 9.542969 1.839844 2.859375 5.015625 4.574219 8.417969 4.550781h7.464844l-31.398438 75.886719c-1.277343 3.132812-.929687 6.695312.925781 9.523437 1.839844 2.816406 4.953126 4.535156 8.316407 4.589844h74.21875v43.738281c.113281 5.628907 4.652343 10.160157 10.28125 10.261719h33.730469c5.570312-.125 10.015624-4.6875 9.988281-10.261719v-43.738281h74.5c3.226562-.046875 6.234375-1.632812 8.101562-4.261719 1.878907-2.542969 2.402344-5.839843 1.398438-8.839843l-1.339844-3.898438h4.339844v60.628906c0 5.523438 4.328125 10.371094 9.851562 10.371094h44.390625c5.523438 0 9.757813-4.847656 9.757813-10.371094v-60.628906h101.449219c3.242187-.085938 6.25-1.699219 8.105468-4.355469 1.878906-2.5625 2.398438-5.875 1.390625-8.886719zm-106.710938-234.617188 58.449219 93.617188h-119.570312zm50.082031 113.617188 46.734376 101h-196.816407l46.242188-101zm-156.28125 55h-82.074218l41.953125-64.257812zm-115.886718-34.054688c-14.34375-9.609374-20.570313-27.570312-15.246094-43.996093 5.320312-16.425781 20.898438-27.324219 38.152344-26.695313s31.996094 12.632813 36.105468 29.402344l-30.816406 47.199219c-9.808594 1.761719-19.917968-.355469-28.195312-5.910157zm36.5 54.054688h75.445312l-14.566406 31.457031c-1.433594 3.15625-1.1875 6.820313.652344 9.757813 1.816406 2.914062 4.988281 4.714844 8.425781 4.785156h14.554687l-10.570312 25h-106.855469zm-19.433594 91h85.101562l-24.28125 58.699219c-1.277343 3.136719-.933593 6.699219.921876 9.527343.527343.539063.992187 1.132813 1.386718 1.773438h-91.96875zm64.417969 124h-14v-34h14zm151 0h-24v-51h24zm-130.398438-71 40.570313-98h165.082031l32.363281 98zm0 0"/><path d="m50.128906 92.25c3.035156-4.613281 1.75-10.816406-2.867187-13.851562l-16.652344-10.9375c-2.984375-1.976563-6.796875-2.203126-10-.597657-3.199219 1.605469-5.296875 4.796875-5.5 8.371094-.203125 3.578125 1.519531 6.988281 4.519531 8.941406l16.648438 10.941407c4.617187 3.03125 10.816406 1.75 13.851562-2.867188zm0 0"/><path d="m59.125 220.082031 14.179688-14.738281c3.773437-3.988281 3.625-10.273438-.328126-14.078125-3.957031-3.808594-10.242187-3.710937-14.082031.210937l-14.179687 14.742188c-2.511719 2.566406-3.457032 6.285156-2.46875 9.738281.988281 3.457031 3.75 6.113281 7.242187 6.96875 3.488281.851563 7.167969-.234375 9.636719-2.84375zm0 0"/><path d="m151.390625 77.941406c3.558594.003906 6.851563-1.882812 8.644531-4.957031l11.050782-18.910156c2.753906-4.765625 1.140624-10.863281-3.613282-13.640625s-10.859375-1.1875-13.65625 3.550781l-11.050781 18.914063c-1.804687 3.09375-1.824219 6.914062-.042969 10.019531s5.085938 5.023437 8.667969 5.027343zm0 0"/><path d="m86.496094 24.101562c-5.453125.875-9.164063 6.003907-8.289063 11.457032l3.148438 19.640625c.875 5.453125 6.003906 9.164062 11.457031 8.289062s9.167969-6.003906 8.292969-11.457031l-3.152344-19.640625c-.875-5.453125-6.003906-9.164063-11.457031-8.289063zm0 0"/><path d="m25.238281 135.984375-17.558593 4.1875c-5.371094 1.28125-8.6875 6.675781-7.40625 12.050781 1.28125 5.371094 6.675781 8.6875 12.046874 7.40625l17.5625-4.191406c5.371094-1.28125 8.6875-6.675781 7.40625-12.050781-1.285156-5.371094-6.679687-8.6875-12.050781-7.402344zm0 0"/></g></svg>