<svg height="461pt" viewBox="-121 0 461 461.75" width="461pt" xmlns="http://www.w3.org/2000/svg"><path d="m210.15625 266.511719-6.492188 40h-186.289062l-.5.078125-6.5-40.078125zm0 0" fill="#00acea"/><path d="m203.664062 306.511719-23.507812 144.988281h-139.78125l-23.5-144.910156.5-.078125zm0 0" fill="#00efd1"/><path d="m196.265625 132v49.5c0 24.808594-18.691406 46.25-43.5 46.25h-29.5v38.761719h-30v-113.761719h-26.5c-24.8125 0-46.5-21.441406-46.5-46.25v-49.5c0-8.285156 6.714844-15 15-15s15 6.714844 15 15v49.5c0 8.269531 8.230469 16.25 16.5 16.25h26.5v-97.75c0-8.285156 6.714844-15 15-15s15 6.714844 15 15v172.75h29.5c8.269531 0 13.5-7.980469 13.5-16.25v-49.5c0-8.285156 6.714844-15 15-15s15 6.714844 15 15zm0 0" fill="#b1d56e"/><path d="m30.503906 453.226562c.773438 4.867188 4.941406 8.46875 9.871094 8.523438h139.78125c4.925781-.054688 9.097656-3.65625 9.871094-8.523438l30-185.050781c.46875-2.867187-.359375-5.796875-2.257813-7.996093-1.910156-2.207032-4.695312-3.460938-7.613281-3.429688h-76.890625v-19h19.5c29.5 0 53.5-25.234375 53.5-56.25v-49.5c0-13.808594-11.195313-25-25-25-13.808594 0-25 11.191406-25 25v49.5c0 2.949219-1.5 6.25-3.5 6.25h-19.5v-162.75c0-13.808594-11.195313-25-25-25-13.808594 0-25 11.191406-25 25v87.75h-16.5c-2.796875 0-6.5-3.5625-6.5-6.25v-49.5c0-13.808594-11.195313-25-25-25-13.808594 0-25 11.191406-25 25v49.5c.632813 30.898438 25.601563 55.753906 56.5 56.25h16.5v94h-72.890625c-2.917969-.042969-5.703125 1.199219-7.617188 3.398438-1.898437 2.234374-2.7226558 5.191406-2.253906 8.085937zm141.140625-11.476562h-122.761719l-20.269531-125h163.300781zm-78.378906-299h-26.5c-19.445313 0-36.5-16.9375-36.5-36.25v-49.5c0-2.761719 2.238281-5 5-5s5 2.238281 5 5v49.5c0 13.738281 12.628906 26.25 26.5 26.25h26.5c5.523437 0 10-4.476562 10-10v-97.75c0-2.761719 2.238281-5 5-5s5 2.238281 5 5v172.75c0 5.523438 4.476563 10 10 10h29.5c13.175781 0 23.5-11.53125 23.5-26.25v-49.5c0-2.761719 2.238281-5 5-5s5 2.238281 5 5v49.5c0 19.988281-15.027344 36.25-33.5 36.25h-29.5c-5.523437 0-10 4.476562-10 10v29h-10v-104c0-5.523438-4.476563-10-10-10zm105.136719 134-3.246094 20h-169.785156l-3.246094-20zm0 0" fill="#083863"/></svg>