<svg height="500pt" viewBox="-107 0 500 500.39485" width="500pt" xmlns="http://www.w3.org/2000/svg"><path d="m177.359375 305.792969h99.761719l-6.492188 40h-186.289062l-.5.082031-6.5-40.082031zm0 0" fill="#00acea"/><path d="m270.628906 345.792969-23.507812 144.992187h-139.78125l-23.5-144.910156.5-.082031zm0 0" fill="#00efd1"/><path d="m236.761719 178.921875-1.730469 53.332031c-.476562 16.214844-12.691406 29.667969-28.789062 31.695313-16.09375 2.027343-31.269532-7.972657-35.75-23.5625-4.484376-15.59375 3.0625-32.125 17.777343-38.953125zm0 0" fill="#3bb54a"/><path d="m192.601562 88.433594c.964844 7.367187-1.058593 14.816406-5.621093 20.679687-3.558594 4.65625-8.230469 8.34375-13.589844 10.71875 8.480469 11.332031 9.589844 26.222657 1.648437 36.769531-7.9375 10.550782-22.539062 13.632813-35.777343 8.621094-.792969 5.8125-3.039063 11.328125-6.53125 16.039063-4.367188 6.011719-10.957031 10.023437-18.300781 11.140625-13.089844 1.851562-25.578126-6.308594-31.398438-19.21875-11.332031 8.488281-26.210938 9.601562-36.769531 1.660156-10.5625-7.941406-13.632813-22.550781-8.621094-35.789062-14.011719-2-25.320313-11.75-27.179687-24.832032-1.859376-13.078125 6.308593-25.578125 19.21875-31.390625-8.488282-11.328125-9.597657-26.21875-1.660157-36.777343 7.941407-10.5625 22.550781-13.621094 35.789063-8.613282 2-14.007812 11.75-25.328125 24.832031-27.179687 13.078125-1.847657 25.578125 6.3125 31.398437 19.210937 11.320313-8.480468 26.210938-9.589844 36.769532-1.648437 10.5625 7.9375 13.621094 22.550781 8.613281 35.777343 14.007813 2.011719 25.328125 11.75 27.179687 24.832032zm-66.042968 31.71875c10.289062-13.675782 7.539062-33.101563-6.136719-43.390625-13.679687-10.285157-33.105469-7.535157-43.390625 6.140625-10.289062 13.679687-7.539062 33.105468 6.140625 43.390625 13.675781 10.285156 33.101563 7.535156 43.386719-6.140625zm0 0" fill="#fedb41"/><path d="m169.53125 237.941406c.996094 3.160156 1.5 6.449219 1.5 9.761719-.050781 14.804687-9.964844 27.757813-24.238281 31.675781-14.277344 3.917969-29.414063-2.164062-37.011719-14.867187l-27.292969-45.847657 53.34375-3.722656c15.210938-1.09375 29.175781 8.4375 33.699219 23zm0 0" fill="#b1d56e"/><path d="m120.410156 76.761719c13.679688 10.285156 16.429688 29.710937 6.144532 43.386719-10.285157 13.679687-29.710938 16.429687-43.386719 6.144531-13.675781-10.289063-16.425781-29.714844-6.136719-43.390625 10.285156-13.667969 29.703125-16.417969 43.378906-6.140625zm0 0" fill="#b1d56e"/><g fill="#083863"><path d="m25.621094 146.152344c-1.832032 14.386718 3.46875 28.289062 14.628906 36.683594 11.160156 8.394531 25.984375 9.621093 39.300781 3.867187 7.777344 10.046875 19.15625 15.960937 31.160157 15.960937 1.714843 0 3.429687-.121093 5.128906-.359374 9.660156-1.441407 18.382812-6.578126 24.328125-14.328126 3.015625 5.984376 5.785156 12.019532 8.316406 18.101563-4.363281-1.070313-8.867187-1.445313-13.347656-1.109375l-53.339844 3.71875c-3.464844.242188-6.554687 2.261719-8.167969 5.339844-1.609375 3.078125-1.507812 6.769531.269532 9.753906l27.296874 45.863281c10.105469 17.15625 30.742188 25.023438 49.703126 18.953125 5.941406-1.898437 11.40625-5.054687 16.015624-9.257812.449219 5.46875.675782 11.054687.683594 16.054687h-90.257812c-2.957032.089844-5.730469 1.449219-7.621094 3.722657-1.886719 2.277343-2.707031 5.253906-2.25 8.179687l30 184.84375c.800781 4.8125 4.996094 8.316406 9.871094 8.253906h139.78125c4.867187.085938 9.0625-3.402343 9.871094-8.203125l23.507812-144.898437v.050781l6.492188-39.976562c.46875-2.953126-.351563-5.964844-2.257813-8.269532-1.878906-2.28125-4.65625-3.632812-7.613281-3.703125h-89.53125c-.019532-8.210937-.496094-16.414062-1.421875-24.574219 12.964843 5.273438 27.6875 3.867188 39.421875-3.761718s18.992187-20.515625 19.433594-34.507813l1.730468-53.316406c.109375-3.46875-1.585937-6.746094-4.480468-8.660156-2.894532-1.910157-6.578126-2.1875-9.722657-.726563l-48.453125 22.5c-5.78125 2.648438-10.898437 6.554688-14.980468 11.433594-3.511719-8.925781-7.503907-17.757812-11.96875-26.5 10.265624-1.148438 19.617187-6.441406 25.882812-14.65625 8.398438-11.15625 9.628906-25.992188 3.867188-39.316406 3.042968-2.351563 5.757812-5.101563 8.070312-8.171875 6.164062-7.984375 8.875-18.105469 7.535156-28.101563-1.957031-13.820312-11.574218-25.175781-25.0625-30.523437 1.832032-14.386719-3.464844-28.285157-14.621094-36.675781-11.15625-8.394532-25.988281-9.625-39.300781-3.875-8.878906-11.46875-22.449219-17.558594-36.28125-15.597657-13.828125 1.957031-25.1875 11.570313-30.527343 25.058594-14.386719-1.832031-28.292969 3.464844-36.683594 14.621094-8.386719 11.15625-9.621094 25.988281-3.867188 39.300781-11.472656 8.871094-17.558594 22.449219-15.601562 36.285156 1.957031 13.835938 11.582031 25.183594 25.0625 30.523438zm119.339844 123.339844-.101563.03125c-10.109375 3.222656-21.101563-.984376-26.480469-10.128907l-18.980468-31.890625 37.175781-2.589844c10.589843-.785156 20.316406 5.871094 23.421875 16.027344.691406 2.1875 1.039062 4.464844 1.039062 6.757813-.050781 9.988281-6.546875 18.796875-16.074218 21.792969zm93.648437 210.902343h-122.761719l-20.269531-125h163.300781zm23.511719-145h-169.785156l-3.242188-20h85.941406c.742188 1 1.519532.277344 2.316406.277344.796876 0 1.570313.722656 2.3125-.277344h85.699219zm-69.640625-124.890625 33.757812-15.671875-1.199219 37.074219c-.285156 10.613281-7.886718 19.613281-18.300781 21.675781l-.125.023438c-1.523437.320312-3.078125.480469-4.636719.476562-10.714843-.023437-19.976562-7.5-22.257812-17.972656-2.285156-10.472656 3.023438-21.121094 12.757812-25.605469zm-158.695313-118.550781c2.765625-1.246094 4.820313-3.683594 5.578125-6.621094.757813-2.941406.140625-6.066406-1.679687-8.496093-6.058594-8.085938-6.730469-18.042969-1.667969-24.773438s14.800781-8.84375 24.257813-5.265625c2.839843 1.074219 6.011718.800781 8.625-.742187 2.613281-1.546876 4.386718-4.191407 4.8125-7.199219 1.429687-10 7.992187-17.511719 16.332031-18.691407 8.339843-1.179687 16.730469 4.214844 20.882812 13.421876 1.25 2.765624 3.683594 4.816406 6.621094 5.570312 2.941406.757812 6.0625.140625 8.492187-1.679688 8.082032-6.054687 18.03125-6.71875 24.765626-1.660156 6.730468 5.058594 8.839843 14.800782 5.265624 24.246094-1.074218 2.835938-.800781 6.007812.738282 8.621094 1.542968 2.613281 4.191406 4.386718 7.195312 4.816406 10.003906 1.4375 17.519532 8 18.699219 16.328125.59375 4.746094-.746094 9.53125-3.71875 13.28125-2.542969 3.3125-5.882813 5.929687-9.703125 7.609375-2.765625 1.246094-4.8125 3.683594-5.570312 6.621094-.757813 2.9375-.140626 6.058594 1.679687 8.484375 6.050781 8.09375 6.722656 18.042969 1.660156 24.769531s-14.800781 8.847656-24.246093 5.277344c-2.839844-1.074219-6.015626-.800782-8.628907.742187s-4.382812 4.191407-4.8125 7.199219c-.554687 4.144531-2.144531 8.078125-4.625 11.445312-2.78125 3.875-6.992187 6.484376-11.703125 7.242188-8.335937 1.179688-16.730468-4.214844-20.886718-13.425781-1.246094-2.765625-3.679688-4.816407-6.621094-5.574219-2.9375-.757812-6.0625-.136719-8.488282 1.679688-8.085937 6.058593-18.035156 6.730468-24.765624 1.671874-6.730469-5.058593-8.851563-14.8125-5.277344-24.257812 1.074218-2.839844.804687-6.011719-.742188-8.625-1.542968-2.617188-4.191406-4.386719-7.195312-4.816406-10-1.425782-17.507813-7.992188-18.695313-16.328125-1.183593-8.339844 4.214844-16.730469 13.421875-20.871094zm0 0"/><path d="m77.160156 134.285156c18.089844 13.601563 43.78125 9.960938 57.382813-8.128906 13.601562-18.089844 9.96875-43.78125-8.121094-57.382812-18.085937-13.605469-43.777344-9.972657-57.382813 8.113281-6.59375 8.667969-9.445312 19.613281-7.917968 30.398437 1.523437 10.78125 7.300781 20.507813 16.039062 27.007813zm7.863282-45.371094c6.96875-9.265624 20.125-11.125 29.386718-4.160156 9.265625 6.96875 11.125 20.125 4.160156 29.386719-6.964843 9.265625-20.125 11.128906-29.386718 4.160156-4.480469-3.320312-7.445313-8.300781-8.226563-13.824219-.78125-5.523437.683594-11.128906 4.066407-15.5625zm0 0"/></g></svg>