<svg height="500pt" viewBox="-25 0 500 500.31046" width="500pt" xmlns="http://www.w3.org/2000/svg"><path d="m325.15625 205.210938v-194.902344l-.027344-.109375c.453125-.121094.917969-.1875 1.386719-.199219.984375.0625 1.949219.285156 2.863281.660156 88.71875 40.78125 119.058594 116.359375 109.617188 173.378906-6.300782 38.449219-29.480469 62.980469-59.527344 62.980469-16.890625 0-34.921875-7.960937-52.953125-23.539062-.449219.378906-.910156.757812-1.359375 1.128906zm0 0" fill="#b1d56e"/><path d="m418.898438 316.53125c8.40625 11.113281 7.128906 26.769531-2.972657 36.367188l-67.457031 60.441406c-25.28125 22.640625-57.441406 34.351562-90.25 32.839844l-97.441406-4.890626c-12.582032-.570312-20.441406.140626-32.890625 2.140626l-40.539063 8.019531h-2.742187v-129.757813h1.8125l42.140625-22.011718c22.898437-11.960938 43.4375-17.699219 68.867187-16.71875l64.492188 2.847656c.5-.027344 1.007812-.046875 1.507812-.046875 12.082031 0 22.371094 9.96875 23.679688 22.769531 1.351562 13.328125-6.847657 26.128906-19.378907 28.597656l-47.917968 9.769532c-9.671875 1.972656-14.589844 13.710937-9.589844 22.863281l5.199219 9.5c2.457031 4.714843 7.378906 7.628906 12.699219 7.519531l46.390624-1.679688c17.671876-.726562 34.558594-7.507812 47.820313-19.210937 18.117187-15.789063 44.097656-38.449219 61.679687-53.871094 10.417969-9.191406 26.007813-7.339843 34.519532 3.910157zm0 0" fill="#f7caa5"/><path d="m325.15625 147.640625v76.96875c-17.320312 14.191406-35.117188 21.75-51.300781 21.75-30.046875 0-53.226563-24.53125-59.808594-62.320313-9.449219-56.359374 20.601563-131.609374 109.609375-173.378906.480469-.1875.972656-.339844 1.472656-.460937l.027344.109375zm0 0" fill="#3bb54a"/><path d="m84.605469 451.449219v19.5c.007812 10.867187-8.804688 19.675781-19.667969 19.671875h-35.601562c-10.863282 0-19.667969-8.808594-19.667969-19.671875v-150.550781c0-10.859376 8.808593-19.667969 19.667969-19.667969h35.601562c10.863281 0 19.671875 8.804687 19.667969 19.667969zm0 0" fill="#00acea"/><g fill="#083863"><path d="m333.558594 1.574219-.589844-.25c-2.050781-.832031-4.238281-1.2812502-6.453125-1.324219-1.257813.0078125-2.511719.167969-3.730469.476562-.929687.226563-1.839844.511719-2.726562.855469l-.648438.273438c-93.554687 43.90625-125.285156 124.09375-115.214844 184.148437 7.46875 42.890625 34.8125 70.605469 69.660157 70.605469 13.3125 0 27.34375-4.300781 41.300781-12.539063v45.488282c0 5.523437 4.476562 10 10 10s10-4.476563 10-10v-46.8125c14.886719 9.636718 29.734375 14.523437 44.3125 14.523437 35.054688 0 62.296875-28.011719 69.394531-71.347656 10.039063-60.636719-21.722656-141.082031-115.304687-184.097656zm-59.703125 234.785156c-25.011719 0-44.152344-20.703125-49.945313-53.972656-11.363281-67.769531 35.894532-125.519531 91.246094-156.160157v44.203126l-15.542969-11.292969c-4.46875-3.246094-10.722656-2.253907-13.96875 2.214843-3.246093 4.46875-2.257812 10.722657 2.210938 13.96875l27.300781 19.824219v34.300781l-31.589844-20.046874c-4.664062-2.960938-10.84375-1.578126-13.800781 3.082031-2.960937 4.664062-1.582031 10.84375 3.082031 13.804687l42.308594 26.851563v35.089843l-59.707031-33.121093c-3.128907-1.753907-6.953125-1.703125-10.027344.140625-3.078125 1.839844-4.933594 5.183594-4.867187 8.769531.070312 3.582031 2.050781 6.855469 5.195312 8.578125l69.40625 38.5v8.652344c-14.324219 10.878906-28.53125 16.613281-41.300781 16.613281zm155.273437-53.9375c-5.519531 33.679687-24.546875 54.601563-49.660156 54.601563-13.753906 0-29.03125-6.6875-44.3125-19.34375v-5.394532l71.542969-39.6875c4.800781-2.691406 6.519531-8.757812 3.851562-13.570312s-8.726562-6.566406-13.550781-3.917969l-61.84375 34.300781v-34.921875l44.449219-28.207031c4.664062-2.957031 6.042969-9.136719 3.085937-13.800781-2.960937-4.664063-9.140625-6.042969-13.804687-3.085938l-33.730469 21.410157v-34.101563l29.4375-21.382813c4.46875-3.246093 5.460938-9.5 2.214844-13.96875s-9.5-5.460937-13.96875-2.214843l-17.683594 12.847656v-47.375c76.3125 39.484375 102.414062 106.816406 93.972656 157.8125zm0 0"/><path d="m427.039062 310.679688c-.167968-.265626-.347656-.527344-.535156-.78125-5.722656-7.636719-14.359375-12.550782-23.847656-13.574219-9.1875-.941407-18.347656 2.027343-25.242188 8.179687-17.609374 15.445313-43.25 37.808594-61.699218 53.886719-11.558594 10.097656-26.230469 15.914063-41.566406 16.480469l-46.292969 1.4375h-.027344c-1.453125.101562-2.828125-.640625-3.542969-1.90625-.03125-.0625-.0625 0-.097656-.0625l-5.203125-9.433594c-.945313-1.746094-1.007813-3.84375-.164063-5.640625.53125-1.285156 1.632813-2.238281 2.980469-2.582031l47.855469-9.75c17.253906-3.402344 29.289062-20.710938 27.394531-39.425782-1.878906-18.34375-17.496093-32.535156-35.183593-31.710937l-64.0625-2.832031c-25.910157-1-48.015626 4.339844-73.882813 17.851562l-32.207031 16.613282c-4.90625-10.371094-15.308594-17.023438-26.777344-17.121094h-35.601562c-16.359376 0-29.179688 13.730468-29.179688 30.089844v150.550781c-.0898438 7.785156 2.949219 15.277343 8.4375 20.796875 5.484375 5.519531 12.960938 8.605468 20.742188 8.5625h35.601562c7.785156.046875 15.265625-3.039063 20.757812-8.558594 5.496094-5.519531 8.542969-13.011719 8.460938-20.800781v-10.738281l35.269531-6.933594c11.382813-1.824219 18.664063-2.546875 30.738281-2l97.535157 4.890625c35.515625 1.640625 70.113281-10.929688 97.410156-35.378907l67.476563-60.441406c.074218-.066406.152343-.132812.222656-.199218 13.660156-12.96875 15.53125-34.074219 4.367187-49.242188zm-351.882812 159.960937c0 5.339844-4.328125 9.671875-9.667969 9.667969h-35.660156c-5.339844.003906-9.671875-4.328125-9.671875-9.667969v-150.660156c0-5.339844 4.332031-9.671875 9.671875-9.671875h35.660156c5.339844 0 9.667969 4.332031 9.667969 9.671875zm333.976562-125.082031-67.335937 60.332031c-23.371094 20.929687-52.871094 31.6875-83.078125 30.300781l-97.488281-4.894531c-13.769531-.625-22.566407.269531-34.929688 2.257813-.117187.019531-.460937.039062-.578125.0625l-31.566406 6.203124v-111.125l38.804688-20.152343c22.863281-11.941407 41.480468-16.457031 63.914062-15.59375l64.542969 2.851562c.347656.015625.71875.011719 1.066406-.007812.296875-.019531.625-.03125.929687-.03125 6.90625 0 12.945313 6.054687 13.738282 13.777343.851562 8.398438-4.246094 16.375-11.425782 17.792969l-47.917968 9.769531c-7.582032 1.578126-13.953125 6.695313-17.121094 13.765626-3.507812 7.574218-3.226562 16.359374.757812 23.695312l5.15625 9.417969c4.207032 8.0625 12.632813 13.023437 21.722657 12.800781h.15625l46.433593-1.679688c19.941407-.835937 38.996094-8.480468 53.980469-21.664062 18.417969-16.046875 44.074219-38.425781 61.726563-53.910156 2.730468-2.460938 6.375-3.65625 10.03125-3.292969 3.816406.414063 7.296875 2.367187 9.644531 5.40625l.089844.148437c.164062.265626.34375.527344.535156.78125 5.308594 7.011719 4.539063 16.882813-1.789063 22.988282zm0 0"/></g></svg>