<svg height="486pt" viewBox="-3 0 486 486.56067" width="486pt" xmlns="http://www.w3.org/2000/svg"><path d="m423.996094 212.410156-1.636719-67.171875c-.761719-14.984375 10.390625-27.925781 25.328125-29.378906l23.019531 145.261719c.28125 18.234375-5.316406 36.074218-15.96875 50.878906l-56.351562 68.191406c-5.183594 6.277344-7.742188 14.316406-7.140625 22.4375l1.511718 20.132813-78.460937-37.363281.300781-.636719c-6.222656-30.601563 5.179688-62.109375 29.539063-81.640625l4.472656-3.589844c7.007813-5.613281 12.652344-12.742188 16.507813-20.851562l21.539062-45.21875c6.761719-14.191407 21.699219-22.617188 37.339844-21.050782zm0 0" fill="#f7caa5"/><path d="m392.757812 422.761719 8.828126 4.207031-23.609376 49.589844-108.820312-51.820313 23.621094-49.589843 21.519531 10.25zm0 0" fill="#00acea"/><path d="m239.496094 200.230469v-189.949219l-.386719-.082031c.453125-.121094.917969-.1875 1.386719-.199219.960937.058594 1.902344.277344 2.792968.640625 86.257813 39.648437 115.75 113.140625 106.570313 168.570313-6.121094 37.390624-28.660156 61.238281-57.882813 61.238281-16.410156 0-33.9375-7.730469-51.480468-22.878907-.328125.28125-.667969.558594-1 .828126zm0 0" fill="#b1d56e"/><path d="m239.496094 200.230469v18.167969c-16.9375 13.972656-34.367188 21.410156-50.199219 21.410156-29.210937 0-51.75-23.847656-58.148437-60.597656-9.179688-54.789063 20.027343-127.960938 106.570312-168.570313.453125-.175781.917969-.320313 1.390625-.441406l.386719.082031zm0 0" fill="#3bb54a"/><path d="m88.238281 422.761719 78.460938-37.363281 21.519531-10.25 23.617188 49.589843-108.816407 51.820313-23.613281-49.589844zm0 0" fill="#00acea"/><path d="m56.996094 212.410156c15.644531-1.566406 30.582031 6.859375 37.339844 21.050782l21.542968 45.21875c3.855469 8.109374 9.5 15.238281 16.507813 20.851562l4.472656 3.589844c24.359375 19.53125 35.757813 51.039062 29.539063 81.640625l.300781.636719-78.460938 37.363281 1.507813-20.132813c.605468-8.121094-1.953125-16.160156-7.136719-22.4375l-56.351563-68.191406c-10.652343-14.804688-16.25-32.644531-15.96875-50.878906l23.019532-145.261719c14.382812 1.402344 25.359375 13.488281 25.367187 27.941406 0 .46875-.019531.960938-.039062 1.4375zm0 0" fill="#f7caa5"/><g fill="#083863"><path d="m291.976562 250.449219c34.234376 0 60.828126-27.328125 67.746094-69.605469 9.78125-59.0625-21.136718-137.398438-112.257812-179.289062l-.617188-.257813c-2.023437-.8125-4.171875-1.2539062-6.351562-1.296875-1.273438.0078125-2.539063.171875-3.773438.488281l-.039062.007813c-.855469.21875-1.695313.488281-2.519532.800781l-.695312.296875c-91.085938 42.734375-121.972656 120.832031-112.171875 179.332031 7.285156 41.84375 33.980469 68.882813 68 68.882813 12.972656 0 26.632813-4.175782 40.199219-12.164063v43.636719c0 5.523438 4.480468 10 10 10 5.523437 0 10-4.476562 10-10v-44.5c14.273437 9.070312 28.5 13.667969 42.480468 13.667969zm48.011719-72.855469c-5.335937 32.601562-23.730469 52.855469-48.011719 52.855469-13.175781 0-27.8125-6.347657-42.480468-18.382813v-5.152344l69.101562-38.328124c3.144532-1.722657 5.125-4.996094 5.191406-8.582032.066407-3.582031-1.789062-6.929687-4.863281-8.769531-3.078125-1.839844-6.902343-1.894531-10.027343-.140625l-59.402344 32.949219v-33.363281l42.769531-27.128907c4.609375-2.980469 5.957031-9.121093 3.015625-13.757812s-9.070312-6.03125-13.730469-3.128907l-32.054687 20.335938v-32.535156l28.1875-20.472656c4.46875-3.246094 5.460937-9.5 2.214844-13.96875-3.246094-4.46875-9.5-5.460938-13.96875-2.214844l-16.433594 11.933594v-44.914063c73.511718 38.371094 98.660156 103.441406 90.492187 152.765625zm-150.691406 52.214844c-24.171875 0-42.679687-20.042969-48.285156-52.25-11.015625-65.722656 34.796875-121.742188 88.484375-151.492188v42.632813l-14.992188-10.890625c-2.890625-2.136719-6.703125-2.5625-9.992187-1.109375-3.285157 1.453125-5.542969 4.558593-5.90625 8.132812-.363281 3.578125 1.21875 7.074219 4.144531 9.160157l26.746094 19.425781v32.667969l-30.613282-19.421876c-3.015624-1.945312-6.847656-2.128906-10.035156-.472656s-5.242187 4.894532-5.382812 8.484375c-.136719 3.589844 1.65625 6.980469 4.707031 8.878907l41.324219 26.214843v33.472657l-57.957032-32.148438c-4.828124-2.644531-10.882812-.890625-13.550781 3.921875-2.671875 4.8125-.949219 10.875 3.851563 13.570313l67.65625 37.53125v7.441406c-13.945313 10.640625-27.769532 16.25-40.199219 16.25zm0 0"/><path d="m457.566406 114.296875c-.828125-5.226563-5.585937-8.902344-10.851562-8.390625-20.210938 1.945312-35.328125 19.421875-34.351563 39.699219l1.394531 57.074219c-15.71875 2.210937-29.285156 12.152343-36.128906 26.476562l-21.539062 45.222656c-3.21875 6.742188-7.917969 12.675782-13.742188 17.351563l-4.464844 3.585937c-22.359374 17.839844-35.253906 44.984375-34.960937 73.585938l-5.84375-2.78125c-4.988281-2.375-10.953125-.257813-13.328125 4.726562l-23.621094 49.589844c-2.375 4.988281-.257812 10.953125 4.730469 13.328125l108.820313 51.820313c4.984374 2.375 10.953124.257812 13.328124-4.730469l23.609376-49.589844c2.371093-4.984375.257812-10.949219-4.726563-13.324219l-3.597656-1.714844-1.074219-14.335937c-.421875-5.546875 1.328125-11.046875 4.878906-15.332031l56.351563-68.1875c.140625-.171875.277343-.347656.40625-.53125 11.867187-16.566406 18.121093-36.496094 17.851562-56.875-.007812-.472656-.046875-.945313-.121093-1.410156zm-84.316406 348.933594-90.761719-43.21875 15.015625-31.53125 90.757813 43.214843zm73.558594-157.335938-56.128906 67.925781c-6.847657 8.261719-10.21875 18.859376-9.402344 29.558594l.222656 2.941406-57.785156-27.515624c-3.847656-25.769532 6.316406-51.636719 26.683594-67.886719l4.457031-3.578125c8.179687-6.570313 14.773437-14.894532 19.289062-24.359375l21.542969-45.222657c4.820312-10.089843 15.304688-16.21875 26.457031-15.46875l-30.285156 63.597657c-2.375 4.988281-.257813 10.953125 4.726563 13.328125 4.988281 2.375 10.953124.257812 13.328124-4.726563l35.402344-74.339843c2.375-4.988282.257813-10.953126-4.730468-13.328126-2.191407-1.042968-4.460938-1.914062-6.785157-2.609374l-1.445312-59.214844c0-.089844-.003907-.175782-.011719-.265625-.316406-6.070313 2.441406-11.890625 7.339844-15.488281l21.03125 132.71875c.066406 15.738281-4.796875 31.101562-13.90625 43.933593zm0 0"/><path d="m197.246094 370.851562c-2.375-4.988281-8.34375-7.105468-13.328125-4.730468l-5.84375 2.785156c.292969-28.601562-12.601563-55.742188-34.957031-73.585938l-4.480469-3.597656c-5.824219-4.675781-10.515625-10.605468-13.730469-17.34375l-21.539062-45.214844c-6.84375-14.324218-20.410157-24.269531-36.128907-26.484374l1.398438-57.109376c.023437-.59375.046875-1.195312.046875-1.773437.058594-19.625-14.859375-36.058594-34.402344-37.894531-5.265625-.511719-10.019531 3.164062-10.84375 8.390625l-23.027344 145.261719c-.074218.464843-.113281.9375-.121094 1.410156-.2695308 20.378906 5.984376 40.308594 17.851563 56.875.128906.183594.265625.359375.40625.53125l56.351563 68.1875c3.546874 4.285156 5.296874 9.777344 4.878906 15.320312l-1.078125 14.351563-3.601563 1.714843c-4.984375 2.375-7.097656 8.339844-4.726562 13.324219l23.609375 49.589844c2.375 4.988281 8.34375 7.105469 13.332031 4.730469l108.820312-51.820313c4.984376-2.375 7.101563-8.34375 4.726563-13.328125zm-106.929688 2.96875-56.128906-67.925781c-9.109375-12.832031-13.972656-28.195312-13.910156-43.933593l21.035156-132.734376c4.644531 3.398438 7.382812 8.816407 7.363281 14.574219 0 .332031-.015625.675781-.03125 1.011719v.183594l-1.445312 59.21875c-2.328125.691406-4.59375 1.566406-6.785157 2.605468-4.988281 2.375-7.105468 8.34375-4.730468 13.328126l35.398437 74.339843c2.375 4.988281 8.34375 7.105469 13.332031 4.730469 4.984376-2.375 7.101563-8.34375 4.726563-13.328125l-30.285156-63.601563c11.15625-.746093 21.640625 5.382813 26.457031 15.472657l21.535156 45.21875c4.515625 9.460937 11.105469 17.785156 19.277344 24.347656l4.476562 3.597656c20.367188 16.25 30.53125 42.117188 26.679688 67.882813l-57.785156 27.515625.222656-2.957031c.8125-10.695313-2.558594-21.289063-9.402344-29.546876zm17.429688 89.410157-15.011719-31.535157 78.261719-37.265624 12.492187-5.949219 15.019531 31.53125zm0 0"/></g></svg>