<svg height="501pt" viewBox="0 -74 501.24048 501" width="501pt" xmlns="http://www.w3.org/2000/svg"><path d="m491.242188 215.128906h-32.050782v-.097656c-.007812-89.789062-68.726562-164.632812-158.1875-172.292969-89.457031-7.65625-169.898437 54.421875-185.164062 142.902344-12.804688 3.125-24.601563 9.476563-34.257813 18.449219 5.726563-107.917969 95.167969-193.96875 204.6875-193.96875 113.199219 0 204.972657 92.007812 204.972657 205.007812zm0 0" fill="#fedb41"/><path d="m459.191406 215.03125v.097656h-32.902344c0-77-62.6875-140.058594-140.019531-140.058594-66.9375 0-122.898437 47.179688-136.738281 109.808594-4.988281-.984375-10.058594-1.480468-15.140625-1.480468-6.25-.007813-12.480469.746093-18.550781 2.242187 15.265625-88.480469 95.707031-150.558594 185.164062-142.902344 89.460938 7.660157 158.179688 82.503907 158.1875 172.292969zm0 0" fill="#00efd1"/><path d="m115.839844 185.640625c6.070312-1.496094 12.300781-2.25 18.550781-2.242187 38.023437-.019532 70.480469 27.472656 76.710937 64.980468.21875 1.339844.410157 2.691406.558594 4.0625 2.09375-.707031 4.25-1.214844 6.441406-1.519531 1.671876-.234375 3.359376-.351563 5.050782-.351563 19.945312 0 36.121094 16.171876 36.117187 36.121094 0 2.808594-.324219 5.613282-.96875 8.347656-.621093 2.617188-1.53125 5.160157-2.71875 7.570313l-.011719.011719c-2.878906 5.417968-7.660156 10.519531-14.019531 15.160156-21.441406 15.660156-60.800781 26.148438-105.808593 26.148438-39.601563 0-74.832032-8.121094-97.320313-20.730469-6.464844-3.460938-12.320313-7.953125-17.339844-13.300781l-.011719-.007813c-11.894531-14.441406-14.390624-34.453125-6.40625-51.375 7.984376-16.917969 25.015626-27.714844 43.726563-27.714844 1.449219 0 2.878906.058594 4.308594.191407 9.566406-22.65625 29.265625-39.46875 53.140625-45.351563zm0 0" fill="#d4e1f4"/><path d="m286.269531.121094c-113 0-206.417969 87.304687-214.417969 199.484375-6.164062 6.273437-11.359374 13.425781-15.417968 21.226562-22.234375.714844-42.121094 14.019531-51.269532 34.292969-9.152343 20.273438-5.972656 43.984375 8.195313 61.132812.101563.121094.199219.242188.3125.359376 5.742187 6.144531 12.449219 11.316406 19.859375 15.304687 24.941406 13.988281 62.195312 22.007813 102.210938 22.007813 45.878906 0 87.640624-10.5 111.699218-28.070313 7.59375-5.542969 13.25-11.6875 16.8125-18.277344.101563-.179687.199219-.359375.289063-.542969 1.527343-3.097656 2.699219-6.351562 3.496093-9.707031 3.242188-13.726562.03125-28.179687-8.714843-39.238281-8.75-11.058594-22.074219-17.515625-36.171875-17.523438-1.136719 0-2.273438.042969-3.410156.125-7.183594-29.585937-29.117188-53.371093-58.023438-62.929687 16.5625-54.964844 67.144531-92.613281 124.550781-92.699219 71.695313 0 130.019531 58.347656 130.019531 130.0625 0 5.519532 4.480469 10 10 10h64.953126c5.519531 0 10-4.480468 10-10 0-118.554687-96.4375-215.007812-214.972657-215.007812zm-85.035156 249.878906c.199219 1.242188.359375 2.394531.484375 3.527344.332031 3.011718 2.007812 5.714844 4.5625 7.34375s5.710938 2.011718 8.582031 1.042968c1.503907-.507812 3.046875-.871093 4.617188-1.089843 1.214843-.167969 2.441406-.253907 3.671875-.253907 14.417968.015626 26.101562 11.699219 26.117187 26.121094 0 2.03125-.234375 4.058594-.699219 6.035156-.425781 1.808594-1.046874 3.5625-1.851562 5.238282-2.125 3.984375-5.847656 7.933594-11.066406 11.742187-20.457032 14.941407-58.742188 24.222657-99.910156 24.222657-36.15625 0-70.707032-7.269532-92.425782-19.449219-5.449218-2.902344-10.402344-6.65625-14.667968-11.121094-9.34375-11.480469-11.246094-27.308594-4.894532-40.675781 6.355469-13.367188 19.835938-21.882813 34.636719-21.882813 1.1875 0 2.300781.046875 3.40625.148438 4.335937.394531 8.429687-2.0625 10.121094-6.078125 3.765625-8.894532 9.375-16.886719 16.460937-23.449219 8.425782-7.8125 18.703125-13.34375 29.863282-16.074219 9.617187-2.34375 19.628906-2.566406 29.34375-.65625h.007812c27.613281 5.539063 48.949219 27.539063 53.640625 55.308594zm85.035156-184.929688c-66.902343.085938-125.691406 44.386719-144.21875 108.671876-4.449219-.382813-8.921875-.429688-13.378906-.140626 18.847656-71.589843 83.570313-121.484374 157.597656-121.492187 86.511719 0 157.476563 67.78125 162.609375 153.019531h-12.917968c-5.160157-78.097656-70.328126-140.058594-149.691407-140.058594zm182.652344 140.058594c-5.164063-96.277344-85.109375-173.019531-182.652344-173.019531-86.648437.003906-161.414062 60.792969-179.097656 145.621094-4.578125 1.492187-9.027344 3.359375-13.296875 5.585937 15.53125-94.164062 96.960938-163.234375 192.394531-163.195312 104.15625 0 189.5 82.109375 194.71875 185.007812zm0 0" fill="#083863"/></svg>