<svg height="471pt" viewBox="0 -50 471.06422 471" width="471pt" xmlns="http://www.w3.org/2000/svg"><path d="m388.359375 75.285156 72.699219 186.007813-45.667969 80.191406-67.011719-165.320313zm0 0" fill="#00efd1"/><path d="m348.378906 176.164062 67.011719 165.320313-106.730469 20.25-43.039062-117.339844zm0 0" fill="#00acea"/><path d="m388.359375 75.285156-39.980469 100.878906-82.757812 68.230469-27.191406-74.101562 39.300781-100.570313zm0 0" fill="#fedb41"/><path d="m265.621094 244.394531 43.039062 117.339844-210.960937-29.570313 68.3125-80.03125 72.417969-81.839843zm0 0" fill="#fedb41"/><path d="m124.261719 111.054688-43.882813 115.847656 85.632813 25.230468-68.3125 80.03125-87.699219-76.941406 12.269531-209.488281 113.371094-3.289063c24.898437-5.921874 75.320313-32.410156 75.320313-32.410156l66.769531 59.6875-39.300781 100.570313zm0 0" fill="#00efd1"/><path d="m238.429688 170.292969-72.417969 81.839843-85.632813-25.230468 43.882813-115.847656zm0 0" fill="#00acea"/><path d="m397.675781 71.644531c-.015625-.039062-.039062-.074219-.054687-.109375-.160156-.398437-.34375-.789062-.554688-1.160156-.03125-.058594-.066406-.113281-.097656-.167969-.195312-.324219-.402344-.636719-.628906-.9375-.054688-.074219-.109375-.144531-.164063-.21875-.269531-.335937-.558593-.660156-.867187-.960937-.023438-.019532-.046875-.039063-.066406-.058594-.292969-.273438-.597657-.53125-.921876-.765625-.074218-.054687-.148437-.113281-.226562-.164063-.339844-.242187-.695312-.464843-1.066406-.660156-.011719-.003906-.019532-.015625-.03125-.019531-.308594-.160156-.625-.304687-.949219-.433594-.070313-.03125-.144531-.046875-.214844-.074219-.109375-.039062-.222656-.078124-.332031-.113281-.34375-.113281-.6875-.207031-1.039062-.285156-.070313-.015625-.140626-.035156-.210938-.046875-.441406-.085938-.886719-.140625-1.335938-.167969-.015624 0-.03125-.003906-.050781-.003906l-107.097656-5.382813-64.136719-57.335937c-3.109375-2.78125-7.621094-3.339844-11.316406-1.398437-.484375.253906-48.277344 25.285156-72.019531 31.300781l-112.3125 3.257812c-5.183594.148438-9.390625 4.234375-9.691407 9.410157l-12.273437 209.488281c-.179687 3.078125 1.070313 6.070312 3.390625 8.101562l87.699219 76.941407c.011719.011718.027343.019531.042969.03125.011718.011718.039062.039062.058593.058593.308594.257813.628907.496094.964844.714844.070313.046875.136719.089844.207031.132813.753906.476562 1.566406.84375 2.417969 1.101562.050781.015625.101563.03125.152344.046875.414062.121094.839843.210937 1.269531.273437.03125 0 .0625.015626.09375.019532l210.816406 29.558594.074219.007812.074219.011719h.039062c.449219.0625.898438.097656 1.347656.101562.308594 0 .621094-.019531.929688-.046875l.054688-.007812c.28125-.027344.554687-.066406.832031-.117188l.046875-.007812 106.71875-20.246094c.347656-.066406.695312-.152344 1.03125-.257812.101562-.027344.203125-.070313.300781-.105469.191406-.0625.382813-.121094.570313-.199219.035156-.011719.0625-.03125.09375-.042969.140624-.058593.269531-.125.402343-.1875.1875-.089843.375-.175781.554688-.273437.113281-.066406.226562-.132813.335937-.203125.191406-.113281.382813-.230469.566406-.355469.097657-.070312.1875-.140625.28125-.210938.1875-.140624.371094-.285156.546876-.4375.085937-.074218.167968-.152343.253906-.226562.171875-.160156.335937-.324219.5-.492188.078125-.085937.15625-.171874.234375-.261718.152343-.171875.296875-.351563.433593-.535156.074219-.101563.144532-.191407.214844-.289063.136719-.191406.261719-.390625.382813-.589844.042969-.074219.09375-.140625.136719-.214843l45.667968-80.1875c1.492188-2.621094 1.722656-5.777344.625-8.589844zm-82.546875 278.683594-37.679687-102.726563 66.78125-55.058593 57.308593 141.390625zm-185.5-225.222656 92.816406 48.160156-59.710937 67.476563-69.183594-20.382813zm43.929688 133.585937 61.257812-69.222656 58.714844 160.046875-176.390625-24.726563zm166.472656-88.609375-69.886719 57.617188-21.023437-57.300781 35.300781-90.332032 89.5 4.5zm-204.101562-117.640625c.683593-.023437 1.359374-.109375 2.023437-.269531 20.765625-4.9375 56.976563-22.734375 71.46875-30.097656l56.464844 50.476562-32.722657 83.746094-103.925781-53.925781-75.554687-47.542969zm-104.730469 11.867188 80.8125 50.851562-40.980469 108.203125c-.988281 2.601563-.84375 5.496094.394531 7.988281 1.238281 2.492188 3.460938 4.355469 6.128907 5.144532l70.839843 20.871094-51.71875 60.59375-76.40625-67.03125zm385.710937 254.300781-57.757812-142.488281 29.144531-73.53125 61.710937 157.898437zm0 0" fill="#083863"/></svg>