<svg height="499pt" viewBox="-53 0 499 499.47528" width="499pt" xmlns="http://www.w3.org/2000/svg"><path d="m287.027344 260.164062h-96.789063l44.960938-67.308593h-33.121094l45.570313-56.390625h-33.550782l39.28125-55.378906h-21.8125l55.460938-71.109376 51.769531 71.109376h-21.4375l38.910156 55.378906h-31.882812l45.570312 56.390625h-29.429687l43.289062 67.308593zm0 0" fill="#3bb54a"/><path d="m365.21875 338.136719c7.28125 9.625 6.175781 23.1875-2.570312 31.507812l-58.460938 52.371094c-21.890625 19.609375-49.761719 29.75-78.191406 28.449219l-84.417969-4.230469c-10.902344-.5-17.710937.121094-28.5 1.851563l-35.121094 6.9375h-2.371093v-112.417969h1.5625l36.507812-19.070313c19.851562-10.371094 37.640625-15.339844 59.671875-14.488281l55.878906 2.46875c.429688-.03125.871094-.039063 1.300781-.039063 10.46875 0 19.398438 8.640626 20.519532 19.730469 1.179687 11.546875-5.929688 22.636719-16.789063 24.769531l-41.519531 8.46875c-8.382812 1.710938-12.640625 11.878907-8.3125 19.800782l4.511719 8.238281c2.128906 4.085937 6.394531 6.609375 11 6.511719l40.199219-1.449219c15.3125-.628906 29.941406-6.507813 41.429687-16.652344 15.699219-13.679687 38.210937-33.308593 53.441406-46.667969 9.03125-7.960937 22.539063-6.359374 29.910157 3.390626zm0 0" fill="#f7caa5"/><path d="m75.585938 455.023438v16.902343c.003906 9.417969-7.628907 17.050781-17.046876 17.050781h-30.839843c-9.414063-.003906-17.046875-7.636718-17.042969-17.050781v-130.441406c0-9.410156 7.628906-17.039063 17.042969-17.039063h30.839843c9.414063-.003906 17.046876 7.625 17.046876 17.039063zm0 0" fill="#00acea"/><g fill="#083863"><path d="m373.414062 332.375c-.167968-.269531-.347656-.53125-.539062-.785156-5.179688-6.910156-12.996094-11.359375-21.585938-12.285156-8.332031-.863282-16.644531 1.828124-22.898437 7.40625-15.035156 13.1875-37.34375 32.648437-53.46875 46.695312-9.734375 8.667969-22.144531 13.746094-35.167969 14.386719l-40.09375 1.683593c-.820312-.105468-1.53125-.625-1.875-1.378906-.027344-.058594-.058594-.238281-.089844-.292968l-4.507812-8.300782c-.613281-1.160156-.648438-2.539062-.101562-3.730468.28125-.730469.886718-1.292969 1.636718-1.519532l41.445313-8.460937c15.640625-3.066407 26.539062-18.707031 24.816406-35.59375-1.632813-16.101563-15.019531-28.722657-30.476563-28.722657-.480468 0-.925781.007813-1.355468.027344l-55.4375-2.453125c-22.710938-.875-42.054688 3.800781-64.6875 15.621094l-26.699219 13.960937c-4.734375-8.726562-13.863281-14.160156-23.789063-14.15625h-30.839843c-14.910157 0-27.460938 12.097657-27.460938 27.007813v130.441406c0 14.914063 12.550781 27.550781 27.460938 27.550781h30.839843c14.914063 0 26.699219-12.636718 26.699219-27.550781v-8.214843l29.425781-5.78125c8.675782-1.597657 17.511719-2.171876 26.324219-1.707032l84.507813 4.234375c1.792968.082031 3.601562.121094 5.382812.121094 29.222656 0 57.449219-10.9375 79.972656-31.113281l58.464844-52.371094c.070313-.066406.148438-.132812.21875-.199219 12.300782-11.6875 14-30.691406 3.96875-44.375zm-308.175781 139.550781c0 3.886719-2.8125 7.550781-6.699219 7.550781h-30.839843c-4.066407-.207031-7.304688-3.484374-7.460938-7.550781v-130.441406c0-3.882813 3.578125-7.007813 7.460938-7.007813h30.839843c1.828126.007813 3.574219.757813 4.835938 2.082032 1.265625 1.320312 1.9375 3.097656 1.863281 4.925781zm290.613281-109.617187-58.335937 52.257812c-19.96875 17.890625-45.222656 27.101563-71.015625 25.910156l-84.460938-4.230468c-10.222656-.527344-20.472656.132812-30.542968 1.964844-.117188.019531-.410156.039062-.53125.0625l-25.726563 5.050781v-93.847657l32.875-17.082031c19.585938-10.230469 35.507813-14.101562 54.683594-13.363281l55.925781 2.46875c.386719.019531.777344.011719 1.164063-.011719.199219-.015625.410156-.015625.609375-.015625 5.320312 0 9.96875 4.714844 10.578125 10.746094.675781 6.605469-3.253907 12.859375-8.839844 13.953125l-41.515625 8.472656c-6.992188 1.449219-12.859375 6.164063-15.78125 12.679688-3.214844 6.941406-2.953125 14.996093.699219 21.71875l4.472656 8.167969c3.878906 7.425781 11.648437 11.992187 20.027344 11.777343h.144531l40.25-1.449219c17.582031-.734374 34.378906-7.476562 47.585938-19.101562 16.082031-14.011719 38.410156-33.484375 53.484374-46.707031 2.09375-1.886719 4.882813-2.804688 7.683594-2.527344 2.917969.320313 5.582032 1.808594 7.386719 4.125l.035156.054687c.164063.269532.34375.53125.535157.785157 4.1875 5.53125 3.589843 13.316406-1.390626 18.140625zm0 0"/><path d="m358.847656 202.476562h11.109375c3.828125.089844 7.355469-2.058593 9.027344-5.503906 1.675781-3.441406 1.1875-7.542968-1.25-10.496094l-32.40625-40h10.941406c3.730469-.003906 7.15625-2.085937 8.871094-5.402343 1.722656-3.242188 1.453125-7.183594-.691406-10.164063l-27.84375-39.433594h2.191406c3.789063-.089843 7.21875-2.265624 8.910156-5.65625 1.695313-3.390624 1.378907-7.4375-.824219-10.523437l-51.769531-71.160156c-1.839843-2.542969-4.769531-4.074219-7.910156-4.136719-3.140625-.0585938-6.125 1.363281-8.0625 3.839844l-55.460937 71.097656c-2.347657 3.085938-2.773438 7.230469-1.097657 10.730469 1.65625 3.480469 5.132813 5.726562 8.984375 5.808593h2.457032l-28.085938 39.398438c-2.160156 3.027344-2.4375 7.011719-.714844 10.308594 1.726563 3.296875 5.15625 5.339844 8.875 5.292968h12.613282l-32.410157 40.097657c-2.417969 2.921875-2.90625 6.988281-1.246093 10.402343 1.679687 3.429688 5.203124 5.578126 9.023437 5.5h14.414063l-34.570313 51.945313c-2.046875 3.160156-2.238281 7.179687-.5 10.519531 1.710937 3.3125 5.089844 5.429688 8.816406 5.535156h87v37.609376c0 5.523437 4.476563 10 10 10 5.523438 0 10-4.476563 10-10v-37.609376h86.578125c3.683594-.0625 7.042969-2.117187 8.777344-5.367187 1.753906-3.304687 1.613281-7.292969-.363281-10.464844zm-61.609375 48v-16.433593l20.28125-12.726563c4.617188-2.941406 6.007813-9.058594 3.113281-13.710937-2.898437-4.648438-9-6.101563-13.679687-3.253907l-9.714844 6.113282v-36.71875c0-5.523438-4.476562-10-10-10-5.523437 0-10 4.476562-10 10v10.582031l-1.671875-1.320313c-2.726562-2.332031-6.496094-3.023437-9.875-1.808593-3.378906 1.214843-5.84375 4.148437-6.460937 7.683593-.617188 3.535157.707031 7.132813 3.472656 9.417969l14.535156 12.183594v39.992187h-68.300781l34.570312-51.914062c2.050782-3.164062 2.242188-7.1875.5-10.535156-1.710937-3.3125-5.082031-5.441406-8.808593-5.550782h-12.183594l32.410156-39.914062c2.421875-2.96875 2.902344-7.074219 1.234375-10.519531-1.667968-3.449219-5.183594-5.621094-9.011718-5.566407h-14.199219l28.089843-39.601562c2.160157-2.976562 2.445313-6.925781.726563-10.183594-1.738281-3.277344-5.179687-5.296875-8.886719-5.214844h-1.328125l34.699219-44.5 32.398438 44.5h-1.789063c-3.707031-.09375-7.144531 1.921876-8.878906 5.195313-1.730469 3.277344-1.464844 7.25.695312 10.265625l27.84375 39.539062h-12.632812c-3.851563-.003906-7.363281 2.207032-9.023438 5.683594-1.660156 3.410156-1.171875 7.480469 1.246094 10.402344l32.410156 39.914062h-8.492187c-3.6875.074219-7.046875 2.140626-8.777344 5.398438-1.753906 3.300781-1.613281 7.28125.367188 10.449219l33.378906 52.152343zm0 0"/></g></svg>