<svg height="499pt" viewBox="-9 0 499 499.3464" width="499pt" xmlns="http://www.w3.org/2000/svg"><path d="m423.890625 225.195312-1.640625-67.167968c-.761719-14.988282 10.394531-27.925782 25.332031-29.382813l23.019531 145.261719c.28125 18.234375-5.320312 36.074219-15.972656 50.878906l-56.347656 68.191406c-5.183594 6.273438-7.742188 14.3125-7.140625 22.429688l1.511719 20.140625-78.460938-37.359375.300782-.640625c-6.222657-30.597656 5.179687-62.109375 29.539062-81.640625l4.46875-3.589844c7.007812-5.613281 12.65625-12.742187 16.511719-20.851562l21.539062-45.21875c6.757813-14.191406 21.699219-22.613282 37.339844-21.050782zm0 0" fill="#f7caa5"/><path d="m392.652344 435.546875 8.828125 4.210937-23.609375 49.589844-108.820313-51.820312 23.621094-49.589844 21.519531 10.25zm0 0" fill="#00acea"/><path d="m240.390625 260.214844h-96.789063l44.957032-67.308594h-33.128906l45.582031-56.390625h-33.5625l39.292969-55.378906h-21.820313l55.46875-71.109375 51.769531 71.109375h-21.441406l38.910156 55.378906h-31.886718l45.566406 56.390625h-29.417969l43.289063 67.308594zm0 0" fill="#3bb54a"/><path d="m88.128906 435.546875 78.460938-37.359375 21.519531-10.25 23.621094 49.589844-108.820313 51.820312-23.609375-49.589844zm0 0" fill="#00acea"/><path d="m56.890625 225.195312c15.640625-1.5625 30.582031 6.859376 37.339844 21.050782l21.539062 45.21875c3.855469 8.109375 9.503907 15.238281 16.511719 20.851562l4.46875 3.589844c24.359375 19.53125 35.761719 51.042969 29.539062 81.640625l.300782.640625-78.460938 37.359375 1.511719-20.140625c.601563-8.117188-1.957031-16.15625-7.140625-22.429688l-56.347656-68.191406c-10.652344-14.804687-16.253906-32.644531-15.972656-50.878906l23.019531-145.261719c14.386719 1.402344 25.363281 13.488281 25.371093 27.941407 0 .46875-.019531.960937-.039062 1.441406zm0 0" fill="#f7caa5"/><g fill="#083863"><path d="m337.179688 270.6875c3.695312-.097656 7.050781-2.179688 8.777343-5.445312 1.753907-3.292969 1.613281-7.269532-.367187-10.429688l-33.378906-52.125h11.101562c3.832031.042969 7.347656-2.132812 9.023438-5.582031 1.660156-3.429688 1.171874-7.511719-1.246094-10.457031l-32.410156-39.960938h10.949218c3.746094-.035156 7.164063-2.144531 8.875-5.476562 1.71875-3.402344 1.457032-7.472657-.691406-10.628907l-27.84375-39.894531h2.191406c3.730469.101562 7.191406-1.933594 8.914063-5.242188 1.71875-3.3125 1.398437-7.316406-.828125-10.308593l-51.769532-71.050781c-1.859374-2.527344-4.792968-4.0429692-7.929687-4.085938s-6.113281 1.386719-8.042969 3.863281l-55.46875 71.117188c-2.347656 2.925781-2.777344 6.957031-1.097656 10.3125 1.699219 3.382812 5.199219 5.480469 8.984375 5.394531h2.460937l-28.09375 39.816406c-2.164062 3.125-2.441406 7.183594-.726562 10.574219 1.695312 3.371094 5.117188 5.527344 8.886719 5.609375h12.621093l-32.417968 40.015625c-2.417969 2.941406-2.90625 7.019531-1.246094 10.445313 1.679688 3.441406 5.195312 5.597656 9.023438 5.539062h14.425781l-34.566407 51.863281c-2.046874 3.175781-2.238281 7.207031-.5 10.558594 1.707032 3.320313 5.082032 5.457031 8.8125 5.578125h86.789063v37.449219c0 5.523437 4.476563 10 10 10s10-4.476563 10-10v-37.449219zm-140.300782-71.992188c2.050782-3.152343 2.242188-7.164062.5-10.5-1.714844-3.308593-5.09375-5.417968-8.820312-5.507812h-12.1875l32.417968-39.996094c2.421876-2.941406 2.910157-7.023437 1.25-10.453125-1.679687-3.445312-5.195312-5.609375-9.027343-5.550781h-14.207031l28.09375-39.679688c2.164062-3.152343 2.441406-7.230468.726562-10.644531-1.6875-3.386719-5.101562-5.570312-8.882812-5.675781h-1.335938l34.710938-44.5 32.394531 44.5h-1.792969c-3.765625.089844-7.175781 2.25-8.871094 5.613281-1.722656 3.378907-1.457031 7.429688.691406 10.558594l27.84375 39.828125h-12.640624c-3.839844-.039062-7.355469 2.144531-9.027344 5.597656-1.660156 3.425782-1.171875 7.503906 1.246094 10.445313l32.410156 39.957031h-8.480469c-3.675781.042969-7.039063 2.078125-8.777344 5.316406-1.753906 3.3125-1.613281 7.308594.367188 10.492188l33.378906 52.191406h-68.46875v-16.601562l20.382813-12.714844c4.683593-2.921875 6.113281-9.089844 3.191406-13.773438-2.921875-4.6875-9.089844-6.117187-13.777344-3.195312l-9.800781 6.113281v-36.71875c0-5.523437-4.476563-10-10-10-5.519531 0-10 4.476563-10 10v10.582031l-1.5625-1.320312c-4.222657-3.558594-10.53125-3.019532-14.089844 1.203125-3.5625 4.222656-3.023437 10.53125 1.199219 14.089843l14.457031 12.183594v40.152344h-68.085937zm0 0"/><path d="m457.457031 127.085938c-.828125-5.226563-5.582031-8.902344-10.847656-8.386719-20.210937 1.945312-35.332031 19.417969-34.351563 39.699219l1.394532 57.078124c-15.722656 2.210938-29.285156 12.152344-36.128906 26.476563l-21.542969 45.222656c-3.21875 6.742188-7.914063 12.671875-13.742188 17.351563l-4.460937 3.582031c-22.355469 17.839844-35.253906 44.976563-34.964844 73.578125l-5.84375-2.785156c-4.984375-2.375-10.953125-.257813-13.328125 4.730468l-23.617187 49.589844c-2.375 4.984375-.257813 10.953125 4.726562 13.328125l108.820312 51.820313c4.988282 2.375 10.957032.257812 13.332032-4.730469l23.605468-49.589844c2.375-4.984375.261719-10.949219-4.722656-13.324219l-3.601562-1.714843-1.074219-14.347657c-.417969-5.546874 1.332031-11.039062 4.882813-15.316406l56.347656-68.191406c.144531-.171875.28125-.347656.410156-.53125 11.863281-16.566406 18.121094-36.496094 17.851562-56.875-.007812-.46875-.050781-.941406-.121093-1.410156zm-84.316406 348.933593-90.761719-43.222656 15.019532-31.53125 90.757812 43.21875zm73.5625-157.332031-56.132813 67.917969c-6.84375 8.257812-10.214843 18.851562-9.398437 29.546875l.222656 2.957031-57.785156-27.519531c-3.851563-25.765625 6.316406-51.636719 26.679687-67.886719l4.457032-3.578125c8.179687-6.566406 14.773437-14.894531 19.292968-24.359375l21.539063-45.222656c4.820313-10.089844 15.304687-16.21875 26.460937-15.46875l-30.289062 63.601562c-2.375 4.984375-.257812 10.953125 4.730469 13.328125 4.984375 2.375 10.953125.257813 13.328125-4.730468l35.398437-74.339844c2.375-4.984375.257813-10.953125-4.726562-13.328125-2.191407-1.039063-4.460938-1.914063-6.785157-2.609375l-1.449218-59.210938c0-.085937-.003906-.175781-.007813-.261718-.316406-6.070313 2.441407-11.894532 7.339844-15.492188l21.03125 132.71875c.0625 15.738281-4.800781 31.101562-13.90625 43.9375zm0 0"/><path d="m197.136719 383.636719c-2.375-4.988281-8.339844-7.101563-13.328125-4.730469l-5.839844 2.785156c.292969-28.601562-12.601562-55.742187-34.957031-73.582031l-4.484375-3.601563c-5.820313-4.675781-10.515625-10.601562-13.730469-17.34375l-21.539063-45.214843c-6.84375-14.324219-20.40625-24.265625-36.128906-26.480469l1.402344-57.109375c.023438-.59375.042969-1.195313.042969-1.773437.058593-19.625-14.859375-36.058594-34.398438-37.894532-5.269531-.515625-10.027343 3.164063-10.851562 8.394532l-23.019531 145.261718c-.074219.464844-.117188.9375-.125 1.410156-.2656255 20.375 5.988281 40.300782 17.855468 56.867188.128906.183594.265625.359375.40625.53125l56.347656 68.191406c3.550782 4.277344 5.296876 9.769532 4.878907 15.3125l-1.078125 14.355469-3.597656 1.714844c-4.984376 2.375-7.101563 8.339843-4.726563 13.324219l23.609375 49.589843c2.375 4.988281 8.339844 7.105469 13.328125 4.730469l108.820313-51.820312c4.988281-2.375 7.105468-8.34375 4.730468-13.328126zm-106.925781 2.96875-56.132813-67.917969c-9.105469-12.835938-13.96875-28.199219-13.90625-43.9375l21.035156-132.738281c4.644531 3.402343 7.378907 8.816406 7.363281 14.574219 0 .332031-.015624.675781-.03125 1.011718v.183594l-1.449218 59.21875c-2.324219.695312-4.59375 1.566406-6.785156 2.609375-4.984376 2.375-7.101563 8.339844-4.726563 13.328125l35.398437 74.335938c2.375 4.988281 8.34375 7.105468 13.328126 4.730468 4.988281-2.375 7.105468-8.34375 4.730468-13.328125l-30.289062-63.601562c11.15625-.738281 21.636718 5.390625 26.460937 15.472656l21.539063 45.21875c4.515625 9.460937 11.101562 17.785156 19.277344 24.347656l4.476562 3.597657c20.363281 16.25 30.53125 42.117187 26.679688 67.886718l-57.789063 27.515625.222656-2.96875c.8125-10.691406-2.558593-21.285156-9.402343-29.539062zm17.429687 89.414062-15.015625-31.535156 78.265625-37.269531 12.492187-5.949219 15.019532 31.53125zm0 0"/></g></svg>