<svg height="506pt" viewBox="0 0 506 506" width="506pt" xmlns="http://www.w3.org/2000/svg"><path d="m496 243h-77.960938l44.070313-44.820312c2.546875-2.539063 3.53125-6.25 2.582031-9.714844-.949218-3.46875-3.683594-6.160156-7.167968-7.050782-3.484376-.890624-7.175782.15625-9.671876 2.746094l-57.863281 58.839844h-112.84375l79.796875-79.746094 82.519532.746094h.085937c5.507813-.027344 9.964844-4.488281 9.988281-9.996094.023438-5.507812-4.398437-10.007812-9.90625-10.078125l-62.851562-.542969 19.558594-19.566406 35.699218-35.699218c3.90625-3.90625 3.90625-10.238282 0-14.148438-3.90625-3.90625-10.238281-3.90625-14.144531 0l-55.261719 55.261719-.527344-63.085938c-.03125-5.535156-4.46875-10.035156-10-10.144531h-.085937c-5.523437 1-9.964844 4.789062-9.917969 10.3125l.695313 82.632812-79.792969 79.914063v-112.847656l58.839844-57.863281c2.589844-2.496094 3.636718-6.1875 2.746094-9.671876-.890626-3.484374-3.582032-6.21875-7.050782-7.167968-3.464844-.949219-7.175781.035156-9.714844 2.582031l-44.820312 44.070313v-77.960938c0-5.523438-4.476562-10-10-10s-10 4.476562-10 10v77.960938l-44.820312-44.070313c-3.945313-3.808594-10.226563-3.726563-14.074219.183594-3.84375 3.914062-3.820313 10.191406.054687 14.074219l58.839844 57.863281v112.847656l-79.796875-79.800781.695313-82.75c.046874-5.523438-4.390626-9.3125-9.914063-10.3125h-.085937c-5.53125.109375-9.96875 4.609375-10 10.144531l-.527344 62.96875-55.261719-55.199219c-3.917969-3.90625-10.257813-3.894531-14.164063.023438-3.90625 3.917968-3.894531 10.261718.023438 14.167968l55.261719 55.265626-62.855469.53125c-5.472656.128906-9.835938 4.617187-9.8125 10.089843.019531 5.476563 4.421875 9.925781 9.894531 10.011719h.085938l82.519531-.746094 79.792969 79.746094h-112.84375l-57.863281-58.839844c-2.496094-2.589844-6.1875-3.636718-9.671876-2.746094-3.484374.890626-6.21875 3.582032-7.167968 7.050782-.949219 3.464844.035156 7.175781 2.582031 9.714844l44.070313 44.820312h-77.960938c-5.523438 0-10 4.476562-10 10s4.476562 10 10 10h77.960938l-44.070313 44.820312c-2.546875 2.539063-3.53125 6.25-2.582031 9.714844.949218 3.46875 3.683594 6.160156 7.167968 7.050782 3.484376.890624 7.175782-.15625 9.671876-2.746094l57.863281-58.839844h112.84375l-79.792969 79.746094-82.519531-.746094h-.085938c-5.507812.027344-9.964843 4.488281-9.988281 9.996094-.019531 5.507812 4.398438 10.007812 9.90625 10.078125l62.855469.542969-55.261719 55.265624c-3.90625 3.90625-3.90625 10.238282-.003906 14.144532 3.90625 3.90625 10.238281 3.90625 14.144531.003906l55.261719-55.261719.527344 63.085938c.03125 5.535156 4.46875 10.035156 10 10.144531h.085937c5.523437-1 9.964844-4.789062 9.917969-10.3125l-.695313-82.632812 79.792969-79.914063v112.847656l-58.839844 57.863281c-2.589844 2.496094-3.636718 6.1875-2.746094 9.671876.890626 3.484374 3.582032 6.21875 7.050782 7.167968 3.464844.949219 7.175781-.035156 9.714844-2.582031l44.820312-44.070313v77.960938c0 5.523438 4.476562 10 10 10s10-4.476562 10-10v-77.960938l44.820312 44.070313c2.539063 2.546875 6.25 3.53125 9.714844 2.582031 3.46875-.949218 6.160156-3.683594 7.050782-7.167968.890624-3.484376-.15625-7.175782-2.746094-9.671876l-58.839844-57.863281v-112.847656l79.800781 79.800781-.695312 82.75c-.046875 5.523438 4.390625 9.3125 9.914062 10.3125h.085938c5.535156-.109375 9.972656-4.609375 10-10.144531l.53125-62.96875 19.558593 19.5 35.699219 35.671875c3.914063 3.902344 10.25 3.898438 14.15625-.015625 3.90625-3.910156 3.898438-10.25-.015625-14.152344l-35.699218-35.703125-19.558594-19.558594 62.851562-.53125c5.5-.09375 9.898438-4.589843 9.875-10.089843-.023437-5.496094-4.457031-9.957031-9.957031-10.007813h-.085937l-82.515626.742188-79.800781-79.746094h112.84375l57.863281 58.839844c2.496094 2.589844 6.1875 3.636718 9.671876 2.746094 3.484374-.890626 6.21875-3.582032 7.167968-7.050782.949219-3.464844-.035156-7.175781-2.582031-9.714844l-44.070313-44.820312h77.960938c5.523438 0 10-4.476562 10-10s-4.476562-10-10-10zm0 0" fill="#083863"/></svg>