<svg height="437pt" viewBox="0 -20 437.54562 437" width="437pt" xmlns="http://www.w3.org/2000/svg"><path d="m375.144531 129.578125-82.097656 80.019531 19.378906 113.007813-101.480469-53.359375-101.480468 53.359375 19.378906-113.007813-82.097656-80.019531 113.460937-16.492187 50.738281-102.808594 50.738282 102.808594zm0 0" fill="#00acea"/><g fill="#083863"><path d="m303.789062 213.089844 78.335938-76.351563c2.726562-2.65625 3.707031-6.632812 2.53125-10.25-1.175781-3.621093-4.304688-6.261719-8.074219-6.808593l-108.253906-15.734376-48.414063-98.097656c-1.6875-3.414062-5.164062-5.574218-8.96875-5.574218-3.804687 0-7.28125 2.160156-8.964843 5.574218l-48.414063 98.097656-108.261718 15.734376c-3.765626.546874-6.894532 3.1875-8.070313 6.808593-1.175781 3.617188-.195313 7.59375 2.53125 10.25l78.332031 76.351563-18.492187 107.828125c-.644531 3.75.898437 7.542969 3.980469 9.777343 3.078124 2.238282 7.160156 2.535157 10.53125.761719l96.824218-50.914062 96.824219 50.914062c3.371094 1.773438 7.453125 1.476563 10.53125-.761719 3.082031-2.234374 4.625-6.027343 3.980469-9.777343zm-88.191406 47.304687c-2.910156-1.53125-6.390625-1.53125-9.304687 0l-83.546875 43.929688 15.960937-93.035157c.554688-3.246093-.519531-6.554687-2.878906-8.855468l-67.589844-65.875 93.410157-13.574219c3.257812-.476563 6.070312-2.519531 7.527343-5.472656l41.769531-84.640625 41.773438 84.640625c1.457031 2.953125 4.269531 4.996093 7.527344 5.472656l93.410156 13.574219-67.589844 65.875c-2.359375 2.300781-3.433594 5.609375-2.875 8.855468l15.953125 93.035157zm0 0"/><path d="m121.394531 60.90625c4.046875 0 7.691407-2.4375 9.238281-6.171875 1.550782-3.738281.695313-8.039063-2.167968-10.898437l-32.558594-32.558594c-3.90625-3.90625-10.238281-3.90625-14.144531-.003906-3.902344 3.90625-3.90625 10.238281 0 14.144531l32.5625 32.558593c1.875 1.878907 4.417969 2.933594 7.070312 2.929688zm0 0"/><path d="m336.933594 72.679688 50.421875-50.414063c2.546875-2.519531 3.546875-6.210937 2.625-9.675781-.921875-3.460938-3.625-6.167969-7.089844-7.089844-3.460937-.921875-7.152344.078125-9.675781 2.621094l-50.417969 50.410156c-2.546875 2.523438-3.546875 6.214844-2.625 9.675781.921875 3.464844 3.625 6.167969 7.085937 7.089844 3.464844.925781 7.15625-.074219 9.675782-2.621094zm0 0"/><path d="m71.371094 236.5-66.164063 36.839844c-3.152343 1.722656-5.1406248 5-5.207031 8.59375-.0625 3.589844 1.800781 6.941406 4.886719 8.777344 3.089843 1.835937 6.921875 1.875 10.046875.101562l66.171875-36.839844c4.773437-2.707031 6.472656-8.761718 3.800781-13.5625-2.671875-4.796875-8.710938-6.542968-13.53125-3.910156zm0 0"/><path d="m432.371094 270.167969-77.199219-42.539063c-4.835937-2.667968-10.917969-.90625-13.585937 3.929688-2.664063 4.839844-.902344 10.921875 3.933593 13.585937l77.199219 42.539063c4.839844 2.664062 10.921875.90625 13.585938-3.933594 2.664062-4.835938.902343-10.917969-3.933594-13.582031zm0 0"/><path d="m216.804688 307.167969c-5.523438 0-10 4.476562-10 10v71c0 5.519531 4.476562 10 10 10 5.523437 0 10-4.480469 10-10v-71c0-5.523438-4.476563-10-10-10zm0 0"/></g></svg>