<svg height="476pt" viewBox="0 0 476 476.82181" width="476pt" xmlns="http://www.w3.org/2000/svg"><path d="m391.183594 263.191406 36.683594 49.160156-61.332032-.792968-35.417968 50.082031-18.210938-58.570313-58.570312-18.210937 50.078124-35.417969-.789062-61.332031 49.160156 36.691406 58.089844-19.699219zm0 0" fill="#00acea"/><path d="m240.886719 79.808594-48.042969 46.832031 11.339844 66.121094-59.378906-31.222657-59.390626 31.222657 11.339844-66.121094-48.039062-46.832031 66.390625-9.648438 29.699219-60.160156 29.691406 60.160156zm0 0" fill="#fedb41"/><path d="m202.675781 351.46875-46.148437 33.453125 1.386718 56.976563-46.070312-33.558594-53.757812 18.929687 17.679687-54.179687-34.621094-45.28125 56.992188.070312 32.367187-46.917968 17.550782 54.230468zm0 0" fill="#00efd1"/><g fill="#083863"><path d="m86.015625 130.132812-10.457031 60.9375c-.640625 3.75.902344 7.542969 3.980468 9.777344 3.078126 2.238282 7.160157 2.53125 10.53125.761719l54.734376-28.773437 54.726562 28.773437c3.371094 1.773437 7.453125 1.476563 10.53125-.761719 3.078125-2.234375 4.621094-6.027344 3.980469-9.777344l-10.453125-60.941406 44.277344-43.160156c2.726562-2.65625 3.710937-6.628906 2.53125-10.25-1.175782-3.625-4.304688-6.261719-8.074219-6.808594l-61.1875-8.890625-27.363281-55.445312c-1.683594-3.414063-5.160157-5.574219-8.96875-5.574219-3.804688 0-7.28125 2.160156-8.964844 5.574219l-27.375 55.445312-61.1875 8.890625c-3.765625.546875-6.894532 3.1875-8.074219 6.804688-1.175781 3.621094-.195313 7.59375 2.53125 10.253906zm30.53125-50.078124c3.257813-.472657 6.074219-2.515626 7.53125-5.46875l20.730469-41.992188 20.722656 41.992188c1.457031 2.953124 4.273438 4.996093 7.53125 5.46875l46.339844 6.738281-33.535156 32.6875c-2.359376 2.296875-3.433594 5.605469-2.878907 8.847656l7.917969 46.152344-41.445312-21.792969c-2.914063-1.53125-6.394532-1.53125-9.308594 0l-41.457032 21.792969 7.921876-46.152344c.554687-3.242187-.519532-6.550781-2.875-8.847656l-33.539063-32.6875zm0 0"/><path d="m66.273438 7.660156c-3.902344 3.902344-3.902344 10.234375 0 14.140625l19.050781 19.050781c3.914062 3.839844 10.195312 3.8125 14.074219-.066406 3.878906-3.878906 3.910156-10.160156.066406-14.074218l-19.050782-19.050782c-3.902343-3.90625-10.234374-3.90625-14.140624 0zm0 0"/><path d="m232.863281 3.863281c-4.429687-3.300781-10.695312-2.386719-13.996093 2.039063l-20.5 27.5c-2.148438 2.867187-2.601563 6.660156-1.191407 9.949218 1.414063 3.292969 4.476563 5.574219 8.035157 5.988282 3.554687.414062 7.0625-1.105469 9.191406-3.984375l20.5-27.5c3.300781-4.425781 2.386718-10.691407-2.039063-13.992188zm0 0"/><path d="m32.265625 176.039062c2.09375.003907 4.132813-.65625 5.832031-1.882812l32.71875-23.546875c2.914063-2.082031 4.496094-5.5625 4.140625-9.125-.355469-3.566406-2.585937-6.667969-5.855469-8.136719-3.269531-1.46875-7.070312-1.074218-9.96875 1.03125l-32.71875 23.546875c-3.523437 2.535157-5.007812 7.054688-3.675781 11.1875 1.335938 4.132813 5.1875 6.933594 9.527344 6.925781zm0 0"/><path d="m249.527344 162.203125c4.625.003906 8.648437-3.160156 9.734375-7.65625 1.082031-4.496094-1.054688-9.148437-5.175781-11.25l-27.171876-13.886719c-4.902343-2.429687-10.847656-.460937-13.339843 4.410156-2.492188 4.875-.601563 10.84375 4.242187 13.398438l27.167969 13.890625c1.40625.71875 2.964844 1.09375 4.542969 1.09375zm0 0"/><path d="m133.515625 193.410156v38c0 5.523438 4.476563 10 10 10s10-4.476562 10-10v-38c0-5.523437-4.476563-10-10-10s-10 4.476563-10 10zm0 0"/><path d="m402.34375 261.421875 18-53.113281c1.222656-3.601563.289062-7.589844-2.402344-10.28125s-6.675781-3.621094-10.28125-2.398438l-53.109375 18.011719-44.949219-33.542969c-3.050781-2.277344-7.128906-2.625-10.519531-.898437-3.390625 1.730469-5.507812 5.234375-5.457031 9.039062l.71875 56.074219-45.785156 32.382812c-3.109375 2.199219-4.699219 5.972657-4.101563 9.730469.59375 3.761719 3.273438 6.855469 6.910157 7.984375l53.546874 16.648438 16.652344 53.550781c1.132813 3.632813 4.226563 6.3125 7.988282 6.90625 3.757812.59375 7.527343-.996094 9.726562-4.105469l32.382812-45.789062 56.074219.722656c3.804688.050781 7.308594-2.066406 9.035157-5.457031 1.730468-3.390625 1.382812-7.46875-.894532-10.519531zm-35.679688 40.140625c-3.289062-.039062-6.390624 1.539062-8.292968 4.222656l-23.722656 33.539063-12.195313-39.222657c-.976563-3.144531-3.4375-5.601562-6.578125-6.582031l-39.222656-12.195312 33.535156-23.71875c2.691406-1.902344 4.269531-5.003907 4.226562-8.296875l-.527343-41.0625 32.917969 24.5625c2.636718 1.96875 6.074218 2.515625 9.191406 1.457031l38.90625-13.191406-13.1875 38.90625c-1.054688 3.117187-.511719 6.550781 1.457031 9.191406l24.5625 32.917969zm0 0"/><path d="m351.515625 162.410156v25c0 5.523438 4.476563 10 10 10s10-4.476562 10-10v-25c0-5.523437-4.476563-10-10-10s-10 4.476563-10 10zm0 0"/><path d="m463.382812 242.949219-35 12c-3.414062 1.132812-5.957031 4.011719-6.660156 7.539062-.703125 3.527344.542969 7.160157 3.261719 9.515625 2.71875 2.355469 6.492187 3.066406 9.882813 1.863282l35-12c5.167968-1.828126 7.898437-7.480469 6.121093-12.667969-1.777343-5.1875-7.402343-7.972657-12.605469-6.25zm0 0"/><path d="m229.328125 241.546875 38.960937 11.089844c5.308594 1.511719 10.84375-1.566407 12.355469-6.878907s-1.570312-10.84375-6.882812-12.355468l-38.957031-11.089844c-5.3125-1.511719-10.84375 1.566406-12.355469 6.878906-1.515625 5.3125 1.566406 10.84375 6.878906 12.355469zm0 0"/><path d="m394.914062 338.6875c-2.582031-4.878906-8.636718-6.738281-13.515624-4.15625-4.882813 2.585938-6.742188 8.640625-4.15625 13.519531l17.109374 32.300781c2.585938 4.878907 8.636719 6.742188 13.519532 4.15625 4.878906-2.585937 6.738281-8.636718 4.15625-13.519531zm0 0"/><path d="m289.367188 321.867188-25.5 20.511718c-4.300782 3.460938-4.984376 9.753906-1.523438 14.058594s9.757812 4.984375 14.058594 1.523438l25.5-20.507813c2.808594-2.234375 4.203125-5.796875 3.664062-9.339844-.542968-3.546875-2.945312-6.53125-6.289062-7.820312-3.347656-1.289063-7.128906-.6875-9.910156 1.574219zm0 0"/><path d="m208.542969 359.566406c3.082031-2.234375 4.628906-6.023437 3.992187-9.777344-.640625-3.75-3.355468-6.816406-7.003906-7.902343l-49.578125-14.777344-15.9375-49.226563c-1.171875-3.625-4.296875-6.265624-8.066406-6.816406-3.765625-.550781-7.515625 1.082032-9.679688 4.214844l-29.382812 42.394531-51.730469-.265625h-.011719c-3.832031.09375-7.289062 2.316406-8.960937 5.765625-1.675782 3.449219-1.28125 7.542969 1.019531 10.609375l31.425781 41.152344-16.050781 49.207031c-1.183594 3.617188-.207031 7.597657 2.515625 10.261719 2.71875 2.664062 6.71875 3.550781 10.3125 2.289062l48.800781-17.179687 41.820313 30.464844c3.074218 2.242187 7.15625 2.542969 10.53125.777343 3.371094-1.769531 5.445312-5.296874 5.351562-9.101562l-1.261718-51.726562zm-57.886719 17.257813c-2.664062 1.929687-4.207031 5.050781-4.128906 8.339843l.902344 36.722657-29.691407-21.628907c-2.660156-1.9375-6.105469-2.441406-9.210937-1.351562l-34.648438 12.203125 11.394532-34.914063c1.019531-3.128906.433593-6.5625-1.5625-9.175781l-22.3125-29.417969 36.726562-.191406h.011719c3.25.089844 6.335937-1.441406 8.230469-4.085937l20.863281-30.125 11.3125 35.011719c1.011719 3.136718 3.5 5.582031 6.65625 6.53125l35.199219 10.507812zm0 0"/><path d="m65.078125 267.355469c-4.851563 2.636719-6.648437 8.710937-4.007813 13.5625l12.019532 22.101562c2.640625 4.851563 8.710937 6.644531 13.5625 4.003907 4.851562-2.636719 6.648437-8.710938 4.007812-13.5625l-12.019531-22.097657c-2.640625-4.851562-8.710937-6.648437-13.5625-4.007812zm0 0"/><path d="m191.863281 283.042969-25.429687 22.167969c-2.707032 2.34375-3.957032 5.957031-3.273438 9.472656s3.195313 6.398437 6.585938 7.554687 7.140625.414063 9.832031-1.953125l25.429687-22.167968c2.699219-2.34375 3.945313-5.953126 3.261719-9.464844-.6875-3.511719-3.195312-6.390625-6.582031-7.550782-3.386719-1.15625-7.132812-.417968-9.824219 1.941407zm0 0"/><path d="m52.515625 377.839844c-1.519531-5.308594-7.054687-8.382813-12.363281-6.863282l-32.492188 9.289063c-5.308594 1.519531-8.382812 7.054687-6.863281 12.363281 1.519531 5.3125 7.054687 8.386719 12.363281 6.867188l32.492188-9.292969c5.308594-1.515625 8.382812-7.050781 6.863281-12.363281zm0 0"/><path d="m226.429688 418.523438-34.914063-24.488282c-4.523437-3.171875-10.757813-2.078125-13.929687 2.445313-3.171876 4.523437-2.074219 10.757812 2.445312 13.929687l34.910156 24.488282c4.523438 3.171874 10.757813 2.078124 13.929688-2.441407 3.171875-4.523437 2.078125-10.757812-2.441406-13.929687zm0 0"/><path d="m109.894531 432.0625c-5.433593-.988281-10.640625 2.617188-11.628906 8.050781l-4.527344 24.917969c-.988281 5.433594 2.613281 10.640625 8.046875 11.628906 5.4375.988282 10.640625-2.617187 11.628906-8.050781l4.53125-24.917969c.988282-5.4375-2.617187-10.644531-8.050781-11.628906zm0 0"/></g></svg>