<svg height="470pt" viewBox="0 0 470 470" width="470pt" xmlns="http://www.w3.org/2000/svg"><path d="m355.390625 235c0 66.488281-53.902344 120.390625-120.390625 120.390625s-120.390625-53.902344-120.390625-120.390625 53.902344-120.390625 120.390625-120.390625 120.390625 53.902344 120.390625 120.390625zm0 0" fill="#fedb41"/><g fill="#083863"><path d="m235 104.609375c-72.011719 0-130.390625 58.378906-130.390625 130.390625s58.378906 130.390625 130.390625 130.390625 130.390625-58.378906 130.390625-130.390625c-.082031-71.980469-58.410156-130.308594-130.390625-130.390625zm0 240.78125c-60.964844 0-110.390625-49.425781-110.390625-110.390625s49.425781-110.390625 110.390625-110.390625 110.390625 49.425781 110.390625 110.390625c-.070313 60.9375-49.453125 110.320312-110.390625 110.390625zm0 0"/><path d="m245 61v-51c0-5.523438-4.476562-10-10-10s-10 4.476562-10 10v51c0 5.523438 4.476562 10 10 10s10-4.476562 10-10zm0 0"/><path d="m235 399c-5.523438 0-10 4.476562-10 10v51c0 5.523438 4.476562 10 10 10s10-4.476562 10-10v-51c0-5.523438-4.476562-10-10-10zm0 0"/><path d="m460 225h-51c-5.523438 0-10 4.476562-10 10s4.476562 10 10 10h51c5.523438 0 10-4.476562 10-10s-4.476562-10-10-10zm0 0"/><path d="m71 235c0-5.523438-4.476562-10-10-10h-51c-5.523438 0-10 4.476562-10 10s4.476562 10 10 10h51c5.523438 0 10-4.476562 10-10zm0 0"/><path d="m365.261719 118.882812 35.46875-35.472656c3.875-3.910156 3.863281-10.21875-.03125-14.109375-3.890625-3.894531-10.199219-3.90625-14.109375-.03125l-35.472656 35.46875c-2.542969 2.523438-3.542969 6.214844-2.621094 9.675781.921875 3.464844 3.625 6.167969 7.089844 7.089844 3.460937.921875 7.152343-.078125 9.675781-2.621094zm0 0"/><path d="m104.738281 351.117188-35.46875 35.472656c-2.546875 2.523437-3.546875 6.210937-2.625 9.675781.921875 3.460937 3.628907 6.167969 7.089844 7.089844 3.464844.921875 7.152344-.078125 9.675781-2.625l35.472656-35.46875c3.875-3.910157 3.859376-10.21875-.03125-14.113281-3.894531-3.890626-10.203124-3.90625-14.113281-.03125zm0 0"/><path d="m365.261719 351.117188c-3.910157-3.875-10.21875-3.859376-14.113281.03125-3.890626 3.894531-3.90625 10.203124-.03125 14.113281l35.472656 35.46875c3.910156 3.875 10.21875 3.863281 14.109375-.03125 3.894531-3.890625 3.90625-10.199219.03125-14.109375zm0 0"/><path d="m104.738281 118.882812c3.910157 3.875 10.21875 3.859376 14.113281-.03125 3.890626-3.894531 3.90625-10.203124.03125-14.113281l-35.472656-35.46875c-3.910156-3.875-10.21875-3.863281-14.109375.03125-3.894531 3.890625-3.90625 10.199219-.03125 14.109375zm0 0"/></g></svg>