<svg height="466.97709pt" viewBox="0 0 466.97709 466.97709" width="466.97709pt" xmlns="http://www.w3.org/2000/svg"><path d="m456.976562 233.484375-95.269531 48.601563-.269531-.101563c11.839844-31.25 11.839844-65.75 0-97l.269531-.097656zm0 0" fill="#f4b844"/><path d="m391.515625 75.453125-33 101.730469-.269531.121094c-13.789063-30.417969-38.160156-54.789063-68.578125-68.578126l.117187-.273437zm0 0" fill="#f4b844"/><path d="m358.515625 289.785156 33 101.730469-101.730469-33-.117187-.269531c30.417969-13.789063 54.789062-38.164063 68.578125-68.582032zm0 0" fill="#f4b844"/><path d="m361.4375 184.984375c11.839844 31.25 11.839844 65.75 0 97-.992188 2.601563-2.054688 5.160156-3.191406 7.679687-13.789063 30.417969-38.160156 54.792969-68.578125 68.582032-2.519531 1.140625-5.082031 2.203125-7.679688 3.1875-31.25 11.839844-65.75 11.839844-97 0-2.601562-.988282-5.160156-2.050782-7.679687-3.1875-30.421875-13.789063-54.792969-38.164063-68.582032-68.582032-1.140624-2.519531-2.203124-5.078124-3.191406-7.679687-11.839844-31.25-11.839844-65.75 0-97 .992188-2.597656 2.054688-5.160156 3.191406-7.679687 13.789063-30.417969 38.160157-54.789063 68.582032-68.578126 2.519531-1.140624 5.078125-2.203124 7.679687-3.191406 31.25-11.839844 65.75-11.839844 97 0 2.597657.988282 5.160157 2.054688 7.679688 3.191406 30.417969 13.789063 54.789062 38.160157 68.578125 68.578126 1.140625 2.519531 2.203125 5.082031 3.191406 7.679687zm0 0" fill="#fedb41"/><g fill="#f4b844"><path d="m233.488281 9.996094 48.597657 95.269531-.097657.269531c-31.25-11.839844-65.75-11.839844-97 0l-.101562-.269531zm0 0"/><path d="m281.988281 361.433594.097657.269531-48.597657 95.273437-48.601562-95.273437.101562-.269531c31.25 11.839844 65.75 11.839844 97 0zm0 0"/><path d="m177.1875 108.453125.121094.273437c-30.421875 13.789063-54.792969 38.160157-68.582032 68.578126l-.269531-.121094-33-101.730469zm0 0"/><path d="m177.308594 358.246094-.121094.269531-101.730469 33 33-101.730469.269531-.121094c13.789063 30.417969 38.160157 54.792969 68.582032 68.582032zm0 0"/><path d="m105.265625 184.886719.269531.097656c-11.839844 31.25-11.839844 65.75 0 97l-.269531.101563-95.269531-48.601563zm0 0"/></g><path d="m461.519531 224.578125-92.296875-47.089844c-.054687-.128906-.101562-.257812-.160156-.386719l31.972656-98.558593c1.160156-3.578125.21875-7.503907-2.441406-10.160157-2.660156-2.660156-6.582031-3.601562-10.160156-2.441406l-98.5625 31.972656c-.128906-.054687-.257813-.105468-.386719-.15625l-47.089844-92.300781c-1.707031-3.347656-5.148437-5.457031-8.90625-5.457031-3.761719 0-7.203125 2.109375-8.910156 5.457031l-47.085937 92.304688c-.128907.050781-.257813.105469-.386719.160156l-98.5625-31.980469c-3.574219-1.160156-7.5-.21875-10.160157 2.441406-2.660156 2.660157-3.601562 6.585938-2.441406 10.160157l31.972656 98.5625c-.054687.128906-.105468.257812-.15625.386719l-92.300781 47.085937c-3.347656 1.707031-5.457031 5.148437-5.457031 8.910156 0 3.757813 2.109375 7.199219 5.457031 8.90625l92.300781 47.089844c.054688.128906.105469.257813.160157.386719l-31.972657 98.558594c-1.160156 3.574218-.21875 7.5 2.441407 10.160156 2.65625 2.65625 6.582031 3.601562 10.160156 2.4375l98.558594-31.96875c.128906.050781.257812.105468.386719.15625l47.089843 92.304687c1.707031 3.351563 5.148438 5.457031 8.90625 5.457031 3.757813 0 7.199219-2.105468 8.910157-5.457031l47.089843-92.304687c.128907-.054688.257813-.101563.386719-.160156l98.5625 31.972656c3.574219 1.160156 7.5.21875 10.160156-2.441406 2.65625-2.65625 3.601563-6.582032 2.4375-10.160157l-31.976562-98.558593c.050781-.128907.105468-.257813.15625-.386719l92.304687-47.085938c3.351563-1.710937 5.457031-5.152343 5.457031-8.910156s-2.105468-7.199219-5.457031-8.90625zm-109.425781 53.847656c-.933594 2.445313-1.925781 4.839844-2.957031 7.121094-12.761719 28.222656-35.367188 50.828125-63.589844 63.585937-2.277344 1.03125-4.671875 2.023438-7.117187 2.957032-28.957032 10.964844-60.925782 10.964844-89.882813 0-2.445313-.933594-4.84375-1.925782-7.121094-2.957032-28.222656-12.757812-50.828125-35.367187-63.585937-63.589843-1.03125-2.277344-2.027344-4.671875-2.957032-7.117188-10.96875-28.957031-10.96875-60.925781 0-89.882812.933594-2.445313 1.925782-4.839844 2.957032-7.117188 12.757812-28.226562 35.367187-50.832031 63.589844-63.589843 2.277343-1.03125 4.671874-2.023438 7.117187-2.957032 28.957031-10.964844 60.925781-10.964844 89.882813 0 2.445312.933594 4.839843 1.925782 7.117187 2.957032 28.226563 12.757812 50.832031 35.367187 63.589844 63.589843 1.03125 2.277344 2.023437 4.671875 2.957031 7.117188 10.964844 28.957031 10.964844 60.925781 0 89.882812zm3.894531-125.839843c-10.929687-16.523438-25.078125-30.671876-41.601562-41.601563l61.570312-19.972656zm-122.5-120.585938 29.386719 57.609375c-19.394531-3.9375-39.382812-3.9375-58.777344 0zm-80.902343 78.984375c-16.523438 10.929687-30.671876 25.078125-41.597657 41.601563l-19.972656-61.570313zm-62.976563 93.109375c-3.9375 19.394531-3.9375 39.382812 0 58.773438l-57.605469-29.382813zm21.378906 110.292969c10.925781 16.519531 25.074219 30.671875 41.597657 41.597656l-61.570313 19.972656zm122.5 120.582031-29.390625-57.609375c19.394532 3.941406 39.382813 3.941406 58.777344 0zm80.898438-78.984375c16.523437-10.925781 30.671875-25.078125 41.601562-41.597656l19.972657 61.570312zm62.976562-93.105469c3.941407-19.394531 3.941407-39.382812 0-58.777344l57.609375 29.382813zm0 0" fill="#083863"/></svg>