<svg height="470pt" viewBox="0 -34 470 470" width="470pt" xmlns="http://www.w3.org/2000/svg"><path d="m355.390625 234.75c.039063 27.507812-9.375 54.191406-26.671875 75.578125v.671875h-187.308594v-.519531c-33.292968-41.144531-35.808594-99.207031-6.203125-143.078125s84.394531-63.257813 135.003907-47.777344c50.613281 15.480469 85.179687 62.199219 85.179687 115.125zm0 0" fill="#fedb41"/><g fill="#083863"><path d="m244 61v-51c0-5.523438-4.476562-10-10-10s-10 4.476562-10 10v51c0 5.523438 4.476562 10 10 10s10-4.476562 10-10zm0 0"/><path d="m460 226h-51c-5.523438 0-10 4.476562-10 10s4.476562 10 10 10h51c5.523438 0 10-4.476562 10-10s-4.476562-10-10-10zm0 0"/><path d="m71 236c0-5.523438-4.476562-10-10-10h-51c-5.523438 0-10 4.476562-10 10s4.476562 10 10 10h51c5.523438 0 10-4.476562 10-10zm0 0"/><path d="m365.261719 118.632812 35.46875-35.472656c3.875-3.910156 3.863281-10.21875-.03125-14.109375-3.890625-3.894531-10.199219-3.90625-14.109375-.03125l-35.472656 35.46875c-2.542969 2.523438-3.542969 6.214844-2.621094 9.675781.921875 3.464844 3.625 6.167969 7.089844 7.089844 3.460937.921875 7.152343-.078125 9.675781-2.621094zm0 0"/><path d="m104.738281 118.632812c3.910157 3.875 10.21875 3.859376 14.113281-.03125 3.890626-3.894531 3.90625-10.203124.03125-14.113281l-35.472656-35.46875c-3.910156-3.875-10.21875-3.863281-14.109375.03125-3.894531 3.890625-3.90625 10.199219-.03125 14.109375zm0 0"/><path d="m445 301h-97.699219c32.3125-54.765625 20.410157-124.855469-28.171875-165.882812-48.582031-41.027344-119.675781-41.027344-168.257812 0-48.582032 41.027343-60.484375 111.117187-28.171875 165.882812h-98.699219c-5.523438 0-10 4.476562-10 10s4.476562 10 10 10h421c5.523438 0 10-4.476562 10-10s-4.476562-10-10-10zm-320.390625-66.25c-.003906-48.035156 31.054687-90.558594 76.8125-105.167969 45.761719-14.613281 95.714844 2.046875 123.546875 41.195313 27.835938 39.148437 27.15625 91.804687-1.675781 130.222656h-176.582031c-14.328126-19.117188-22.078126-42.359375-22.101563-66.25zm0 0"/><path d="m395 341h-321c-5.523438 0-10 4.476562-10 10s4.476562 10 10 10h321c5.523438 0 10-4.476562 10-10s-4.476562-10-10-10zm0 0"/><path d="m345 381h-221c-5.523438 0-10 4.476562-10 10s4.476562 10 10 10h221c5.523438 0 10-4.476562 10-10s-4.476562-10-10-10zm0 0"/></g></svg>