<svg height="470pt" viewBox="-121 0 470 470.82" width="470pt" xmlns="http://www.w3.org/2000/svg"><path d="m114.898438 389.679688c-.238282.011718-.46875.011718-.707032.011718-57.320312 0-103.78125-85-103.78125-189.851562 0-104.851563 46.460938-189.839844 103.78125-189.839844 57.320313 0 103.777344 85 103.777344 189.839844 0 104.421875-46.078125 189.148437-103.070312 189.839844zm0 0" fill="#3bb54a"/><path d="m114.191406 0c-31.546875 0-60.726562 21.601562-82.160156 60.808594-20.390625 37.300781-31.621094 86.675781-31.621094 139.03125 0 52.355468 11.378906 101.738281 31.765625 139.039062 19.3125 35.332032 45.015625 56.355469 73.015625 60.171875v61.769531c0 5.523438 4.476563 10 10 10 5.519532 0 10-4.476562 10-10v-61.992187c27-4.347656 52.550782-25.425781 71.546875-60.398437 20.234375-37.25 31.304688-86.46875 31.304688-138.59375 0-52.351563-11.265625-101.730469-31.65625-139.03125-21.4375-39.207032-50.652344-60.804688-82.195313-60.804688zm64.972656 328.886719c-15.117187 27.828125-33.972656 45.046875-53.972656 49.582031v-71.269531l53.917969-33.726563c2.242187-1.410156 3.828125-3.65625 4.414063-6.238281.585937-2.585937.117187-5.296875-1.296876-7.535156-1.378906-2.25-3.601562-3.851563-6.167968-4.449219-2.566406-.601562-5.269532-.148438-7.5 1.257812l-43.367188 27.121094v-160.207031c0-5.523437-4.480468-10-10-10-5.523437 0-10 4.476563-10 10v103.664063l-25.890625-21.691407c-2.730469-2.339843-6.5-3.035156-9.882812-1.820312-3.378907 1.214843-5.847657 4.152343-6.464844 7.691406-.613281 3.539063.71875 7.136719 3.492187 9.421875l38.746094 32.554688v125.535156c-21-4.011719-40.015625-21.226563-55.464844-49.492188-18.8125-34.410156-29.242187-80.382812-29.242187-129.445312s10.320313-95.03125 29.132813-129.4375c17.765624-32.5 40.699218-50.402344 64.589843-50.402344 23.894531 0 46.835938 17.902344 64.601563 50.402344 18.808594 34.410156 29.238281 80.378906 29.238281 129.4375 0 48.847656-10.210937 94.675781-28.882813 129.046875zm0 0" fill="#083863"/></svg>