<svg height="499pt" viewBox="-56 0 499 499.1" width="499pt" xmlns="http://www.w3.org/2000/svg"><path d="m191.429688 376.980469c-100.359376-1.128907-181.378907-82.839844-181.378907-183.480469 0-101.339844 82.160157-183.5 183.5-183.5 101.339844 0 183.5 82.160156 183.5 183.5 0 101.34375-82.15625 183.5-183.5 183.5-.710937 0-1.421875 0-2.121093-.019531zm0 0" fill="#3bb54a"/><path d="m193.550781 0c-106.699219 0-193.4999998 86.800781-193.4999998 193.5.0546878 102.183594 79.5156248 186.730469 181.4999998 193.117188v102.484374c0 5.519532 4.476563 10 10 10 5.523438 0 10-4.480468 10-10v-102.273437c103-4.152344 185.558594-89.273437 185.558594-193.328125 0-106.695312-86.859375-193.5-193.558594-193.5zm8 366.8125v-47.183594l59.863281-37.386718c4.503907-2.992188 5.8125-9.023438 2.953126-13.617188-2.859376-4.589844-8.851563-6.074219-13.523438-3.347656l-49.292969 30.777344v-122.976563c0-5.519531-4.476562-10-10-10-5.523437 0-10 4.480469-10 10v61.144531l-30-25.238281c-2.714843-2.433594-6.542969-3.195313-9.984375-1.992187-3.441406 1.207031-5.953125 4.191406-6.554687 7.789062-.601563 3.597656.804687 7.234375 3.664062 9.496094l42.875 36.101562v106.1875c-90.921875-6.335937-161.445312-81.925781-161.472656-173.066406 0-95.667969 77.820313-173.5 173.488281-173.5 95.667969 0 173.550782 77.832031 173.550782 173.5 0 93.027344-73.566407 169.179688-165.566407 173.3125zm0 0" fill="#083863"/></svg>