<svg height="500pt" viewBox="-59 0 500 500.1228" width="500pt" xmlns="http://www.w3.org/2000/svg"><path d="m183.4375 384.011719c-24.460938 26.238281-61.085938 37.382812-96.015625 29.222656s-62.828125-34.382813-73.128906-68.742187c-10.304688-34.359376-1.441407-71.605469 23.234375-97.640626-14.558594-41.234374 3.839844-86.859374 42.929687-106.457031.125-.074219.25-.136719.378907-.191406-10.683594-14.023437-16.441407-31.179687-16.378907-48.808594.050781-37.921875 26.289063-70.777343 63.253907-79.214843 36.96875-8.433594 74.863281 9.789062 91.355468 43.933593 21.1875-9.277343 45.882813-4.726562 62.375 11.488281 16.488282 16.214844 21.449219 40.835938 12.527344 62.171876 17.136719 21.246093 22.980469 49.453124 15.699219 75.757812 39.441406 18.976562 63.914062 59.496094 62.351562 103.238281-1.566406 43.738281-28.867187 82.40625-69.566406 98.515625-40.695313 16.109375-87.066406 6.605469-118.144531-24.210937-.292969.320312-.582032.628906-.871094.9375zm0 0" fill="#3bb54a"/><path d="m321.140625 200.261719c4.6875-25.222657-1.050781-51.261719-15.90625-72.175781 7.375-23.328126 1.371094-48.824219-15.640625-66.410157-17.011719-17.585937-42.292969-24.433593-65.855469-17.835937-25.984375-42.703125-81.480469-56.570313-124.503906-31.109375-43.019531 25.460937-57.566406 80.78125-32.640625 124.109375-35.578125 23.144531-51.929688 66.765625-40.332031 107.59375-16.953125 19.878906-26.246094 45.164062-26.199219 71.289062 0 60.730469 49.230469 110.140625 109.96875 110.140625 22.578125.023438 44.609375-6.964843 63.046875-19.996093v84.253906c0 5.523437 4.476563 10 10 10s10-4.476563 10-10v-86.472656c20.15625 13.96875 44.105469 21.429687 68.628906 21.375 66.285157 0 120.300781-53.917969 120.300781-120.191407.035157-43.277343-23.214843-83.230469-60.867187-104.570312zm-59.433594 204.761719c-25.476562-.003907-50-9.667969-68.628906-27.042969v-28.980469l49.632813-30.851562c4.703124-2.902344 6.171874-9.066407 3.28125-13.78125-2.984376-4.6875-9.183594-6.109376-13.914063-3.1875l-39 24.246093v-100.144531c0-5.519531-4.476563-10-10-10s-10 4.480469-10 10v47.765625l-22.253906-18.914063c-4.226563-3.570312-10.546875-3.042968-14.117188 1.183594-3.574219 4.222656-3.042969 10.542969 1.179688 14.117188l35.191406 29.769531v80.738281c-16 16.515625-39.425781 25.921875-63.050781 25.921875-36.011719-.007812-68.558594-21.464843-82.761719-54.558593-14.203125-33.089844-7.332031-71.464844 17.472656-97.570313 2.59375-2.726563 3.441407-6.679687 2.191407-10.226563-12.851563-36.492187 3.4375-76.847656 38.023437-94.1875.054687-.027343.109375-.054687.164063-.082031 2.730468-1.292969 4.726562-3.753906 5.4375-6.6875.710937-2.9375.054687-6.039062-1.78125-8.433593-9.316407-12.292969-14.34375-27.300782-14.316407-42.722657.046875-33.261719 23.066407-62.074219 55.492188-69.46875 32.429687-7.390625 65.660156 8.597657 80.121093 38.550781 2.34375 4.835938 8.09375 6.957032 13.015626 4.796876 17.4375-7.632813 37.769531-3.886719 51.339843 9.460937 13.574219 13.347656 17.660157 33.609375 10.320313 51.175781-1.421875 3.390625-.867188 7.292969 1.445312 10.15625 15.109375 18.734375 20.261719 43.601563 13.839844 66.800782-1.292969 4.664062.9375 9.585937 5.300781 11.683593 34.714844 16.65625 56.761719 51.78125 56.675781 90.28125 0 55.246094-45.046874 100.191407-100.300781 100.191407zm0 0" fill="#083863"/></svg>