<svg height="495pt" viewBox="0 -90 495.28862 495" width="495pt" xmlns="http://www.w3.org/2000/svg"><path d="m411.960938 261.394531h-73.332032l73.332032-251.25 73.328124 251.25zm0 0" fill="#3bb54a"/><path d="m287.449219 176.257812 26.511719 80.289063h-165.832032l33.230469-80.289063zm0 0" fill="#3bb54a"/><path d="m262.660156 94.535156 38.148438 81.722656h-139.527344l37.75-81.722656zm0 0" fill="#b1d56e"/><path d="m232.230469 11.386719 44.050781 83.148437h-90.480469zm0 0" fill="#3bb54a"/><path d="m75.011719 259.757812c-.152344.007813-.292969.007813-.441407.007813-35.570312 0-64.398437-52.75-64.398437-117.820313 0-65.070312 28.828125-117.808593 64.398437-117.808593 35.570313 0 64.398438 52.75 64.398438 117.808593 0 64.800782-28.589844 117.382813-63.957031 117.8125zm0 0" fill="#b1d56e"/><g fill="#083863"><path d="m301.273438 186.226562c3.332031-.144531 6.371093-1.945312 8.097656-4.800781 1.726562-2.851562 1.914062-6.378906.5-9.398437l-31.609375-67.710938c3.09375-.617187 5.710937-2.660156 7.0625-5.507812 1.347656-2.851563 1.273437-6.171875-.207031-8.953125l-44.050782-83.152344c-1.714844-3.234375-5.0625-5.273437-8.726562-5.3125-3.664063-.039063-7.054688 1.925781-8.839844 5.125l-46.429688 83.152344c-1.535156 2.738281-1.691406 6.039062-.421874 8.910156 1.269531 2.875 3.816406 4.980469 6.875 5.6875l-31.320313 67.804687c-1.429687 3.140626-1.1875 6.792969.652344 9.710938 1.824219 2.902344 4.996093 4.6875 8.425781 4.734375h5.117188l-27.507813 66.335937c-1.273437 3.066407-.921875 6.570313.9375 9.320313 1.863281 2.75 4.980469 4.382813 8.300781 4.34375h72.601563v38.371094c0 5.523437 4.476562 10 10 10 5.523437 0 10-4.476563 10-10v-38.371094h73.230469c3.207031.007813 6.222656-1.527344 8.105468-4.125 1.882813-2.597656 2.402344-5.941406 1.394532-8.988281zm-69.273438-153.933593 27.664062 52.222656h-56.828124zm-26.570312 72.222656h50.867187l28.8125 62h-108.195313zm-42.339844 142 24.953125-60h92.175781l19.910156 60zm0 0"/><path d="m148.828125 141.945312c0-71.667968-32.609375-127.808593-74.328125-127.808593s-74.5 56.140625-74.5 127.808593c-.00390625 66.101563 27.730469 118.992188 64.730469 126.820313v35.140625c0 5.523438 4.476562 10 10 10 5.523437 0 10-4.476562 10-10v-35.351562c37-8.503907 64.097656-61.210938 64.097656-126.609376zm-64.097656 105.585938v-36.855469l31.898437-19.816406c4.703125-2.90625 6.160156-9.070313 3.261719-13.777344-2.96875-4.6875-9.160156-6.113281-13.882813-3.191406l-21.277343 13.210937v-92.574218c0-5.523438-4.476563-10-10-10-5.523438 0-10 4.476562-10 10v56.171875l-9.59375-8.207031c-4.230469-3.507813-10.496094-2.957032-14.039063 1.238281-3.546875 4.199219-3.050781 10.46875 1.113282 14.050781l22.519531 19.074219v71.125c-10-3.714844-19.21875-13.164063-27.066407-27.519531-11.371093-20.804688-17.5625-48.691407-17.5625-78.515626 0-29.824218 6.296876-57.699218 17.667969-78.503906 10.332031-18.902344 23.402344-29.300781 36.78125-29.300781 13.382813 0 26.445313 10.40625 36.773438 29.300781 11.375 20.804688 17.5 48.683594 17.5 78.503906.003906 55.839844-21.09375 95.964844-44.09375 105.585938zm0 0"/><path d="m421.558594 7.34375c-1.242188-4.265625-5.152344-7.199219-9.597656-7.199219-4.445313 0-8.355469 2.933594-9.601563 7.199219l-73.328125 251.25c-.882812 3.035156-.296875 6.308594 1.589844 8.847656 1.882812 2.535156 4.847656 4.042969 8.007812 4.074219h63.101563v33.320313c0 5.523437 4.476562 10 10 10 5.523437 0 10-4.476563 10-10v-33.320313h63.558593c3.15625-.027344 6.117188-1.53125 8.003907-4.0625 1.882812-2.53125 2.476562-5.796875 1.597656-8.828125zm.171875 244.171875v-13.28125l18.148437-11.253906c3.109375-1.859375 4.972656-5.253907 4.867188-8.878907-.105469-3.621093-2.160156-6.902343-5.371094-8.582031-3.210938-1.675781-7.082031-1.488281-10.113281.496094l-7.53125 4.644531v-49.265625c0-5.519531-4.476563-10-10-10-5.523438 0-10 4.480469-10 10v25.269531c-4.191407-3.457031-10.382813-2.878906-13.863281 1.289063-3.574219 4.207031-3.0625 10.515625 1.148437 14.089844l12.714844 10.761719v34.710937h-49.765625l59.996094-205.558594 59.992187 205.558594zm0 0"/></g></svg>