<svg height="490pt" viewBox="-18 0 490 490.58103" width="490pt" xmlns="http://www.w3.org/2000/svg"><path d="m351.046875 369.089844c-3.480469 3.480468-.660156 3.390625-5.660156 42.390625s-29 45-46 31-22-107-47-110-24 112-57 106-31-84-43-100-28 48-54 50.761719c-25.722657 2.726562 2.160156-82.011719 2.757812-83.832032.007813-.007812.007813-.019531.011719-.03125 25.429688-60.339844 27.488281-107.898437 27.488281-107.898437h.03125c1.03125 11.429687 35.871094 20.609375 78.710938 20.609375 41.410156 0 75.359375-8.578125 78.507812-19.480469 0 0 12.371094 82.429687 65.152344 170.480469zm0 0" fill="#00acea"/><path d="m286.136719 196.960938c0 .558593-.082031 1.113281-.242188 1.648437-3.148437 10.902344-37.097656 19.480469-78.507812 19.480469-42.839844 0-77.679688-9.179688-78.710938-20.609375-.019531-.171875-.03125-.347657-.03125-.519531 0-11.679688 35.25-21.140626 78.742188-21.140626 43.488281 0 78.75 9.460938 78.75 21.140626zm0 0" fill="#00efd1"/><g fill="#083863"><path d="m451.269531 472.933594c-35.3125-29.761719-66.148437-66.429688-91.648437-108.984375-47.214844-78.765625-61.597656-153.84375-63.585938-165.316407.0625-.554687.097656-1.113281.101563-1.671874 0-10.902344-10.253907-19.179688-30.476563-24.609376-15.691406-4.210937-36.386718-6.53125-58.273437-6.53125s-42.582031 2.320313-58.273438 6.53125c-20.21875 5.429688-30.46875 13.707032-30.46875 24.609376 0 .042968.007813.085937.007813.132812-.734375 10.183594-2.113282 20.3125-4.132813 30.320312-4.953125 25.40625-12.519531 50.234376-22.578125 74.082032-.003906.011718-.007812.019531-.011718.03125-20.003907 47.945312-50.148438 90.996094-88.355469 126.195312-2.660157 2.410156-3.824219 6.0625-3.046875 9.566406.773437 3.507813 3.371094 6.328126 6.796875 7.390626 3.429687 1.066406 7.167969.210937 9.792969-2.238282 22.996093-21.144531 43.269531-45.066406 60.359374-71.214844.050782 8.617188 1.589844 16.289063 5.777344 21.480469 3.886719 4.847657 10.027344 7.308594 16.1875 6.476563 18.273438-1.9375 30.578125-22.128906 40.460938-38.351563 2-3.28125 4.601562-7.550781 6.863281-10.816406 1.910156 6.144531 3.722656 15.632813 5.265625 23.714844 5.898438 30.9375 13.246094 69.441406 41.566406 74.589843 7.257813 1.316407 14.179688-.722656 20.015625-5.902343 4.207031-3.734375 7.886719-9.117188 11.242188-16.457031 5.5-12.027344 9.441406-27.757813 13.25-42.96875 2.65625-10.601563 5.164062-20.617188 7.980469-28.554688 2.710937-7.644531 4.800781-10.621094 5.777343-11.699219 1.304688.855469 4.433594 3.855469 8.53125 14.171875 4.378907 11.019532 8.03125 25.710938 11.5625 39.921875 6.976563 28.074219 11.726563 45.671875 21.070313 53.367188 7.285156 6 15.691406 9.125 23.894531 9.125 3.929687.007812 7.824219-.726563 11.476563-2.171875 19.445312-7.699219 25.199218-31.125 26.90625-44.398438.773437-6.035156 1.363281-11.160156 1.820312-15.539062 22.765625 33.9375 50.113281 64.5625 81.261719 91.011718 4.222656 3.558594 10.53125 3.023438 14.089843-1.199218 3.558594-4.226563 3.019532-10.535156-1.203124-14.09375zm-243.882812-287.113282c36.578125 0 59.71875 6.5625 67.039062 11.136719-7.324219 4.570313-30.464843 11.132813-67.039062 11.132813-36.578125 0-59.722657-6.566406-67.03125-11.132813 7.316406-4.566406 30.453125-11.136719 67.03125-11.136719zm131.339843 191.699219c-.367187 5.574219-.980468 14.902344-3.261718 32.6875-1.941406 15.152344-7.199219 25.484375-14.433594 28.347657-4.578125 1.816406-10.152344.433593-15.289062-3.796876-4.71875-3.886718-10.527344-27.277343-14.375-42.753906-8.550782-34.414062-16.628907-66.917968-37.789063-69.457031-10.128906-1.214844-18.324219 5.527344-24.363281 20.039063-4.035156 9.691406-7.179688 22.246093-10.507813 35.539062-3.59375 14.335938-7.308593 29.160156-12.039062 39.511719-1.617188 3.53125-5.777344 11.679687-9.492188 11-14.824219-2.691407-20.992187-35.039063-25.5-58.660157-3.210937-16.820312-5.746093-30.105468-11.292969-37.5-4.511718-6.015624-9.964843-6.683593-12.816406-6.546874-10.113281.488281-16.25 10.558593-24.742187 24.5-6.5 10.675781-16.203125 26.582031-24.433594 28.675781-.882813-2.804688-2.351563-11.960938 2.992187-36.5 3.535157-16.234375 8.355469-31.285157 9.148438-33.726563 10.589844-25.179687 18.539062-51.386718 23.726562-78.203125.941407-4.945312 1.683594-9.425781 2.265626-13.371093 4.316406 1.808593 8.757812 3.296874 13.289062 4.445312 15.601562 4.09375 36.042969 6.347656 57.570312 6.347656 9.890626 0 49.015626-.699218 71.882813-11.191406 6.253906 28.242188 22.777344 88.28125 60.390625 152.582031-.53125 2.648438-.839844 5.335938-.929688 8.035157zm0 0"/><path d="m61.449219 47.589844c-5.207031-1.589844-10.730469 1.273437-12.425781 6.445312-1.699219 5.175782 1.054687 10.753906 6.191406 12.554688.472656.15625 46.972656 16.089844 54.785156 60.070312.605469 3.535156 3.058594 6.476563 6.429688 7.703125 3.371093 1.230469 7.140624.558594 9.878906-1.753906 2.742187-2.316406 4.03125-5.921875 3.382812-9.449219-9.933594-55.921875-65.867187-74.789062-68.242187-75.570312zm0 0"/><path d="m182.785156 2.699219c-3.3125 2.566406-4.671875 6.929687-3.402344 10.929687 1.269532 3.996094 4.894532 6.773438 9.085938 6.960938 2.351562 4.863281 7.398438 21.4375 7.398438 74.179687 0 5.523438 4.476562 10 10 10 5.523437 0 10-4.476562 10-10 0-74.113281-9.484376-88.753906-18.761719-93.300781-4.621094-2.335938-10.164063-1.859375-14.320313 1.230469zm0 0"/><path d="m342.980469 67.515625c-2.054688.609375-50.492188 15.480469-67.53125 63.210937-1.859375 5.203126.851562 10.925782 6.054687 12.78125 5.199219 1.859376 10.921875-.855468 12.78125-6.054687 13.546875-37.949219 53.898438-50.617187 54.410156-50.773437 5.257813-1.605469 8.230469-7.15625 6.660157-12.421876-1.570313-5.265624-7.097657-8.277343-12.375-6.742187zm0 0"/></g></svg>