<svg height="458pt" viewBox="0 -36 458.105 458" width="458pt" xmlns="http://www.w3.org/2000/svg"><g fill="#083863"><path d="m236.921875 103.453125h-226.921875c-5.523438 0-10 4.476563-10 10s4.476562 10 10 10h226.921875c34.074219-.046875 61.660156-27.710937 61.613281-61.785156-.046875-34.078125-27.710937-61.66406275-61.785156-61.6171878-5.523438 0-10 4.4804688-10 9.9999998 0 5.523438 4.476562 10 10 10 23.03125-.046875 41.738281 18.585938 41.785156 41.617188s-18.585937 41.738281-41.613281 41.785156zm0 0"/><path d="m10 169.453125h339.941406c33.925782-.046875 61.390625-27.589844 61.34375-61.515625s-27.589844-61.390625-61.515625-61.34375c-5.523437 0-10 4.476562-10 10s4.476563 10 10 10c22.882813-.046875 41.46875 18.460938 41.515625 41.34375s-18.464844 41.46875-41.34375 41.515625h-339.941406c-5.523438 0-10 4.476563-10 10s4.476562 10 10 10zm0 0"/><path d="m396.671875 205.453125h-386.671875c-5.523438 0-10 4.476563-10 10s4.476562 10 10 10h386.671875c22.878906-.003906 41.429687 18.542969 41.433594 41.425781.003906 22.878906-18.542969 41.429688-41.425781 41.433594-5.523438 0-10 4.476562-10 10s4.476562 10 10 10c33.925781-.003906 61.429687-27.507812 61.425781-61.433594-.003907-33.929687-27.507813-61.429687-61.433594-61.425781zm0 0"/><path d="m198.890625 262.453125h-188.890625c-5.523438 0-10 4.476563-10 10s4.476562 10 10 10h188.890625c14.828125-.105469 28.574219 7.742187 36.019531 20.566406 7.441406 12.824219 7.445313 28.652344.003906 41.476563-7.441406 12.824218-21.1875 20.679687-36.015624 20.578125-5.519532 0-10 4.476562-10 10 0 5.519531 4.480468 10 10 10 33.863281-.003907 61.308593-27.457031 61.304687-61.316407 0-33.859374-27.453125-61.308593-61.3125-61.304687zm0 0"/></g></svg>